<svg width="294" height="294" viewBox="0 0 294 294" fill="none" xmlns="http://www.w3.org/2000/svg">
<rect y="10" width="284" height="284" fill="#0C0C0C"/>
<mask id="path-2-outside-1_78_1386" maskUnits="userSpaceOnUse" x="8" y="0" width="286" height="286" fill="black">
<rect fill="white" x="8" width="286" height="286"/>
<path d="M10 0H294V284H10V0Z"/>
</mask>
<path d="M10 0H294V284H10V0Z" fill="white"/>
<path d="M10 284H8V286H10V284ZM294 282H10V286H294V282ZM12 284V0H8V284H12Z" fill="#0C0C0C" mask="url(#path-2-outside-1_78_1386)"/>
<mask id="path-4-inside-2_78_1386" fill="white">
<path d="M199.333 0H294V94.67H199.333V0Z"/>
</mask>
<path d="M199.333 0H294V94.67H199.333V0Z" fill="white"/>
<path d="M294 0H296V-2H294V0ZM199.333 2H294V-2H199.333V2ZM292 0V94.67H296V0H292Z" fill="#0C0C0C" mask="url(#path-4-inside-2_78_1386)"/>
<mask id="path-6-inside-3_78_1386" fill="white">
<path d="M10 0H104.667V94.67H10V0Z"/>
</mask>
<path d="M10 0H104.667V94.67H10V0Z" fill="white"/>
<path d="M104.667 0H106.667V-2H104.667V0ZM10 2H104.667V-2H10V2ZM102.667 0V94.67H106.667V0H102.667Z" fill="#0C0C0C" mask="url(#path-6-inside-3_78_1386)"/>
<mask id="path-8-inside-4_78_1386" fill="white">
<path d="M104.667 94.6699H199.333V189.34H104.667V94.6699Z"/>
</mask>
<path d="M104.667 94.6699H199.333V189.34H104.667V94.6699Z" fill="white"/>
<path d="M199.333 94.6699H201.333V92.6699H199.333V94.6699ZM104.667 96.6699H199.333V92.6699H104.667V96.6699ZM197.333 94.6699V189.34H201.333V94.6699H197.333Z" fill="#0C0C0C" mask="url(#path-8-inside-4_78_1386)"/>
<mask id="path-10-inside-5_78_1386" fill="white">
<path d="M199.333 189.34H294V284.01H199.333V189.34Z"/>
</mask>
<path d="M199.333 189.34H294V284.01H199.333V189.34Z" fill="white"/>
<path d="M294 189.34H296V187.34H294V189.34ZM199.333 191.34H294V187.34H199.333V191.34ZM292 189.34V284.01H296V189.34H292Z" fill="#0C0C0C" mask="url(#path-10-inside-5_78_1386)"/>
<mask id="path-12-inside-6_78_1386" fill="white">
<path d="M10 189H104.667V283.67H10V189Z"/>
</mask>
<path d="M10 189H104.667V283.67H10V189Z" fill="white"/>
<path d="M104.667 189H106.667V187H104.667V189ZM10 191H104.667V187H10V191ZM102.667 189V283.67H106.667V189H102.667Z" fill="#0C0C0C" mask="url(#path-12-inside-6_78_1386)"/>
<mask id="path-14-inside-7_78_1386" fill="white">
<path d="M105 0H199.667V94.67H105V0Z"/>
</mask>
<path d="M105 0H199.667V94.67H105V0Z" fill="white"/>
<path d="M199.667 0H201.667V-2H199.667V0ZM105 2H199.667V-2H105V2ZM197.667 0V94.67H201.667V0H197.667Z" fill="#0C0C0C" mask="url(#path-14-inside-7_78_1386)"/>
<path d="M138.5 31.5C137.24 31.5 136.25 30.51 136.25 29.25C136.25 27.99 137.24 27 138.5 27C139.76 27 140.75 27.99 140.75 29.25C140.75 30.51 139.76 31.5 138.5 31.5ZM134 31.5C132.74 31.5 131.75 30.51 131.75 29.25C131.75 27.99 132.74 27 134 27C135.26 27 136.25 27.99 136.25 29.25C136.25 30.51 135.26 31.5 134 31.5ZM165.5 31.5C164.24 31.5 163.25 30.51 163.25 29.25C163.25 27.99 164.24 27 165.5 27C166.76 27 167.75 27.99 167.75 29.25C167.75 30.51 166.76 31.5 165.5 31.5ZM170 31.5C168.74 31.5 167.75 30.51 167.75 29.25C167.75 27.99 168.74 27 170 27C171.26 27 172.25 27.99 172.25 29.25C172.25 30.51 171.26 31.5 170 31.5ZM170 36C168.74 36 167.75 35.01 167.75 33.75C167.75 32.49 168.74 31.5 170 31.5C171.26 31.5 172.25 32.49 172.25 33.75C172.25 35.01 171.26 36 170 36ZM161 36C159.74 36 158.75 35.01 158.75 33.75C158.75 32.49 159.74 31.5 161 31.5C162.26 31.5 163.25 32.49 163.25 33.75C163.25 35.01 162.26 36 161 36ZM143 36C141.74 36 140.75 35.01 140.75 33.75C140.75 32.49 141.74 31.5 143 31.5C144.26 31.5 145.25 32.49 145.25 33.75C145.25 35.01 144.26 36 143 36ZM138.5 36C137.24 36 136.25 35.01 136.25 33.75C136.25 32.49 137.24 31.5 138.5 31.5C139.76 31.5 140.75 32.49 140.75 33.75C140.75 35.01 139.76 36 138.5 36ZM134 36C132.74 36 131.75 35.01 131.75 33.75C131.75 32.49 132.74 31.5 134 31.5C135.26 31.5 136.25 32.49 136.25 33.75C136.25 35.01 135.26 36 134 36ZM165.5 36C164.24 36 163.25 35.01 163.25 33.75C163.25 32.49 164.24 31.5 165.5 31.5C166.76 31.5 167.75 32.49 167.75 33.75C167.75 35.01 166.76 36 165.5 36ZM143 40.5C141.74 40.5 140.75 39.51 140.75 38.25C140.75 36.99 141.74 36 143 36C144.26 36 145.25 36.99 145.25 38.25C145.25 39.51 144.26 40.5 143 40.5ZM161 40.5C159.74 40.5 158.75 39.51 158.75 38.25C158.75 36.99 159.74 36 161 36C162.26 36 163.25 36.99 163.25 38.25C163.25 39.51 162.26 40.5 161 40.5ZM138.5 40.5C137.24 40.5 136.25 39.51 136.25 38.25C136.25 36.99 137.24 36 138.5 36C139.76 36 140.75 36.99 140.75 38.25C140.75 39.51 139.76 40.5 138.5 40.5ZM165.5 40.5C164.24 40.5 163.25 39.51 163.25 38.25C163.25 36.99 164.24 36 165.5 36C166.76 36 167.75 36.99 167.75 38.25C167.75 39.51 166.76 40.5 165.5 40.5ZM156.5 45C155.24 45 154.25 44.01 154.25 42.75C154.25 41.49 155.24 40.5 156.5 40.5C157.76 40.5 158.75 41.49 158.75 42.75C158.75 44.01 157.76 45 156.5 45ZM147.5 45C146.24 45 145.25 44.01 145.25 42.75C145.25 41.49 146.24 40.5 147.5 40.5C148.76 40.5 149.75 41.49 149.75 42.75C149.75 44.01 148.76 45 147.5 45ZM143 45C141.74 45 140.75 44.01 140.75 42.75C140.75 41.49 141.74 40.5 143 40.5C144.26 40.5 145.25 41.49 145.25 42.75C145.25 44.01 144.26 45 143 45ZM161 45C159.74 45 158.75 44.01 158.75 42.75C158.75 41.49 159.74 40.5 161 40.5C162.26 40.5 163.25 41.49 163.25 42.75C163.25 44.01 162.26 45 161 45ZM138.5 45C137.24 45 136.25 44.01 136.25 42.75C136.25 41.49 137.24 40.5 138.5 40.5C139.76 40.5 140.75 41.49 140.75 42.75C140.75 44.01 139.76 45 138.5 45ZM165.5 45C164.24 45 163.25 44.01 163.25 42.75C163.25 41.49 164.24 40.5 165.5 40.5C166.76 40.5 167.75 41.49 167.75 42.75C167.75 44.01 166.76 45 165.5 45ZM152 49.5C150.74 49.5 149.75 48.51 149.75 47.25C149.75 45.99 150.74 45 152 45C153.26 45 154.25 45.99 154.25 47.25C154.25 48.51 153.26 49.5 152 49.5ZM147.5 49.5C146.24 49.5 145.25 48.51 145.25 47.25C145.25 45.99 146.24 45 147.5 45C148.76 45 149.75 45.99 149.75 47.25C149.75 48.51 148.76 49.5 147.5 49.5ZM156.5 49.5C155.24 49.5 154.25 48.51 154.25 47.25C154.25 45.99 155.24 45 156.5 45C157.76 45 158.75 45.99 158.75 47.25C158.75 48.51 157.76 49.5 156.5 49.5ZM161 49.5C159.74 49.5 158.75 48.51 158.75 47.25C158.75 45.99 159.74 45 161 45C162.26 45 163.25 45.99 163.25 47.25C163.25 48.51 162.26 49.5 161 49.5ZM143 49.5C141.74 49.5 140.75 48.51 140.75 47.25C140.75 45.99 141.74 45 143 45C144.26 45 145.25 45.99 145.25 47.25C145.25 48.51 144.26 49.5 143 49.5ZM152 54C150.74 54 149.75 53.01 149.75 51.75C149.75 50.49 150.74 49.5 152 49.5C153.26 49.5 154.25 50.49 154.25 51.75C154.25 53.01 153.26 54 152 54ZM161 54C159.74 54 158.75 53.01 158.75 51.75C158.75 50.49 159.74 49.5 161 49.5C162.26 49.5 163.25 50.49 163.25 51.75C163.25 53.01 162.26 54 161 54ZM143 54C141.74 54 140.75 53.01 140.75 51.75C140.75 50.49 141.74 49.5 143 49.5C144.26 49.5 145.25 50.49 145.25 51.75C145.25 53.01 144.26 54 143 54ZM156.5 54C155.24 54 154.25 53.01 154.25 51.75C154.25 50.49 155.24 49.5 156.5 49.5C157.76 49.5 158.75 50.49 158.75 51.75C158.75 53.01 157.76 54 156.5 54ZM147.5 54C146.24 54 145.25 53.01 145.25 51.75C145.25 50.49 146.24 49.5 147.5 49.5C148.76 49.5 149.75 50.49 149.75 51.75C149.75 53.01 148.76 54 147.5 54ZM165.5 58.5C164.24 58.5 163.25 57.51 163.25 56.25C163.25 54.99 164.24 54 165.5 54C166.76 54 167.75 54.99 167.75 56.25C167.75 57.51 166.76 58.5 165.5 58.5ZM138.5 58.5C137.24 58.5 136.25 57.51 136.25 56.25C136.25 54.99 137.24 54 138.5 54C139.76 54 140.75 54.99 140.75 56.25C140.75 57.51 139.76 58.5 138.5 58.5ZM161 58.5C159.74 58.5 158.75 57.51 158.75 56.25C158.75 54.99 159.74 54 161 54C162.26 54 163.25 54.99 163.25 56.25C163.25 57.51 162.26 58.5 161 58.5ZM143 58.5C141.74 58.5 140.75 57.51 140.75 56.25C140.75 54.99 141.74 54 143 54C144.26 54 145.25 54.99 145.25 56.25C145.25 57.51 144.26 58.5 143 58.5ZM147.5 58.5C146.24 58.5 145.25 57.51 145.25 56.25C145.25 54.99 146.24 54 147.5 54C148.76 54 149.75 54.99 149.75 56.25C149.75 57.51 148.76 58.5 147.5 58.5ZM156.5 58.5C155.24 58.5 154.25 57.51 154.25 56.25C154.25 54.99 155.24 54 156.5 54C157.76 54 158.75 54.99 158.75 56.25C158.75 57.51 157.76 58.5 156.5 58.5ZM165.5 63C164.24 63 163.25 62.01 163.25 60.75C163.25 59.49 164.24 58.5 165.5 58.5C166.76 58.5 167.75 59.49 167.75 60.75C167.75 62.01 166.76 63 165.5 63ZM138.5 63C137.24 63 136.25 62.01 136.25 60.75C136.25 59.49 137.24 58.5 138.5 58.5C139.76 58.5 140.75 59.49 140.75 60.75C140.75 62.01 139.76 63 138.5 63ZM161 63C159.74 63 158.75 62.01 158.75 60.75C158.75 59.49 159.74 58.5 161 58.5C162.26 58.5 163.25 59.49 163.25 60.75C163.25 62.01 162.26 63 161 63ZM143 63C141.74 63 140.75 62.01 140.75 60.75C140.75 59.49 141.74 58.5 143 58.5C144.26 58.5 145.25 59.49 145.25 60.75C145.25 62.01 144.26 63 143 63ZM170 67.5C168.74 67.5 167.75 66.51 167.75 65.25C167.75 63.99 168.74 63 170 63C171.26 63 172.25 63.99 172.25 65.25C172.25 66.51 171.26 67.5 170 67.5ZM134 67.5C132.74 67.5 131.75 66.51 131.75 65.25C131.75 63.99 132.74 63 134 63C135.26 63 136.25 63.99 136.25 65.25C136.25 66.51 135.26 67.5 134 67.5ZM165.5 67.5C164.24 67.5 163.25 66.51 163.25 65.25C163.25 63.99 164.24 63 165.5 63C166.76 63 167.75 63.99 167.75 65.25C167.75 66.51 166.76 67.5 165.5 67.5ZM143 67.5C141.74 67.5 140.75 66.51 140.75 65.25C140.75 63.99 141.74 63 143 63C144.26 63 145.25 63.99 145.25 65.25C145.25 66.51 144.26 67.5 143 67.5ZM161 67.5C159.74 67.5 158.75 66.51 158.75 65.25C158.75 63.99 159.74 63 161 63C162.26 63 163.25 63.99 163.25 65.25C163.25 66.51 162.26 67.5 161 67.5ZM138.5 67.5C137.24 67.5 136.25 66.51 136.25 65.25C136.25 63.99 137.24 63 138.5 63C139.76 63 140.75 63.99 140.75 65.25C140.75 66.51 139.76 67.5 138.5 67.5ZM170 72C168.74 72 167.75 71.01 167.75 69.75C167.75 68.49 168.74 67.5 170 67.5C171.26 67.5 172.25 68.49 172.25 69.75C172.25 71.01 171.26 72 170 72ZM134 72C132.74 72 131.75 71.01 131.75 69.75C131.75 68.49 132.74 67.5 134 67.5C135.26 67.5 136.25 68.49 136.25 69.75C136.25 71.01 135.26 72 134 72ZM165.5 72C164.24 72 163.25 71.01 163.25 69.75C163.25 68.49 164.24 67.5 165.5 67.5C166.76 67.5 167.75 68.49 167.75 69.75C167.75 71.01 166.76 72 165.5 72ZM138.5 72C137.24 72 136.25 71.01 136.25 69.75C136.25 68.49 137.24 67.5 138.5 67.5C139.76 67.5 140.75 68.49 140.75 69.75C140.75 71.01 139.76 72 138.5 72Z" fill="#59CE8F"/>
<mask id="path-17-inside-8_78_1386" fill="white">
<path d="M10 95H104.667V189.67H10V95Z"/>
</mask>
<path d="M10 95H104.667V189.67H10V95Z" fill="white"/>
<path d="M104.667 95H106.667V93H104.667V95ZM10 97H104.667V93H10V97ZM102.667 95V189.67H106.667V95H102.667Z" fill="#0C0C0C" mask="url(#path-17-inside-8_78_1386)"/>
<path d="M43.5 126.5C42.24 126.5 41.25 125.51 41.25 124.25C41.25 122.99 42.24 122 43.5 122C44.76 122 45.75 122.99 45.75 124.25C45.75 125.51 44.76 126.5 43.5 126.5ZM39 126.5C37.74 126.5 36.75 125.51 36.75 124.25C36.75 122.99 37.74 122 39 122C40.26 122 41.25 122.99 41.25 124.25C41.25 125.51 40.26 126.5 39 126.5ZM70.5 126.5C69.24 126.5 68.25 125.51 68.25 124.25C68.25 122.99 69.24 122 70.5 122C71.76 122 72.75 122.99 72.75 124.25C72.75 125.51 71.76 126.5 70.5 126.5ZM75 126.5C73.74 126.5 72.75 125.51 72.75 124.25C72.75 122.99 73.74 122 75 122C76.26 122 77.25 122.99 77.25 124.25C77.25 125.51 76.26 126.5 75 126.5ZM75 131C73.74 131 72.75 130.01 72.75 128.75C72.75 127.49 73.74 126.5 75 126.5C76.26 126.5 77.25 127.49 77.25 128.75C77.25 130.01 76.26 131 75 131ZM66 131C64.74 131 63.75 130.01 63.75 128.75C63.75 127.49 64.74 126.5 66 126.5C67.26 126.5 68.25 127.49 68.25 128.75C68.25 130.01 67.26 131 66 131ZM48 131C46.74 131 45.75 130.01 45.75 128.75C45.75 127.49 46.74 126.5 48 126.5C49.26 126.5 50.25 127.49 50.25 128.75C50.25 130.01 49.26 131 48 131ZM43.5 131C42.24 131 41.25 130.01 41.25 128.75C41.25 127.49 42.24 126.5 43.5 126.5C44.76 126.5 45.75 127.49 45.75 128.75C45.75 130.01 44.76 131 43.5 131ZM39 131C37.74 131 36.75 130.01 36.75 128.75C36.75 127.49 37.74 126.5 39 126.5C40.26 126.5 41.25 127.49 41.25 128.75C41.25 130.01 40.26 131 39 131ZM70.5 131C69.24 131 68.25 130.01 68.25 128.75C68.25 127.49 69.24 126.5 70.5 126.5C71.76 126.5 72.75 127.49 72.75 128.75C72.75 130.01 71.76 131 70.5 131ZM48 135.5C46.74 135.5 45.75 134.51 45.75 133.25C45.75 131.99 46.74 131 48 131C49.26 131 50.25 131.99 50.25 133.25C50.25 134.51 49.26 135.5 48 135.5ZM66 135.5C64.74 135.5 63.75 134.51 63.75 133.25C63.75 131.99 64.74 131 66 131C67.26 131 68.25 131.99 68.25 133.25C68.25 134.51 67.26 135.5 66 135.5ZM43.5 135.5C42.24 135.5 41.25 134.51 41.25 133.25C41.25 131.99 42.24 131 43.5 131C44.76 131 45.75 131.99 45.75 133.25C45.75 134.51 44.76 135.5 43.5 135.5ZM70.5 135.5C69.24 135.5 68.25 134.51 68.25 133.25C68.25 131.99 69.24 131 70.5 131C71.76 131 72.75 131.99 72.75 133.25C72.75 134.51 71.76 135.5 70.5 135.5ZM61.5 140C60.24 140 59.25 139.01 59.25 137.75C59.25 136.49 60.24 135.5 61.5 135.5C62.76 135.5 63.75 136.49 63.75 137.75C63.75 139.01 62.76 140 61.5 140ZM52.5 140C51.24 140 50.25 139.01 50.25 137.75C50.25 136.49 51.24 135.5 52.5 135.5C53.76 135.5 54.75 136.49 54.75 137.75C54.75 139.01 53.76 140 52.5 140ZM48 140C46.74 140 45.75 139.01 45.75 137.75C45.75 136.49 46.74 135.5 48 135.5C49.26 135.5 50.25 136.49 50.25 137.75C50.25 139.01 49.26 140 48 140ZM66 140C64.74 140 63.75 139.01 63.75 137.75C63.75 136.49 64.74 135.5 66 135.5C67.26 135.5 68.25 136.49 68.25 137.75C68.25 139.01 67.26 140 66 140ZM43.5 140C42.24 140 41.25 139.01 41.25 137.75C41.25 136.49 42.24 135.5 43.5 135.5C44.76 135.5 45.75 136.49 45.75 137.75C45.75 139.01 44.76 140 43.5 140ZM70.5 140C69.24 140 68.25 139.01 68.25 137.75C68.25 136.49 69.24 135.5 70.5 135.5C71.76 135.5 72.75 136.49 72.75 137.75C72.75 139.01 71.76 140 70.5 140ZM57 144.5C55.74 144.5 54.75 143.51 54.75 142.25C54.75 140.99 55.74 140 57 140C58.26 140 59.25 140.99 59.25 142.25C59.25 143.51 58.26 144.5 57 144.5ZM52.5 144.5C51.24 144.5 50.25 143.51 50.25 142.25C50.25 140.99 51.24 140 52.5 140C53.76 140 54.75 140.99 54.75 142.25C54.75 143.51 53.76 144.5 52.5 144.5ZM61.5 144.5C60.24 144.5 59.25 143.51 59.25 142.25C59.25 140.99 60.24 140 61.5 140C62.76 140 63.75 140.99 63.75 142.25C63.75 143.51 62.76 144.5 61.5 144.5ZM66 144.5C64.74 144.5 63.75 143.51 63.75 142.25C63.75 140.99 64.74 140 66 140C67.26 140 68.25 140.99 68.25 142.25C68.25 143.51 67.26 144.5 66 144.5ZM48 144.5C46.74 144.5 45.75 143.51 45.75 142.25C45.75 140.99 46.74 140 48 140C49.26 140 50.25 140.99 50.25 142.25C50.25 143.51 49.26 144.5 48 144.5ZM57 149C55.74 149 54.75 148.01 54.75 146.75C54.75 145.49 55.74 144.5 57 144.5C58.26 144.5 59.25 145.49 59.25 146.75C59.25 148.01 58.26 149 57 149ZM66 149C64.74 149 63.75 148.01 63.75 146.75C63.75 145.49 64.74 144.5 66 144.5C67.26 144.5 68.25 145.49 68.25 146.75C68.25 148.01 67.26 149 66 149ZM48 149C46.74 149 45.75 148.01 45.75 146.75C45.75 145.49 46.74 144.5 48 144.5C49.26 144.5 50.25 145.49 50.25 146.75C50.25 148.01 49.26 149 48 149ZM61.5 149C60.24 149 59.25 148.01 59.25 146.75C59.25 145.49 60.24 144.5 61.5 144.5C62.76 144.5 63.75 145.49 63.75 146.75C63.75 148.01 62.76 149 61.5 149ZM52.5 149C51.24 149 50.25 148.01 50.25 146.75C50.25 145.49 51.24 144.5 52.5 144.5C53.76 144.5 54.75 145.49 54.75 146.75C54.75 148.01 53.76 149 52.5 149ZM70.5 153.5C69.24 153.5 68.25 152.51 68.25 151.25C68.25 149.99 69.24 149 70.5 149C71.76 149 72.75 149.99 72.75 151.25C72.75 152.51 71.76 153.5 70.5 153.5ZM43.5 153.5C42.24 153.5 41.25 152.51 41.25 151.25C41.25 149.99 42.24 149 43.5 149C44.76 149 45.75 149.99 45.75 151.25C45.75 152.51 44.76 153.5 43.5 153.5ZM66 153.5C64.74 153.5 63.75 152.51 63.75 151.25C63.75 149.99 64.74 149 66 149C67.26 149 68.25 149.99 68.25 151.25C68.25 152.51 67.26 153.5 66 153.5ZM48 153.5C46.74 153.5 45.75 152.51 45.75 151.25C45.75 149.99 46.74 149 48 149C49.26 149 50.25 149.99 50.25 151.25C50.25 152.51 49.26 153.5 48 153.5ZM52.5 153.5C51.24 153.5 50.25 152.51 50.25 151.25C50.25 149.99 51.24 149 52.5 149C53.76 149 54.75 149.99 54.75 151.25C54.75 152.51 53.76 153.5 52.5 153.5ZM61.5 153.5C60.24 153.5 59.25 152.51 59.25 151.25C59.25 149.99 60.24 149 61.5 149C62.76 149 63.75 149.99 63.75 151.25C63.75 152.51 62.76 153.5 61.5 153.5ZM70.5 158C69.24 158 68.25 157.01 68.25 155.75C68.25 154.49 69.24 153.5 70.5 153.5C71.76 153.5 72.75 154.49 72.75 155.75C72.75 157.01 71.76 158 70.5 158ZM43.5 158C42.24 158 41.25 157.01 41.25 155.75C41.25 154.49 42.24 153.5 43.5 153.5C44.76 153.5 45.75 154.49 45.75 155.75C45.75 157.01 44.76 158 43.5 158ZM66 158C64.74 158 63.75 157.01 63.75 155.75C63.75 154.49 64.74 153.5 66 153.5C67.26 153.5 68.25 154.49 68.25 155.75C68.25 157.01 67.26 158 66 158ZM48 158C46.74 158 45.75 157.01 45.75 155.75C45.75 154.49 46.74 153.5 48 153.5C49.26 153.5 50.25 154.49 50.25 155.75C50.25 157.01 49.26 158 48 158ZM75 162.5C73.74 162.5 72.75 161.51 72.75 160.25C72.75 158.99 73.74 158 75 158C76.26 158 77.25 158.99 77.25 160.25C77.25 161.51 76.26 162.5 75 162.5ZM39 162.5C37.74 162.5 36.75 161.51 36.75 160.25C36.75 158.99 37.74 158 39 158C40.26 158 41.25 158.99 41.25 160.25C41.25 161.51 40.26 162.5 39 162.5ZM70.5 162.5C69.24 162.5 68.25 161.51 68.25 160.25C68.25 158.99 69.24 158 70.5 158C71.76 158 72.75 158.99 72.75 160.25C72.75 161.51 71.76 162.5 70.5 162.5ZM48 162.5C46.74 162.5 45.75 161.51 45.75 160.25C45.75 158.99 46.74 158 48 158C49.26 158 50.25 158.99 50.25 160.25C50.25 161.51 49.26 162.5 48 162.5ZM66 162.5C64.74 162.5 63.75 161.51 63.75 160.25C63.75 158.99 64.74 158 66 158C67.26 158 68.25 158.99 68.25 160.25C68.25 161.51 67.26 162.5 66 162.5ZM43.5 162.5C42.24 162.5 41.25 161.51 41.25 160.25C41.25 158.99 42.24 158 43.5 158C44.76 158 45.75 158.99 45.75 160.25C45.75 161.51 44.76 162.5 43.5 162.5ZM75 167C73.74 167 72.75 166.01 72.75 164.75C72.75 163.49 73.74 162.5 75 162.5C76.26 162.5 77.25 163.49 77.25 164.75C77.25 166.01 76.26 167 75 167ZM39 167C37.74 167 36.75 166.01 36.75 164.75C36.75 163.49 37.74 162.5 39 162.5C40.26 162.5 41.25 163.49 41.25 164.75C41.25 166.01 40.26 167 39 167ZM70.5 167C69.24 167 68.25 166.01 68.25 164.75C68.25 163.49 69.24 162.5 70.5 162.5C71.76 162.5 72.75 163.49 72.75 164.75C72.75 166.01 71.76 167 70.5 167ZM43.5 167C42.24 167 41.25 166.01 41.25 164.75C41.25 163.49 42.24 162.5 43.5 162.5C44.76 162.5 45.75 163.49 45.75 164.75C45.75 166.01 44.76 167 43.5 167Z" fill="#59CE8F"/>
<mask id="path-20-inside-9_78_1386" fill="white">
<path d="M199 95H293.667V189.67H199V95Z"/>
</mask>
<path d="M199 95H293.667V189.67H199V95Z" fill="white"/>
<path d="M293.667 95H295.667V93H293.667V95ZM199 97H293.667V93H199V97ZM291.667 95V189.67H295.667V95H291.667Z" fill="#0C0C0C" mask="url(#path-20-inside-9_78_1386)"/>
<path d="M242.5 126.5C241.24 126.5 240.25 125.51 240.25 124.25C240.25 122.99 241.24 122 242.5 122C243.76 122 244.75 122.99 244.75 124.25C244.75 125.51 243.76 126.5 242.5 126.5ZM251.5 126.5C250.24 126.5 249.25 125.51 249.25 124.25C249.25 122.99 250.24 122 251.5 122C252.76 122 253.75 122.99 253.75 124.25C253.75 125.51 252.76 126.5 251.5 126.5ZM247 126.5C245.74 126.5 244.75 125.51 244.75 124.25C244.75 122.99 245.74 122 247 122C248.26 122 249.25 122.99 249.25 124.25C249.25 125.51 248.26 126.5 247 126.5ZM256 126.5C254.74 126.5 253.75 125.51 253.75 124.25C253.75 122.99 254.74 122 256 122C257.26 122 258.25 122.99 258.25 124.25C258.25 125.51 257.26 126.5 256 126.5ZM238 126.5C236.74 126.5 235.75 125.51 235.75 124.25C235.75 122.99 236.74 122 238 122C239.26 122 240.25 122.99 240.25 124.25C240.25 125.51 239.26 126.5 238 126.5ZM242.5 131C241.24 131 240.25 130.01 240.25 128.75C240.25 127.49 241.24 126.5 242.5 126.5C243.76 126.5 244.75 127.49 244.75 128.75C244.75 130.01 243.76 131 242.5 131ZM233.5 131C232.24 131 231.25 130.01 231.25 128.75C231.25 127.49 232.24 126.5 233.5 126.5C234.76 126.5 235.75 127.49 235.75 128.75C235.75 130.01 234.76 131 233.5 131ZM247 131C245.74 131 244.75 130.01 244.75 128.75C244.75 127.49 245.74 126.5 247 126.5C248.26 126.5 249.25 127.49 249.25 128.75C249.25 130.01 248.26 131 247 131ZM256 131C254.74 131 253.75 130.01 253.75 128.75C253.75 127.49 254.74 126.5 256 126.5C257.26 126.5 258.25 127.49 258.25 128.75C258.25 130.01 257.26 131 256 131ZM251.5 131C250.24 131 249.25 130.01 249.25 128.75C249.25 127.49 250.24 126.5 251.5 126.5C252.76 126.5 253.75 127.49 253.75 128.75C253.75 130.01 252.76 131 251.5 131ZM238 131C236.74 131 235.75 130.01 235.75 128.75C235.75 127.49 236.74 126.5 238 126.5C239.26 126.5 240.25 127.49 240.25 128.75C240.25 130.01 239.26 131 238 131ZM260.5 131C259.24 131 258.25 130.01 258.25 128.75C258.25 127.49 259.24 126.5 260.5 126.5C261.76 126.5 262.75 127.49 262.75 128.75C262.75 130.01 261.76 131 260.5 131ZM238 135.5C236.74 135.5 235.75 134.51 235.75 133.25C235.75 131.99 236.74 131 238 131C239.26 131 240.25 131.99 240.25 133.25C240.25 134.51 239.26 135.5 238 135.5ZM256 135.5C254.74 135.5 253.75 134.51 253.75 133.25C253.75 131.99 254.74 131 256 131C257.26 131 258.25 131.99 258.25 133.25C258.25 134.51 257.26 135.5 256 135.5ZM233.5 135.5C232.24 135.5 231.25 134.51 231.25 133.25C231.25 131.99 232.24 131 233.5 131C234.76 131 235.75 131.99 235.75 133.25C235.75 134.51 234.76 135.5 233.5 135.5ZM260.5 135.5C259.24 135.5 258.25 134.51 258.25 133.25C258.25 131.99 259.24 131 260.5 131C261.76 131 262.75 131.99 262.75 133.25C262.75 134.51 261.76 135.5 260.5 135.5ZM265 135.5C263.74 135.5 262.75 134.51 262.75 133.25C262.75 131.99 263.74 131 265 131C266.26 131 267.25 131.99 267.25 133.25C267.25 134.51 266.26 135.5 265 135.5ZM229 135.5C227.74 135.5 226.75 134.51 226.75 133.25C226.75 131.99 227.74 131 229 131C230.26 131 231.25 131.99 231.25 133.25C231.25 134.51 230.26 135.5 229 135.5ZM233.5 140C232.24 140 231.25 139.01 231.25 137.75C231.25 136.49 232.24 135.5 233.5 135.5C234.76 135.5 235.75 136.49 235.75 137.75C235.75 139.01 234.76 140 233.5 140ZM229 140C227.74 140 226.75 139.01 226.75 137.75C226.75 136.49 227.74 135.5 229 135.5C230.26 135.5 231.25 136.49 231.25 137.75C231.25 139.01 230.26 140 229 140ZM260.5 140C259.24 140 258.25 139.01 258.25 137.75C258.25 136.49 259.24 135.5 260.5 135.5C261.76 135.5 262.75 136.49 262.75 137.75C262.75 139.01 261.76 140 260.5 140ZM265 140C263.74 140 262.75 139.01 262.75 137.75C262.75 136.49 263.74 135.5 265 135.5C266.26 135.5 267.25 136.49 267.25 137.75C267.25 139.01 266.26 140 265 140ZM229 144.5C227.74 144.5 226.75 143.51 226.75 142.25C226.75 140.99 227.74 140 229 140C230.26 140 231.25 140.99 231.25 142.25C231.25 143.51 230.26 144.5 229 144.5ZM233.5 144.5C232.24 144.5 231.25 143.51 231.25 142.25C231.25 140.99 232.24 140 233.5 140C234.76 140 235.75 140.99 235.75 142.25C235.75 143.51 234.76 144.5 233.5 144.5ZM265 144.5C263.74 144.5 262.75 143.51 262.75 142.25C262.75 140.99 263.74 140 265 140C266.26 140 267.25 140.99 267.25 142.25C267.25 143.51 266.26 144.5 265 144.5ZM260.5 144.5C259.24 144.5 258.25 143.51 258.25 142.25C258.25 140.99 259.24 140 260.5 140C261.76 140 262.75 140.99 262.75 142.25C262.75 143.51 261.76 144.5 260.5 144.5ZM260.5 149C259.24 149 258.25 148.01 258.25 146.75C258.25 145.49 259.24 144.5 260.5 144.5C261.76 144.5 262.75 145.49 262.75 146.75C262.75 148.01 261.76 149 260.5 149ZM229 149C227.74 149 226.75 148.01 226.75 146.75C226.75 145.49 227.74 144.5 229 144.5C230.26 144.5 231.25 145.49 231.25 146.75C231.25 148.01 230.26 149 229 149ZM265 149C263.74 149 262.75 148.01 262.75 146.75C262.75 145.49 263.74 144.5 265 144.5C266.26 144.5 267.25 145.49 267.25 146.75C267.25 148.01 266.26 149 265 149ZM233.5 149C232.24 149 231.25 148.01 231.25 146.75C231.25 145.49 232.24 144.5 233.5 144.5C234.76 144.5 235.75 145.49 235.75 146.75C235.75 148.01 234.76 149 233.5 149ZM260.5 153.5C259.24 153.5 258.25 152.51 258.25 151.25C258.25 149.99 259.24 149 260.5 149C261.76 149 262.75 149.99 262.75 151.25C262.75 152.51 261.76 153.5 260.5 153.5ZM233.5 153.5C232.24 153.5 231.25 152.51 231.25 151.25C231.25 149.99 232.24 149 233.5 149C234.76 149 235.75 149.99 235.75 151.25C235.75 152.51 234.76 153.5 233.5 153.5ZM229 153.5C227.74 153.5 226.75 152.51 226.75 151.25C226.75 149.99 227.74 149 229 149C230.26 149 231.25 149.99 231.25 151.25C231.25 152.51 230.26 153.5 229 153.5ZM265 153.5C263.74 153.5 262.75 152.51 262.75 151.25C262.75 149.99 263.74 149 265 149C266.26 149 267.25 149.99 267.25 151.25C267.25 152.51 266.26 153.5 265 153.5ZM238 158C236.74 158 235.75 157.01 235.75 155.75C235.75 154.49 236.74 153.5 238 153.5C239.26 153.5 240.25 154.49 240.25 155.75C240.25 157.01 239.26 158 238 158ZM256 158C254.74 158 253.75 157.01 253.75 155.75C253.75 154.49 254.74 153.5 256 153.5C257.26 153.5 258.25 154.49 258.25 155.75C258.25 157.01 257.26 158 256 158ZM260.5 158C259.24 158 258.25 157.01 258.25 155.75C258.25 154.49 259.24 153.5 260.5 153.5C261.76 153.5 262.75 154.49 262.75 155.75C262.75 157.01 261.76 158 260.5 158ZM265 158C263.74 158 262.75 157.01 262.75 155.75C262.75 154.49 263.74 153.5 265 153.5C266.26 153.5 267.25 154.49 267.25 155.75C267.25 157.01 266.26 158 265 158ZM229 158C227.74 158 226.75 157.01 226.75 155.75C226.75 154.49 227.74 153.5 229 153.5C230.26 153.5 231.25 154.49 231.25 155.75C231.25 157.01 230.26 158 229 158ZM233.5 158C232.24 158 231.25 157.01 231.25 155.75C231.25 154.49 232.24 153.5 233.5 153.5C234.76 153.5 235.75 154.49 235.75 155.75C235.75 157.01 234.76 158 233.5 158ZM233.5 162.5C232.24 162.5 231.25 161.51 231.25 160.25C231.25 158.99 232.24 158 233.5 158C234.76 158 235.75 158.99 235.75 160.25C235.75 161.51 234.76 162.5 233.5 162.5ZM260.5 162.5C259.24 162.5 258.25 161.51 258.25 160.25C258.25 158.99 259.24 158 260.5 158C261.76 158 262.75 158.99 262.75 160.25C262.75 161.51 261.76 162.5 260.5 162.5ZM256 162.5C254.74 162.5 253.75 161.51 253.75 160.25C253.75 158.99 254.74 158 256 158C257.26 158 258.25 158.99 258.25 160.25C258.25 161.51 257.26 162.5 256 162.5ZM251.5 162.5C250.24 162.5 249.25 161.51 249.25 160.25C249.25 158.99 250.24 158 251.5 158C252.76 158 253.75 158.99 253.75 160.25C253.75 161.51 252.76 162.5 251.5 162.5ZM242.5 162.5C241.24 162.5 240.25 161.51 240.25 160.25C240.25 158.99 241.24 158 242.5 158C243.76 158 244.75 158.99 244.75 160.25C244.75 161.51 243.76 162.5 242.5 162.5ZM238 162.5C236.74 162.5 235.75 161.51 235.75 160.25C235.75 158.99 236.74 158 238 158C239.26 158 240.25 158.99 240.25 160.25C240.25 161.51 239.26 162.5 238 162.5ZM247 162.5C245.74 162.5 244.75 161.51 244.75 160.25C244.75 158.99 245.74 158 247 158C248.26 158 249.25 158.99 249.25 160.25C249.25 161.51 248.26 162.5 247 162.5ZM256 167C254.74 167 253.75 166.01 253.75 164.75C253.75 163.49 254.74 162.5 256 162.5C257.26 162.5 258.25 163.49 258.25 164.75C258.25 166.01 257.26 167 256 167ZM251.5 167C250.24 167 249.25 166.01 249.25 164.75C249.25 163.49 250.24 162.5 251.5 162.5C252.76 162.5 253.75 163.49 253.75 164.75C253.75 166.01 252.76 167 251.5 167ZM242.5 167C241.24 167 240.25 166.01 240.25 164.75C240.25 163.49 241.24 162.5 242.5 162.5C243.76 162.5 244.75 163.49 244.75 164.75C244.75 166.01 243.76 167 242.5 167ZM238 167C236.74 167 235.75 166.01 235.75 164.75C235.75 163.49 236.74 162.5 238 162.5C239.26 162.5 240.25 163.49 240.25 164.75C240.25 166.01 239.26 167 238 167ZM247 167C245.74 167 244.75 166.01 244.75 164.75C244.75 163.49 245.74 162.5 247 162.5C248.26 162.5 249.25 163.49 249.25 164.75C249.25 166.01 248.26 167 247 167Z" fill="#4F98CA"/>
<mask id="path-23-inside-10_78_1386" fill="white">
<path d="M105 189H199.667V283.67H105V189Z"/>
</mask>
<path d="M105 189H199.667V283.67H105V189Z" fill="white"/>
<path d="M199.667 189H201.667V187H199.667V189ZM105 191H199.667V187H105V191ZM197.667 189V283.67H201.667V189H197.667Z" fill="#0C0C0C" mask="url(#path-23-inside-10_78_1386)"/>
<path d="M147.5 220.5C146.24 220.5 145.25 219.51 145.25 218.25C145.25 216.99 146.24 216 147.5 216C148.76 216 149.75 216.99 149.75 218.25C149.75 219.51 148.76 220.5 147.5 220.5ZM156.5 220.5C155.24 220.5 154.25 219.51 154.25 218.25C154.25 216.99 155.24 216 156.5 216C157.76 216 158.75 216.99 158.75 218.25C158.75 219.51 157.76 220.5 156.5 220.5ZM152 220.5C150.74 220.5 149.75 219.51 149.75 218.25C149.75 216.99 150.74 216 152 216C153.26 216 154.25 216.99 154.25 218.25C154.25 219.51 153.26 220.5 152 220.5ZM161 220.5C159.74 220.5 158.75 219.51 158.75 218.25C158.75 216.99 159.74 216 161 216C162.26 216 163.25 216.99 163.25 218.25C163.25 219.51 162.26 220.5 161 220.5ZM143 220.5C141.74 220.5 140.75 219.51 140.75 218.25C140.75 216.99 141.74 216 143 216C144.26 216 145.25 216.99 145.25 218.25C145.25 219.51 144.26 220.5 143 220.5ZM147.5 225C146.24 225 145.25 224.01 145.25 222.75C145.25 221.49 146.24 220.5 147.5 220.5C148.76 220.5 149.75 221.49 149.75 222.75C149.75 224.01 148.76 225 147.5 225ZM138.5 225C137.24 225 136.25 224.01 136.25 222.75C136.25 221.49 137.24 220.5 138.5 220.5C139.76 220.5 140.75 221.49 140.75 222.75C140.75 224.01 139.76 225 138.5 225ZM152 225C150.74 225 149.75 224.01 149.75 222.75C149.75 221.49 150.74 220.5 152 220.5C153.26 220.5 154.25 221.49 154.25 222.75C154.25 224.01 153.26 225 152 225ZM161 225C159.74 225 158.75 224.01 158.75 222.75C158.75 221.49 159.74 220.5 161 220.5C162.26 220.5 163.25 221.49 163.25 222.75C163.25 224.01 162.26 225 161 225ZM156.5 225C155.24 225 154.25 224.01 154.25 222.75C154.25 221.49 155.24 220.5 156.5 220.5C157.76 220.5 158.75 221.49 158.75 222.75C158.75 224.01 157.76 225 156.5 225ZM143 225C141.74 225 140.75 224.01 140.75 222.75C140.75 221.49 141.74 220.5 143 220.5C144.26 220.5 145.25 221.49 145.25 222.75C145.25 224.01 144.26 225 143 225ZM165.5 225C164.24 225 163.25 224.01 163.25 222.75C163.25 221.49 164.24 220.5 165.5 220.5C166.76 220.5 167.75 221.49 167.75 222.75C167.75 224.01 166.76 225 165.5 225ZM143 229.5C141.74 229.5 140.75 228.51 140.75 227.25C140.75 225.99 141.74 225 143 225C144.26 225 145.25 225.99 145.25 227.25C145.25 228.51 144.26 229.5 143 229.5ZM161 229.5C159.74 229.5 158.75 228.51 158.75 227.25C158.75 225.99 159.74 225 161 225C162.26 225 163.25 225.99 163.25 227.25C163.25 228.51 162.26 229.5 161 229.5ZM138.5 229.5C137.24 229.5 136.25 228.51 136.25 227.25C136.25 225.99 137.24 225 138.5 225C139.76 225 140.75 225.99 140.75 227.25C140.75 228.51 139.76 229.5 138.5 229.5ZM165.5 229.5C164.24 229.5 163.25 228.51 163.25 227.25C163.25 225.99 164.24 225 165.5 225C166.76 225 167.75 225.99 167.75 227.25C167.75 228.51 166.76 229.5 165.5 229.5ZM170 229.5C168.74 229.5 167.75 228.51 167.75 227.25C167.75 225.99 168.74 225 170 225C171.26 225 172.25 225.99 172.25 227.25C172.25 228.51 171.26 229.5 170 229.5ZM134 229.5C132.74 229.5 131.75 228.51 131.75 227.25C131.75 225.99 132.74 225 134 225C135.26 225 136.25 225.99 136.25 227.25C136.25 228.51 135.26 229.5 134 229.5ZM138.5 234C137.24 234 136.25 233.01 136.25 231.75C136.25 230.49 137.24 229.5 138.5 229.5C139.76 229.5 140.75 230.49 140.75 231.75C140.75 233.01 139.76 234 138.5 234ZM134 234C132.74 234 131.75 233.01 131.75 231.75C131.75 230.49 132.74 229.5 134 229.5C135.26 229.5 136.25 230.49 136.25 231.75C136.25 233.01 135.26 234 134 234ZM165.5 234C164.24 234 163.25 233.01 163.25 231.75C163.25 230.49 164.24 229.5 165.5 229.5C166.76 229.5 167.75 230.49 167.75 231.75C167.75 233.01 166.76 234 165.5 234ZM170 234C168.74 234 167.75 233.01 167.75 231.75C167.75 230.49 168.74 229.5 170 229.5C171.26 229.5 172.25 230.49 172.25 231.75C172.25 233.01 171.26 234 170 234ZM134 238.5C132.74 238.5 131.75 237.51 131.75 236.25C131.75 234.99 132.74 234 134 234C135.26 234 136.25 234.99 136.25 236.25C136.25 237.51 135.26 238.5 134 238.5ZM138.5 238.5C137.24 238.5 136.25 237.51 136.25 236.25C136.25 234.99 137.24 234 138.5 234C139.76 234 140.75 234.99 140.75 236.25C140.75 237.51 139.76 238.5 138.5 238.5ZM170 238.5C168.74 238.5 167.75 237.51 167.75 236.25C167.75 234.99 168.74 234 170 234C171.26 234 172.25 234.99 172.25 236.25C172.25 237.51 171.26 238.5 170 238.5ZM165.5 238.5C164.24 238.5 163.25 237.51 163.25 236.25C163.25 234.99 164.24 234 165.5 234C166.76 234 167.75 234.99 167.75 236.25C167.75 237.51 166.76 238.5 165.5 238.5ZM165.5 243C164.24 243 163.25 242.01 163.25 240.75C163.25 239.49 164.24 238.5 165.5 238.5C166.76 238.5 167.75 239.49 167.75 240.75C167.75 242.01 166.76 243 165.5 243ZM134 243C132.74 243 131.75 242.01 131.75 240.75C131.75 239.49 132.74 238.5 134 238.5C135.26 238.5 136.25 239.49 136.25 240.75C136.25 242.01 135.26 243 134 243ZM170 243C168.74 243 167.75 242.01 167.75 240.75C167.75 239.49 168.74 238.5 170 238.5C171.26 238.5 172.25 239.49 172.25 240.75C172.25 242.01 171.26 243 170 243ZM138.5 243C137.24 243 136.25 242.01 136.25 240.75C136.25 239.49 137.24 238.5 138.5 238.5C139.76 238.5 140.75 239.49 140.75 240.75C140.75 242.01 139.76 243 138.5 243ZM165.5 247.5C164.24 247.5 163.25 246.51 163.25 245.25C163.25 243.99 164.24 243 165.5 243C166.76 243 167.75 243.99 167.75 245.25C167.75 246.51 166.76 247.5 165.5 247.5ZM138.5 247.5C137.24 247.5 136.25 246.51 136.25 245.25C136.25 243.99 137.24 243 138.5 243C139.76 243 140.75 243.99 140.75 245.25C140.75 246.51 139.76 247.5 138.5 247.5ZM134 247.5C132.74 247.5 131.75 246.51 131.75 245.25C131.75 243.99 132.74 243 134 243C135.26 243 136.25 243.99 136.25 245.25C136.25 246.51 135.26 247.5 134 247.5ZM170 247.5C168.74 247.5 167.75 246.51 167.75 245.25C167.75 243.99 168.74 243 170 243C171.26 243 172.25 243.99 172.25 245.25C172.25 246.51 171.26 247.5 170 247.5ZM143 252C141.74 252 140.75 251.01 140.75 249.75C140.75 248.49 141.74 247.5 143 247.5C144.26 247.5 145.25 248.49 145.25 249.75C145.25 251.01 144.26 252 143 252ZM161 252C159.74 252 158.75 251.01 158.75 249.75C158.75 248.49 159.74 247.5 161 247.5C162.26 247.5 163.25 248.49 163.25 249.75C163.25 251.01 162.26 252 161 252ZM165.5 252C164.24 252 163.25 251.01 163.25 249.75C163.25 248.49 164.24 247.5 165.5 247.5C166.76 247.5 167.75 248.49 167.75 249.75C167.75 251.01 166.76 252 165.5 252ZM170 252C168.74 252 167.75 251.01 167.75 249.75C167.75 248.49 168.74 247.5 170 247.5C171.26 247.5 172.25 248.49 172.25 249.75C172.25 251.01 171.26 252 170 252ZM134 252C132.74 252 131.75 251.01 131.75 249.75C131.75 248.49 132.74 247.5 134 247.5C135.26 247.5 136.25 248.49 136.25 249.75C136.25 251.01 135.26 252 134 252ZM138.5 252C137.24 252 136.25 251.01 136.25 249.75C136.25 248.49 137.24 247.5 138.5 247.5C139.76 247.5 140.75 248.49 140.75 249.75C140.75 251.01 139.76 252 138.5 252ZM138.5 256.5C137.24 256.5 136.25 255.51 136.25 254.25C136.25 252.99 137.24 252 138.5 252C139.76 252 140.75 252.99 140.75 254.25C140.75 255.51 139.76 256.5 138.5 256.5ZM165.5 256.5C164.24 256.5 163.25 255.51 163.25 254.25C163.25 252.99 164.24 252 165.5 252C166.76 252 167.75 252.99 167.75 254.25C167.75 255.51 166.76 256.5 165.5 256.5ZM161 256.5C159.74 256.5 158.75 255.51 158.75 254.25C158.75 252.99 159.74 252 161 252C162.26 252 163.25 252.99 163.25 254.25C163.25 255.51 162.26 256.5 161 256.5ZM156.5 256.5C155.24 256.5 154.25 255.51 154.25 254.25C154.25 252.99 155.24 252 156.5 252C157.76 252 158.75 252.99 158.75 254.25C158.75 255.51 157.76 256.5 156.5 256.5ZM147.5 256.5C146.24 256.5 145.25 255.51 145.25 254.25C145.25 252.99 146.24 252 147.5 252C148.76 252 149.75 252.99 149.75 254.25C149.75 255.51 148.76 256.5 147.5 256.5ZM143 256.5C141.74 256.5 140.75 255.51 140.75 254.25C140.75 252.99 141.74 252 143 252C144.26 252 145.25 252.99 145.25 254.25C145.25 255.51 144.26 256.5 143 256.5ZM152 256.5C150.74 256.5 149.75 255.51 149.75 254.25C149.75 252.99 150.74 252 152 252C153.26 252 154.25 252.99 154.25 254.25C154.25 255.51 153.26 256.5 152 256.5ZM161 261C159.74 261 158.75 260.01 158.75 258.75C158.75 257.49 159.74 256.5 161 256.5C162.26 256.5 163.25 257.49 163.25 258.75C163.25 260.01 162.26 261 161 261ZM156.5 261C155.24 261 154.25 260.01 154.25 258.75C154.25 257.49 155.24 256.5 156.5 256.5C157.76 256.5 158.75 257.49 158.75 258.75C158.75 260.01 157.76 261 156.5 261ZM147.5 261C146.24 261 145.25 260.01 145.25 258.75C145.25 257.49 146.24 256.5 147.5 256.5C148.76 256.5 149.75 257.49 149.75 258.75C149.75 260.01 148.76 261 147.5 261ZM143 261C141.74 261 140.75 260.01 140.75 258.75C140.75 257.49 141.74 256.5 143 256.5C144.26 256.5 145.25 257.49 145.25 258.75C145.25 260.01 144.26 261 143 261ZM152 261C150.74 261 149.75 260.01 149.75 258.75C149.75 257.49 150.74 256.5 152 256.5C153.26 256.5 154.25 257.49 154.25 258.75C154.25 260.01 153.26 261 152 261Z" fill="#4F98CA"/>
</svg>
