<svg width="216" height="306" viewBox="0 0 216 306" fill="none" xmlns="http://www.w3.org/2000/svg">
<path fill-rule="evenodd" clip-rule="evenodd" d="M107.525 104.481C103.988 103.526 99.9216 103.637 96.2926 103.881C92.6072 104.129 88.6526 104.555 85.1944 105.897C82.1881 107.064 79.6529 109.026 78.1081 111.837C76.8382 114.148 76.2426 116.683 75.8693 119.258C75.7167 120.311 75.5889 121.368 75.4673 122.425L75.2174 124.624C75.1195 125.465 75.0341 126.095 74.8626 127.034C74.388 129.629 73.7271 131.797 72.2516 133.685C68.6784 138.256 62.8437 139.786 57.5378 141.737C54.1425 142.985 51.4538 145.231 50.7079 148.84C49.9882 152.321 22.6249 181.527 19.9386 183.989L19.8647 184.056C17.781 185.886 18.0263 189.325 17.7347 191.837C17.4222 194.529 17.1248 197.224 16.8424 199.92C16.2691 205.396 15.7583 210.878 15.31 216.365C13.5575 237.825 12.7624 259.359 12.9314 280.885L12.942 282.104C12.968 284.836 12.9473 287.58 13.0728 290.309C13.1936 292.932 14.0074 295.558 16.4994 296.928C18.8081 298.197 21.7276 298.085 24.3077 298.212L24.4621 298.22C27.2308 298.368 30.0004 298.489 32.7714 298.589C44.0328 298.996 55.3045 299.039 66.5725 298.989C88.9263 298.889 111.303 298.409 133.635 299.63C139.328 299.941 157.477 298.05 163.152 298.589C168.576 299.104 163.922 301.698 167.273 301.528C178.293 300.965 188.745 298.567 199.304 295.678C200.623 295.318 201.631 294.069 201.615 292.72C201.418 277.898 200.989 263.08 200.319 248.271C199.722 235.08 198.935 221.896 197.959 208.727C197.534 203.002 197.074 197.28 196.578 191.561L196.364 189.11C196.084 185.949 195.923 182.731 195.285 179.614C194.655 176.531 193.225 173.858 191.151 171.47C189.291 169.327 168.225 152.552 163.152 149.377C158.296 146.337 153.197 143.772 148.211 140.955C146.137 139.783 144.145 140.204 142.373 138.766C141.439 138.007 127.885 132.897 124.228 131.21L124.12 131.16C121.322 129.85 118.746 128.43 116.812 126.166C116.164 125.407 114.892 120.624 114.89 119.096C114.885 116.366 115.097 113.49 114.253 110.846C113.243 107.683 110.81 105.367 107.525 104.481ZM101.528 174.869L123.187 216.007H109.103L119.198 238.864H97.0289L104.893 270.879L59.9201 216.007H76.7964L59.9201 194.403H71.6252L59.9201 176.106L101.528 174.869Z" fill="white"/>
<path fill-rule="evenodd" clip-rule="evenodd" d="M28.7733 198.002C28.8233 198.05 28.876 198.099 28.926 198.151C28.8681 198.071 28.818 197.989 28.7733 197.907V198.002ZM70.8647 186.018C72.8098 188.442 74.868 193.373 76.7578 195.84C77.0289 196.194 77.2948 196.549 77.558 196.905C78.3423 197.976 77.2948 199.614 76.0051 199.545C73.4283 199.411 70.8542 199.224 68.2801 199.034C73.5678 204.781 77.958 211.921 82.8141 218.01C83.1431 218.418 83.4669 218.829 83.7906 219.239C85.0198 220.803 83.788 221.511 82.1087 221.09C81.7613 221.003 81.4139 220.916 81.0664 220.831C78.6239 220.22 76.184 219.609 73.7415 219.001C72.3913 218.662 71.0332 218.243 69.6645 217.984C69.1012 217.879 68.5617 217.966 68.03 217.994C68.2853 218.374 68.6433 219.06 68.7143 219.165C69.5118 220.376 70.3146 221.583 71.1226 222.784C72.6966 225.121 74.2784 227.454 75.9182 229.746C82.314 238.685 89.2126 247.218 96.0506 255.831C97.7719 257.998 99.517 260.141 101.291 262.264C101.283 262.251 101.278 262.238 101.27 262.226C99.6723 259.191 98.0746 256.16 96.477 253.125C93.4396 247.36 90.4312 241.578 87.3623 235.828C87.2043 235.528 87.0438 235.23 86.8832 234.93C86.2463 233.738 87.2912 232.501 88.5993 232.752C94.9809 233.979 101.301 235.486 107.542 237.27C107.823 237.562 108.236 237.647 108.605 237.577C108.855 237.65 109.107 237.72 109.358 237.795C109.282 237.641 109.203 237.489 109.127 237.335C109.382 237.119 109.509 236.785 109.343 236.367C105.751 227.329 100.827 218.603 94.9933 210.612C95.2281 210.617 95.4623 210.62 95.6979 210.627C102.102 210.796 108.384 211.692 114.556 213.394C114.585 212.837 114.241 211.975 114.054 211.564C113.306 209.923 112.448 208.321 111.645 206.707C110.003 203.39 108.361 200.076 106.718 196.759C105.113 193.519 103.52 190.27 102.01 186.984C101.217 185.261 100.425 183.536 99.6354 181.811C98.9906 180.406 98.4826 178.992 97.9483 177.555C96.3796 178.004 76.2367 178.101 71.3411 178.433C70.1409 178.515 68.9381 178.589 67.7352 178.653C66.7772 178.707 65.4269 178.913 64.7663 178.068L64.5162 178.273C66.6903 180.81 68.7749 183.415 70.8647 186.018V186.018ZM149.507 138.897C149.407 138.853 149.31 138.809 149.212 138.766C149.162 138.835 149.102 138.899 149.039 138.963C148.881 139.12 148.725 139.289 148.562 139.443C148.878 139.263 149.194 139.081 149.507 138.897V138.897ZM8.73565 283.166C8.91726 279.425 9.11994 275.685 9.33576 271.945C9.76215 264.634 10.2017 257.323 10.7886 250.022C11.9809 235.227 13.0917 220.438 14.8788 205.698C15.6289 199.519 16.6765 193.386 17.7267 187.25C17.5924 187.132 17.4556 187.014 17.3213 186.899C17.4661 188.578 15.1289 189.641 13.9708 187.967C13.8839 187.841 13.7997 187.715 13.7155 187.584C12.7127 186.003 10.4017 178.245 10.5623 177.588C10.8518 176.404 11.6572 175.352 12.2863 174.31C12.8364 173.398 13.3917 172.487 13.955 171.584C15.0788 169.773 16.2369 167.982 17.4503 166.228C19.9639 162.599 22.7117 159.113 25.9491 156.065C29.2997 152.908 33.1451 150.312 37.1168 147.958C39.0251 146.829 40.9938 145.805 42.9994 144.849C44.9787 143.91 47.1449 142.87 49.2768 142.336C49.3979 142.305 49.5216 142.47 49.411 142.557C48.8452 142.994 48.253 143.404 47.6502 143.799C49.2821 143.248 50.9639 142.85 52.659 142.708C55.9411 141.584 59.2627 140.555 62.5291 139.381C65.7401 138.226 68.9039 136.928 71.0384 134.191C72.8624 131.852 74.0152 128.99 74.9022 126.202C75.8761 123.129 76.263 119.936 77.1632 116.858C77.2342 116.609 77.6527 116.58 77.708 116.858C78.3502 120.087 78.3213 123.717 77.9554 126.977C77.5711 130.397 76.5841 133.752 74.4364 136.532C71.9412 139.764 68.5564 141.563 64.7479 142.998C61.6763 144.159 58.5652 145.34 55.42 146.377C55.8306 146.639 56.2464 146.901 56.6754 147.15C58.381 148.138 60.155 149.016 61.9684 149.804C65.2795 151.244 68.767 152.323 72.2755 153.198C78.8055 154.82 85.5014 155.644 92.2342 155.752C105.705 155.97 119.326 153.218 131.646 147.905C135.115 146.408 138.503 144.762 141.856 143.035C142.903 142.495 143.956 141.951 145.004 141.391C144.917 141.387 144.827 141.379 144.741 141.371C142.401 141.156 140.09 140.717 137.826 140.095C133.191 138.819 128.748 136.83 124.384 134.871C120.684 133.21 116.873 131.318 114.612 127.858C113.404 126.007 112.848 123.835 112.398 121.71C111.895 119.343 111.303 116.965 110.937 114.576C110.808 113.739 111.001 112.607 111.922 112.211C112.29 112.055 112.593 111.926 113.006 111.926C113.919 111.926 114.856 112.573 115.075 113.462C115.614 115.677 115.941 117.954 116.365 120.192C116.73 122.128 117.065 124.148 118.136 125.85C120.007 128.831 123.676 130.355 126.777 131.806C130.707 133.644 134.639 135.436 138.721 136.928C140.519 137.584 142.348 138.18 144.204 138.668C144.13 138.224 144.193 137.756 144.462 137.405C144.909 136.825 145.417 136.44 145.993 135.996C146.62 135.513 147.462 135.261 148.202 135.475C148.202 135.477 148.204 135.475 148.204 135.475C148.504 135.41 148.836 135.436 149.178 135.587C150.236 136.06 151.292 136.537 152.347 137.023C167.531 143.99 182.284 152.173 193.457 164.637C195.068 166.434 196.576 168.323 197.989 170.272C199.363 172.164 201.063 174.217 201.442 176.564C201.474 176.759 201.182 176.849 201.132 176.648C201.042 176.286 200.921 175.932 200.771 175.588C201.084 176.656 201.066 177.791 200.624 178.907C200.1 180.222 199.139 181.092 197.926 181.438C199.145 186.647 199.963 191.925 200.621 197.262C201.566 204.951 202.237 212.657 202.743 220.384C203.753 235.805 204.203 251.303 203.877 266.752C203.785 271.118 203.632 275.485 203.401 279.849C203.285 282.031 203.158 284.21 203.014 286.392C202.872 288.539 202.987 290.903 201.069 292.035C201.045 292.12 201.019 292.202 200.995 292.286C200.529 293.87 198.452 293.362 198.258 291.924C198.255 291.909 198.252 291.891 198.25 291.876C196.681 290.708 196.918 288.762 197.034 286.896C197.157 284.881 197.289 282.868 197.4 280.855C197.61 276.994 197.789 273.133 197.95 269.27C198.263 261.63 198.439 253.98 198.497 246.335C198.613 231.043 197.707 215.774 196.634 200.525C196.184 194.146 195.657 187.795 195.497 181.418C194.657 180.992 194.399 179.78 194.82 178.964C184.876 185.582 175.648 193.494 168.239 202.689C167.002 204.224 165.82 205.806 164.689 207.415C164.32 207.939 163.97 208.483 163.617 209.027C163.96 210.544 164.225 212.087 164.573 213.543C165.289 216.549 165.591 219.668 166.002 222.723C166.836 228.928 167.423 235.189 167.921 241.427C168.9 253.746 169.626 266.064 169.855 278.419C169.982 285.407 170.15 292.438 169.834 299.423C170.069 300.789 168.808 302.124 167.489 302.296C166.334 302.447 165.255 301.862 164.749 300.92C161.149 301.356 157.453 301.557 153.876 301.582C149.057 301.615 144.238 301.61 139.419 301.51C129.777 301.305 120.139 301.064 110.5 300.784C91.2235 300.229 71.9465 299.672 52.6669 299.115C47.3212 298.961 41.9756 298.807 36.6299 298.653C34.219 298.584 31.2132 299.261 29.3129 297.447C28.9865 297.133 28.7338 296.766 28.5548 296.373C27.9863 296.512 27.2888 296.376 26.9151 295.947C26.2176 295.144 25.7043 294.399 25.7307 293.285C25.7544 292.243 26.0492 291.144 26.2018 290.112C26.4913 288.174 26.7703 286.236 27.0362 284.295C27.5599 280.46 28.0495 276.62 28.4996 272.776C29.4208 264.919 30.2578 257.043 30.9105 249.159C32.2055 233.569 32.5713 217.897 32.5266 202.258C32.5213 200.859 32.5134 199.46 32.5055 198.061C32.445 198.135 32.3792 198.204 32.3081 198.264C32.2502 198.312 32.1923 198.361 32.1344 198.412C31.4606 198.99 30.3394 199.288 29.5313 198.741C28.539 198.114 27.8547 197.175 27.0809 196.325C26.2676 195.435 25.4306 194.567 24.5857 193.704C22.9486 192.036 21.2562 190.436 19.5296 188.855C19.3901 188.729 19.2506 188.601 19.1111 188.477C19.1006 193.455 19.1059 198.43 18.969 203.406C18.7637 210.796 18.3531 218.179 17.9767 225.56C17.2292 240.174 16.4554 254.783 15.7105 269.395C15.5026 273.475 15.3052 277.556 15.0973 281.635C14.992 283.676 14.8893 285.717 14.7893 287.758C14.7367 288.862 14.684 289.969 14.6314 291.072C14.5735 292.258 14.6498 293.526 14.2392 294.654C13.3049 297.231 9.26733 297.595 8.49088 294.654C8.00395 292.808 8.37771 290.672 8.46456 288.777C8.55405 286.909 8.64353 285.037 8.73565 283.166V283.166Z" fill="#0C0C0C"/>
<path fill-rule="evenodd" clip-rule="evenodd" d="M80.4328 130.787C86.2748 130.82 91.2399 129.203 95.0284 126.529C99.7561 124.884 105.459 122.348 108.922 119.686C110.273 120.022 111.89 118.623 112.924 117.884C119.353 113.202 124.399 106.348 125.894 99.4831C128.202 102.325 131.487 102.443 134.634 101.031C141.229 97.3822 140.983 89.7001 138.608 83.9606C143.6 73.0357 147.06 44.1952 139.44 32.5557C137.881 30.8141 135.594 29.7724 133.947 27.9864C132.481 26.4267 131.087 24.8312 129.382 23.5969C124.18 19.735 115.219 17.6787 109.609 16.7117C86.1885 11.7731 68.1938 20.6496 46.9792 28.1371C48.2002 31.115 49.8891 33.8307 51.8247 36.3629C46.558 38.2803 48.9771 42.5913 53.0631 44.7767L55.4956 43.6235C51.7037 56.856 42.9769 89.7617 46.7423 100.329C49.7449 116.815 62.9224 130.906 80.4328 130.787" fill="white"/>
<path fill-rule="evenodd" clip-rule="evenodd" d="M77.0484 132.206C84.6339 132.966 93.6454 131.217 98.7023 125.207C98.8535 125.027 98.9197 124.823 98.9237 124.626C98.9281 124.408 98.8528 124.196 98.7228 124.032C98.5861 123.859 98.3915 123.739 98.1684 123.7C97.9806 123.667 97.7664 123.688 97.5457 123.809L97.0808 124.061C93.6272 125.922 90.0404 127.508 86.1265 128.187C82.0967 128.886 77.9933 128.808 73.9993 127.92C66.7242 126.304 60.8364 122.179 56.5027 116.741C51.6665 110.673 48.7625 102.969 48.0222 95.2656C47.1252 85.9294 49.206 76.65 51.3588 67.6101C53.6209 58.1116 56.0935 48.6614 58.9657 39.321C59.0523 39.0398 59.0756 38.7766 59.0506 38.5342C59.8977 38.2105 60.7994 38.3004 61.6968 38.5959C63.3365 39.1358 64.9699 40.3534 66.3322 41.3585C66.8255 41.7225 67.2845 42.0609 67.697 42.3361C69.3862 43.4635 71.2329 44.2747 73.2975 44.4023C75.4451 44.5346 77.5504 43.8837 79.5008 43.069C80.4917 42.6551 81.4666 42.2258 82.4376 41.7982C85.2026 40.5806 87.9349 39.375 90.9208 38.5914C94.9216 37.5413 99.0523 37.024 103.196 37.0611C110.591 37.127 118.008 38.9835 122.54 45.0835C124.376 47.5545 125.573 50.3945 124.64 53.4441C124.132 55.1031 123.173 56.6091 122.128 57.9942L121.769 58.466C121.195 59.2263 120.696 59.9836 120.546 60.7898C120.42 61.4652 120.519 62.1797 121.013 62.9629C121.324 63.4559 121.72 63.898 122.119 64.3386C122.406 64.6564 122.694 64.9737 122.942 65.3153C123.441 66.004 123.884 66.7457 124.231 67.5193C124.91 69.0336 125.198 70.6626 125.258 72.3055C125.331 74.2875 125.046 76.2264 124.762 78.1682C124.561 79.545 124.361 80.9231 124.28 82.318C124.266 82.5614 124.342 82.7428 124.449 82.877C124.58 83.0412 124.77 83.1447 124.988 83.1734C125.054 83.1821 125.122 83.1835 125.19 83.1776C125.157 83.3118 125.127 83.4466 125.101 83.5818C125.238 83.4097 125.384 83.2427 125.539 83.0812C125.548 83.0764 125.558 83.0714 125.568 83.0662C125.727 82.981 125.861 82.8513 125.946 82.6842C126.165 82.4863 126.396 82.2986 126.638 82.1222C127.9 81.204 129.373 80.6597 130.852 80.6416C132.276 80.6242 133.705 81.0974 134.803 82.0969C136.986 84.0831 137.625 87.3255 137.648 90.1095C137.671 92.9513 136.997 96.3618 134.456 98.1263C133.437 98.834 132.193 99.2592 130.939 99.2715C129.9 99.2817 128.905 98.9231 127.926 98.5814C127.624 98.476 127.323 98.3712 127.024 98.276C126.683 98.1679 126.372 98.1748 126.102 98.2538C125.797 98.3429 125.538 98.5269 125.345 98.7723C125.152 99.0167 125.026 99.3227 124.987 99.6432C124.949 99.9535 124.992 100.276 125.127 100.566C125.161 100.639 125.197 100.71 125.234 100.78L124.675 101.676C122.535 105.098 120.359 108.458 117.504 111.399C115.865 113.088 114.129 114.681 112.224 116.076L111.949 116.275C111.784 116.392 111.602 116.538 111.407 116.693C110.852 117.136 110.186 117.731 109.564 117.754C109.38 117.761 109.218 117.739 109.072 117.72C108.718 117.675 108.421 117.661 108.129 117.777C107.894 117.871 107.651 118.045 107.4 118.405C107.231 118.649 107.144 118.955 107.144 119.265C107.144 119.577 107.232 119.889 107.389 120.135C107.712 120.645 108.104 120.961 108.529 121.141C109.002 121.341 109.526 121.371 110.07 121.273C111.41 121.029 112.894 119.946 113.838 119.239L114.021 119.103C116.113 117.546 118.096 115.824 119.839 113.898C122.807 110.618 125.473 106.753 126.843 102.53C127.808 103.148 129 103.442 130.247 103.488C132.063 103.556 133.986 103.1 135.402 102.444C138.524 101 140.421 98.2693 141.309 95.1285C142.341 91.4811 142.006 87.2878 140.7 84.0113C140.662 83.916 140.622 83.8211 140.581 83.7248C144.604 73.7857 145.84 62.7489 145.496 52.142C145.335 47.1772 144.988 41.9682 143.787 37.126C143.249 34.9557 142.314 32.8889 140.82 31.1803C139.969 30.206 138.924 29.4474 137.875 28.691C136.966 28.0358 136.054 27.3821 135.286 26.5641L134.923 26.1757C134.844 26.0912 134.766 26.0068 134.688 25.9226C133.362 24.4974 132.071 23.1145 130.462 21.9456C128.596 20.5905 126.537 19.5298 124.398 18.6488C119.789 16.7517 114.829 15.6142 109.921 14.7341C99.3048 12.8306 88.4065 12.7366 77.9201 15.4124C73.0447 16.6563 68.313 18.3589 63.5894 20.0595C63.1509 20.2174 62.7124 20.3753 62.2738 20.5328C58.603 21.851 54.9302 23.1637 51.2574 24.4763C49.5505 25.0864 47.8436 25.6964 46.1368 26.307C45.7665 26.4396 45.404 26.7251 45.1975 27.0798C44.996 27.4258 44.936 27.8294 45.0987 28.2313C46.1459 30.8193 47.4673 33.2473 49.0757 35.5146C48.5168 35.8854 48.0411 36.3785 47.6814 36.9557C47.2263 37.6857 46.9567 38.5499 46.9384 39.4668C46.8771 42.5373 49.742 44.6188 52.1189 46.1243C52.3405 46.2647 52.5598 46.3476 52.7717 46.3857C50.4686 54.9745 48.2639 63.5924 46.3906 72.2787L46.2618 72.8808C44.332 81.9714 43.0869 91.2485 44.912 100.46C46.4834 108.392 50.1342 116.047 55.839 121.956C61.4297 127.748 68.9316 131.393 77.0484 132.206ZM126.996 79.9111C127.99 76.8369 128.516 73.492 128.136 70.3757C127.897 68.4168 127.293 66.531 126.31 64.8044C125.746 63.8155 125.06 62.9001 124.311 62.0379L124.053 61.7483C123.922 61.6004 123.792 61.4644 123.752 61.294C123.728 61.195 123.752 61.0867 123.814 60.9573C123.95 60.6707 124.204 60.3945 124.442 60.1249C124.594 59.9535 124.741 59.7854 124.865 59.6218C127.042 56.7477 128.666 53.326 128.138 49.6814C127.623 46.1255 125.234 42.8109 122.69 40.313C117.089 34.8127 108.405 33.5487 100.798 33.8521C96.3695 34.0286 91.9484 34.7898 87.7312 36.1195C85.6517 36.7753 83.6184 37.574 81.6425 38.4894L81.205 38.6943C80.9689 38.8059 80.733 38.9187 80.497 39.0316C78.9525 39.7703 77.4022 40.5162 75.7256 40.9178C72.4514 41.702 70.2303 40.0504 67.8958 38.3848C67.0957 37.814 66.2834 37.2352 65.42 36.7273L65.2423 36.6249C63.6847 35.7442 61.8217 35.1516 60.032 35.1782C58.4775 35.2012 56.9776 35.6854 55.7565 36.8294C55.506 37.0645 55.3616 37.3209 55.2939 37.5762C55.1588 37.7609 55.0498 37.9812 54.9787 38.2414C54.5413 39.8422 54.1059 41.4442 53.6719 43.0466L53.317 42.8236C52.2658 42.1576 51.1229 41.3966 50.6067 40.2824C50.4081 39.8536 50.4362 39.1392 50.6866 38.614C50.774 38.4304 50.8897 38.2673 51.0496 38.1654C51.166 38.0913 51.3062 38.0565 51.4691 38.0693C51.8653 38.1191 52.2291 38.0626 52.5375 37.9354C52.8932 37.7888 53.1769 37.5475 53.361 37.2568C53.5495 36.9591 53.6354 36.609 53.5893 36.246C53.5497 35.9339 53.412 35.608 53.1395 35.3017C51.3461 33.2856 49.8358 31.0616 48.688 28.6476L56.2805 25.9078C58.9877 24.9314 61.6953 23.9563 64.4041 22.9849L65.8872 22.4534C70.8128 20.6913 75.7669 18.9693 80.8893 17.8348C91.0694 15.5804 101.685 16.1102 111.837 18.2323L112.45 18.3616C116.71 19.2676 121.028 20.3637 124.938 22.2692C126.857 23.2044 128.681 24.3416 130.248 25.7784C130.94 26.4129 131.566 27.1076 132.191 27.8013C133.068 28.7736 133.946 29.7432 134.989 30.5622L135.957 31.3181C137.397 32.4497 138.695 33.5521 139.508 35.307C140.357 37.1417 140.763 39.1685 141.093 41.1433C141.928 46.1179 142.257 51.1723 142.226 56.2112C142.173 64.6719 140.855 72.9603 139.19 81.2195C137.854 79.3549 135.977 77.9094 133.569 77.6012C131.999 77.4003 130.442 77.6858 129.092 78.363C128.312 78.7544 127.601 79.2766 126.996 79.9111V79.9111ZM129.52 89.9577C131.278 89.2931 133.125 89.0755 134.986 89.3933C135.181 89.4264 135.367 89.3868 135.523 89.2983C135.681 89.2085 135.806 89.0665 135.874 88.9097C135.952 88.7285 135.956 88.5323 135.887 88.358C135.827 88.2069 135.713 88.0601 135.502 87.962C133.488 87.0243 131.248 86.6105 129.025 86.9049L128.806 86.9353C127.669 87.0997 126.071 87.4456 124.873 88.1266C123.932 88.6616 123.243 89.399 123.071 90.3625C122.982 90.8645 123.11 91.3886 123.406 91.7685C123.693 92.1358 124.132 92.3807 124.699 92.3649C125.7 92.3372 126.293 91.9245 127.006 91.39C127.093 91.3252 127.182 91.2586 127.274 91.1913C127.963 90.6884 128.716 90.2612 129.52 89.9577Z" fill="#0C0C0C"/>
<path fill-rule="evenodd" clip-rule="evenodd" d="M87.6032 101.83C85.6943 101.471 83.3194 102.254 81.4156 102.597L81.2737 102.622C78.9651 103.015 76.6616 103.49 74.3275 103.722C72.0992 103.945 69.8236 103.984 67.595 103.735C66.5248 103.614 65.4639 103.41 64.4242 103.136C63.9794 103.019 63.5383 102.888 63.1024 102.742L63.0531 102.724C62.7329 102.595 61.867 102.109 61.8772 102.38C61.6337 102.106 61.2984 101.912 60.9302 101.817C60.4106 101.684 59.7437 101.809 59.3089 102.167C58.7432 101.73 57.8947 102.044 57.5154 102.567C56.8649 103.464 57.0766 104.516 57.1607 105.557L57.1677 105.649C57.2391 106.63 57.3484 107.604 57.4832 108.578L57.5425 108.995C57.7523 110.436 57.8099 112.811 59.5994 113.283C61.0148 113.657 62.3099 112.237 63.2223 111.11L63.7217 110.485C64.3131 109.753 64.8501 109 65.2828 108.168C65.4799 107.789 65.6705 107.401 65.8355 107.008C65.8563 106.959 65.8716 106.914 65.8874 106.87C68.512 107.214 71.1988 107.165 73.8303 106.827C75.4964 106.612 77.1377 106.303 78.7543 105.887L79.4836 107.173C80.3371 108.672 81.2028 110.167 82.1128 111.633L82.1834 111.744C83.0352 113.066 84.4615 114.39 86.1477 113.4C87.6566 112.514 87.7208 110.498 87.8798 108.994C87.986 107.989 88.072 106.977 88.1134 105.967L88.1283 105.534C88.1554 104.555 88.3188 103.419 87.9327 102.503C87.8767 102.37 87.68 102.267 87.5616 102.407C86.7549 103.364 86.5109 104.846 86.1624 106.02C85.7744 107.326 85.2125 108.753 85.0109 110.108L84.9546 110.012V110.012C84.756 109.644 84.5534 109.278 84.3498 108.913L83.7391 107.816C83.1914 106.827 82.6336 105.843 82.0709 104.861C82.7135 104.626 83.3501 104.373 83.9842 104.116L85.4231 103.529C86.2451 103.191 87.0832 102.808 87.7011 102.192C87.8106 102.083 87.7724 101.862 87.6032 101.83ZM60.3043 105.447C61.7222 106.009 63.1887 106.415 64.6819 106.684C64.5856 106.78 64.4895 106.876 64.4 106.977C64.0486 107.374 63.6759 107.755 63.3009 108.132L63.0758 108.357C62.5015 108.932 61.6387 109.878 60.7583 110.429L60.7107 110.18C60.7029 110.137 60.6968 110.1 60.6936 110.071L60.5998 109.255C60.5846 109.119 60.5699 108.982 60.5559 108.846C60.4801 108.11 60.4198 107.372 60.3567 106.634C60.3235 106.245 60.3156 105.846 60.3043 105.447ZM77.0836 57.9892C73.7067 56.5824 69.6989 57.2466 66.7902 59.3716C63.8139 61.5462 62.5124 65.0816 62.3403 68.6088C59.9864 66.6486 56.5966 68.1324 54.6142 69.9691C52.3264 72.0888 51.1694 75.2877 51.7026 78.3236C52.2341 81.3492 54.4789 84.0184 57.516 84.9182C58.9692 85.3487 60.5886 85.3585 62.0505 84.958C62.5469 84.8217 63.1551 84.6107 63.7171 84.3167C63.685 84.4425 63.6523 84.5686 63.6218 84.6941C62.8925 87.7051 62.479 91.0896 63.5734 94.0672C65.3323 98.852 71.58 101.531 75.4807 97.2835C77.0122 95.6161 78.2027 93.0049 78.1101 90.7317C78.0614 89.5372 77.3676 88.1553 75.9352 88.2362C74.8245 88.2987 74.2979 89.2053 74.5822 90.1647L74.5995 90.2201C75.2017 92.0543 74.1736 94.7046 72.6841 95.9555C70.4001 97.8739 67.2656 96.2045 66.0167 93.955C64.5612 91.3332 64.7383 87.9718 65.2036 85.1195C65.6606 82.3188 66.6794 79.757 67.7609 77.1655C67.8757 77.1858 67.992 77.2045 68.111 77.2202C70.2619 77.5049 74.6381 77.6122 77.0146 76.0925C76.7593 78.438 77.2602 80.8527 78.6265 82.8388C80.1488 85.0522 82.4424 86.2236 85.1118 86.5825C87.7043 86.9316 90.7096 87.0022 93.2692 86.403C98.7199 85.1272 100.642 78.5638 98.9934 73.826C98.0182 71.0234 95.2972 68.5028 92.2727 67.8662C90.7146 66.8665 88.6224 66.5705 86.8242 66.7068C84.1385 66.9109 81.4933 68.0428 79.6945 70.0305C79.0073 70.7898 78.4422 71.6496 78.0066 72.5696C77.8603 72.4572 77.6897 72.3727 77.4971 72.3286C77.1962 72.2598 76.933 72.2444 76.6388 72.3455C76.4922 72.3961 76.2808 72.5748 76.1537 72.6908L75.8632 73.0235C75.5072 73.4282 75.1686 73.7677 74.5347 74.0193C72.7676 74.7209 70.3708 74.8731 68.4934 74.7296C63.7031 74.364 64.3064 68.1755 65.4863 64.9961C66.8839 61.2297 70.8899 58.8866 74.9653 59.5556C76.7164 59.8429 78.3869 60.7519 79.6687 61.9397C81.0995 63.2659 81.7123 64.8678 82.5706 66.5464C82.6214 66.6457 82.7967 66.6242 82.8185 66.5146C83.5239 62.975 80.1791 59.2789 77.0836 57.9892ZM102.597 86.5259C102.743 86.3593 102.552 86.0664 102.343 86.2045C100.817 87.2162 99.1186 87.9463 97.2728 88.1437C96.4058 88.2361 95.532 88.2425 94.6684 88.1129C93.9327 88.002 93.2697 87.7832 92.5354 87.9809C92.1445 88.0862 92.0735 88.5285 92.3122 88.8057C93.4216 90.0936 96.1529 89.7497 97.6421 89.4044C99.5679 88.9582 101.314 87.9968 102.597 86.5259ZM51.2172 84.1744C50.4676 83.7213 49.5753 84.6185 50.0185 85.3432C51.1566 87.2025 54.4554 87.354 56.3691 86.9089C56.5189 86.8745 56.4846 86.6452 56.333 86.6493C55.2331 86.6758 54.239 86.4696 53.2915 85.91C52.4819 85.4317 51.9989 84.6467 51.2172 84.1744ZM87.7926 69.311L87.9428 69.3122C89.6926 69.3397 91.2949 69.9904 92.981 70.3344C93.1208 70.3632 93.2611 70.3486 93.3877 70.3034C95.4412 71.6396 96.8567 73.7405 97.0488 76.505C97.182 78.4198 96.7027 80.5061 95.537 82.0774C94.2102 83.8659 92.0727 84.1419 89.9678 84.1952L89.7539 84.1999C85.7748 84.2757 81.3972 84.0464 79.9788 79.7075C78.9291 76.4963 80.0501 72.5979 82.974 70.6743C84.3941 69.7402 86.0901 69.3094 87.7926 69.311ZM55.7347 71.6139L55.8514 71.481C57.4121 69.7345 59.8866 68.1439 62.3263 69.0234L62.3192 69.3175C62.3183 69.3666 62.3178 69.4157 62.3179 69.4647C62.3253 72.8374 63.6652 75.9849 66.9587 76.9745C66.0751 78.2039 65.3652 79.5681 64.7967 80.9839C64.5962 80.856 64.3522 80.7749 64.069 80.7469C62.9096 80.6324 62.2452 81.6944 61.2398 82.0905C60.2986 82.4617 59.231 82.5575 58.2374 82.3657C56.0639 81.9465 54.5389 80.1185 54.0046 78.0899C53.4006 75.7967 54.1986 73.3926 55.7347 71.6139ZM88.8212 74.4524C88.0964 73.2582 86.3084 73.431 85.5916 74.4838L85.5573 74.5363L85.5496 74.5266C84.3557 76.0355 84.9327 78.4188 86.6661 79.2672C88.0566 79.9473 89.8251 79.7689 90.7495 78.445C90.9566 78.1482 91.0895 77.7991 91.1382 77.4456C91.1714 77.2051 91.1524 76.9648 91.0971 76.7258L91.1111 76.7817C91.0837 76.6611 91.0403 76.472 91.029 76.427C90.9069 75.9403 90.6139 75.4181 90.2473 75.0657C89.8696 74.7027 89.345 74.4819 88.8212 74.4524ZM59.0351 73.2119C58.3931 73.2119 57.8235 73.4738 57.3598 73.8889C56.7002 74.4796 56.6083 75.3298 56.7507 76.1367C56.7944 76.3828 56.8544 76.6208 56.9173 76.8631L56.9715 77.0823C56.981 77.1187 56.9911 77.1549 57.0026 77.1905C57.0421 77.3406 57.105 77.4785 57.1797 77.6104C57.4543 78.6072 58.5658 79.1022 59.5457 78.8847C60.0068 78.7823 60.4666 78.4091 60.7014 78.0178C60.7788 77.889 60.833 77.7606 60.8714 77.6317L61.0622 77.1905V77.1905C61.098 77.0847 61.1204 76.9712 61.1491 76.8631C61.2131 76.6211 61.2746 76.3826 61.3191 76.1367C61.4705 75.3029 61.3499 74.5127 60.7101 73.8889C60.2805 73.4697 59.6423 73.2119 59.0351 73.2119ZM73.175 64.565C72.0609 64.4192 70.9262 64.9254 70.35 65.8853C69.8494 66.7196 69.8515 67.8422 70.35 68.6765L70.3922 68.7471V68.7471C71.3105 70.2838 73.4522 70.4809 74.7405 69.2936L74.8029 69.2361V69.2361C75.6315 68.4729 75.8181 67.2071 75.3891 66.2157C74.9969 65.309 74.1746 64.6962 73.175 64.565Z" fill="#0C0C0C"/>
<path fill-rule="evenodd" clip-rule="evenodd" d="M45.7163 86.3726C48.9118 89.593 54.2464 90.5172 58.498 88.79C69.4146 84.3415 64.0713 70.4662 55.6522 66.7401C54.6004 66.4844 53.1957 65.8778 51.9147 65.7402C51.7989 65.6847 51.5468 65.8452 51.2412 65.6935C41.9578 66.7044 39.8437 80.7598 45.7163 86.3726M80.9271 87.1969C84.5111 91.8334 91.1743 93.2638 96.6184 91.1084C107.373 86.9774 103.559 74.6735 96.2005 69.8499C80.6565 64.1532 74.2378 78.6481 80.9271 87.1969M104.242 76.9238C104.252 76.9192 104.262 76.9169 104.272 76.9123C104.215 76.8879 104.158 76.8635 104.102 76.8386C104.12 76.8856 104.14 76.932 104.158 76.979C104.186 76.9603 104.21 76.9384 104.242 76.9238M38.3171 71.912C39.1947 71.9138 40.4622 72.0545 41.1887 72.6483C42.98 66.756 49.5922 61.3027 55.3427 65.2791C59.8711 66.6995 63.2314 69.8496 65.1412 74.0376C68.5847 72.0399 73.9993 72.8929 76.9853 75.5347C78.9409 69.2322 83.7539 67.0253 89.4825 66.6995C95.7351 65.7006 101.967 71.6232 103.912 76.3744C105.529 76.195 107.945 75.6931 109.466 76.6663C119.338 74.1413 136.597 72.7492 138.604 74.1521C140.034 74.6873 140.819 77.9799 138.821 78.1576C137.081 77.9165 139.025 75.745 137.27 75.508C127.92 74.9428 118.844 76.7793 109.593 77.5499C108.767 78.6335 106.098 78.996 104.675 78.5606C106.917 86.6203 102.076 92.1037 94.8239 93.7461C83.5938 96.2621 73.8235 86.464 76.76 76.2725C73.3581 74.6219 69.4451 74.6927 65.7392 75.5622C71.9318 97.7909 35.2263 96.7935 40.9592 73.4099C37.144 75.2608 36.3155 72.2855 38.3171 71.912" fill="#0C0C0C"/>
</svg>
