<svg width="219" height="306" viewBox="0 0 219 306" fill="none" xmlns="http://www.w3.org/2000/svg">
<path fill-rule="evenodd" clip-rule="evenodd" d="M193.6 176.215C189.947 159.333 176.99 146.233 159.564 139.707C156.214 137.859 152.967 129.93 148.465 128.478C147.744 128.246 148.883 130.098 148.465 130.209C146.976 130.603 145.308 130.645 143.665 129.22C140.727 126.673 139.805 119.232 138.019 115.87C128.599 98.1346 105.078 105.074 101.927 124.68C99.73 126.076 96.6241 127.307 94.2325 128.432C91.7698 129.591 89.6035 132.399 87.0655 133.402C84.801 134.298 81.0698 133.663 78.788 134.444C68.293 138.035 59.4041 142.565 52.4353 151.745C50.9669 153.681 49.3116 156.062 47.9753 158.017C41.0862 165.752 36.3012 174.422 31.8942 183.723C19.5642 211.025 16.2104 241.254 13.2015 270.669C13.2699 275.816 9.76829 290.088 14.9473 292.555C14.6378 292.868 14.7499 293.497 15.3242 293.491C28.4562 293.362 41.5576 294.508 54.4859 296.737C60.7235 297.812 66.9278 299.287 73.2815 299.529C86.4708 299.44 99.6128 297.285 112.785 299.324C128.62 299.324 147.864 298.874 165.48 298.214C181.944 297.597 198.496 298.991 214.756 296.26C216.043 296.061 216.672 294.53 216.402 293.433C214.494 286.653 213.558 279.676 212.487 272.736C212.7 268.286 212.319 263.639 210.631 259.493C206.22 231.507 200.564 203.704 193.6 176.215Z" fill="white"/>
<path fill-rule="evenodd" clip-rule="evenodd" d="M188.287 213.001C187.939 214.646 187.453 216.292 186.805 217.85C186.181 219.354 185.242 220.702 184.594 222.188C184.508 222.389 184.365 222.54 184.194 222.656L184.248 223.06V223.06L184.297 223.464C184.62 226.193 184.983 228.914 185.297 231.642L185.45 233.006C186.068 238.703 187.045 244.371 187.803 250.052C188.545 255.615 189.301 261.178 190.108 266.733C190.943 272.46 191.793 278.18 192.785 283.884C193.204 286.293 193.641 288.7 194.097 291.105L194.448 292.946C198.07 293.795 199.06 298.719 195.372 300.537C193.699 301.358 191.548 301.16 190.169 299.869C188.735 298.524 188.676 296.098 188.343 294.275L188.023 292.582C185.625 279.848 183.543 266.967 182.57 254.054C182.32 250.719 182.11 247.382 181.973 244.042C181.843 240.901 181.905 237.759 181.855 234.618L181.838 233.761C181.762 230.411 181.825 227.066 181.915 223.716C181.925 223.308 181.944 222.899 181.965 222.489C181.844 222.35 181.757 222.186 181.72 222.027L181.673 221.816C181.554 221.274 181.688 220.64 182.115 220.253C182.299 217.971 182.541 215.691 182.607 213.411C182.612 213.224 182.889 213.229 182.905 213.411C183.06 215.352 183.37 217.298 183.681 219.241C185.679 217.675 187.155 215.093 188.026 212.931C188.09 212.775 188.324 212.831 188.287 213.001ZM141.021 122.274C141.353 123.752 142.008 125.08 142.887 126.314C143.306 126.905 143.782 127.454 144.353 127.914C144.843 128.306 145.401 128.563 145.922 128.905C146.68 128.789 147.472 129.069 148.004 129.613L147.92 128.817C147.893 128.561 148.33 128.509 148.38 128.758C150.683 140.085 152.783 151.418 154.601 162.827L155.398 167.865L156.147 172.595C157.392 180.476 158.596 188.355 159.503 196.294C160.711 206.888 161.727 217.511 162.469 228.149C163.214 238.862 163.672 249.582 163.999 260.315C164.08 263.021 164.167 265.724 164.251 268.43L164.813 265.195C165.374 261.959 165.925 258.721 166.396 255.471C168.089 243.839 169.442 232.125 170.102 220.394C170.708 209.658 170.505 198.71 167.705 188.251C166.999 185.62 166.136 183.029 165.094 180.506C164.083 178.052 162.704 175.777 161.617 173.359C160.353 170.546 159.974 167.891 160.625 164.862C161.193 162.223 162.191 159.741 162.369 157.025C162.704 151.983 161.022 147.1 158.645 142.687C158.019 141.525 157.358 140.377 156.668 139.24C154.581 135.802 152.228 132.491 149.786 129.315C149.654 129.146 149.933 128.959 150.075 129.097C152.302 131.243 154.736 133.353 156.74 135.697C157.713 136.837 158.663 138 159.564 139.194C169.439 140.803 177.925 146.802 183.726 154.725C190.308 163.715 193.638 174.535 196.102 185.191C198.842 197.033 201.152 208.983 203.613 220.884C206.161 233.199 208.696 245.513 211.259 257.825C212.533 263.937 213.807 270.05 215.078 276.165C215.723 279.26 216.4 282.349 217.108 285.434C217.471 287.016 217.861 288.595 218.197 290.181C218.576 291.97 218.224 293.115 216.981 294.43C216.523 294.917 215.799 294.91 215.231 294.65L215.053 294.569L214.881 294.488C214.178 294.151 213.626 293.801 213.189 293.051C212.707 292.227 212.63 291.313 212.465 290.397C212.159 288.71 211.857 287.023 211.552 285.334C211.095 282.808 210.599 280.289 210.095 277.771L207.562 265.186C206.886 261.831 206.21 258.476 205.529 255.122C203.1 243.128 200.668 231.137 198.236 219.146C195.901 207.633 193.835 196.04 191.177 184.593L191.026 183.948L190.872 183.304C188.495 173.436 185.174 163.89 179.148 155.528C174.511 149.098 168.071 143.355 160.485 140.449C161.019 141.199 161.533 141.964 162.022 142.744C165.096 147.642 167.341 153.456 166.815 159.289C166.557 162.138 165.446 164.939 165.551 167.812C165.649 170.364 167.268 172.605 168.386 174.825C170.926 179.857 172.763 185.204 173.948 190.69C176.325 201.705 176.317 213.039 175.498 224.221C174.608 236.377 172.919 248.53 170.995 260.566C170.008 266.74 168.694 272.863 167.689 279.027C167.191 282.066 166.515 285.098 165.923 288.122L165.64 289.567C165.482 290.369 165.318 291.168 165.129 291.959L165.012 292.432V292.517C165.007 293.1 164.843 293.582 164.58 293.967C164.22 295.094 163.772 296.193 163.178 297.248C162.872 297.787 162.43 298.09 161.948 298.201C161.464 299.281 160.366 300.113 159.056 300.108L141.818 300.044C131.806 300.005 121.794 299.941 111.782 299.887C109.255 299.874 106.731 299.828 104.207 299.764C101.841 299.7 99.572 299.423 97.2322 299.135C94.5893 298.812 93.1578 296.986 93.5526 294.412C93.6394 293.844 93.7339 293.279 93.8237 292.715C93.2973 292.884 92.6708 292.805 92.2471 292.402L91.8498 292.022C91.2991 291.491 90.8065 290.969 90.4573 290.26C90.0967 289.532 89.8043 288.761 89.4858 288.017C88.7989 286.415 88.1306 284.808 87.4802 283.193C86.1776 279.964 84.8748 276.722 83.6638 273.459C81.2663 266.997 79.1446 260.438 77.2998 253.805C74.0098 241.971 71.6302 229.908 70.1299 217.737L69.7712 214.836L69.6669 213.979C69.098 209.262 68.6192 204.472 68.8455 199.765C68.9852 196.817 69.4535 193.847 70.5829 191.095C71.6249 188.557 73.2331 186.385 74.7623 184.116L74.9373 183.854L75.1132 183.585C76.4506 181.524 77.5147 179.369 77.568 176.866C77.6221 174.326 76.8633 171.854 76.0149 169.476L75.8035 168.889L75.6616 168.501C73.8568 163.586 71.8029 158.741 72.4803 153.392C73.4807 145.516 78.376 139.168 84.5352 134.272C79.0577 135.33 73.636 137.419 68.851 140.069C63.1998 143.201 58.1121 147.334 53.7245 151.998C45.4336 160.814 39.5142 171.39 34.6689 182.311C29.5967 193.74 25.8355 205.715 23.0011 217.847C20.1506 230.049 18.2424 242.445 16.9393 254.891C16.2894 261.085 15.7785 267.295 15.3551 273.508C15.1392 276.691 14.976 279.879 14.7234 283.057C14.4707 286.233 14.3573 289.457 13.5624 292.548C13.1913 293.988 10.6882 294.134 10.42 292.548C9.82478 289.005 9.99113 285.341 10.1573 281.753L10.1723 281.427C10.3358 277.854 10.549 274.283 10.8014 270.712C11.3175 263.414 12.0069 256.126 12.907 248.861C16.0628 223.359 21.8825 197.991 33.2976 174.712C38.6722 163.748 45.5707 153.095 55.1671 145.178C59.736 141.411 64.8869 138.405 70.4379 136.229C75.4021 134.28 80.4451 133.359 85.7197 133.361C88.3648 131.384 91.2048 129.662 94.0419 128.191C94.213 128.101 94.3919 128.317 94.2501 128.455C94.1764 128.525 94.105 128.596 94.0316 128.663C94.3527 128.684 94.6841 128.83 94.9815 129.136C96.0241 130.201 96.9031 131.533 97.6899 132.917C98.8874 134.375 100.03 135.882 101.225 137.324C103.138 139.635 105.096 141.912 107.079 144.171C110.407 147.968 113.845 151.692 117.429 155.267L118.028 155.862C119.886 157.697 121.768 159.895 123.965 161.348L124.083 161.424C125.01 162.013 125.667 162.12 126.458 161.24C127.177 160.439 127.775 159.51 128.39 158.627L128.532 158.424C131.672 153.975 134.583 149.362 137.218 144.613C138.419 142.452 139.561 140.259 140.645 138.042L140.969 137.376C141.558 136.154 142.198 134.955 142.684 133.697C142.798 133.402 142.908 133.107 143.016 132.814C141.358 131.754 140.074 129.459 139.608 127.662C139.123 125.796 139.368 123.881 140.231 122.174C140.394 121.853 140.942 121.932 141.021 122.274ZM59.2206 198.114C58.9912 205.21 58.852 212.313 58.5095 219.403L58.3914 221.824C58.9254 222.404 59.2386 223.074 58.9886 223.993C58.8914 224.345 58.6043 224.663 58.2463 224.781L58.1347 227.032C57.6268 237.158 57.0313 247.263 55.9433 257.363C54.5826 270.004 53.0086 282.623 51.4375 295.241C51.2138 297.028 49.9397 298.444 47.9577 298.183C45.9524 297.918 45.1391 296.216 45.4023 294.442C46.4367 287.483 47.4313 280.518 48.3028 273.536L49.295 265.581C50.5393 255.636 51.8127 245.694 53.28 235.781C53.8932 231.638 54.5302 227.497 55.1695 223.356L54.946 223.074C54.0325 221.916 53.0876 220.784 52.1532 219.644C50.3584 217.447 48.5871 215.267 46.942 212.967C46.8602 212.852 47.0263 212.682 47.1444 212.77C49.4501 214.431 51.6323 216.207 53.8274 218.012L55.7488 219.598C56.8543 212.443 57.9492 205.286 58.9254 198.114C58.9493 197.934 59.2257 197.921 59.2206 198.114ZM92.3866 130.209C90.9992 131.484 89.5808 132.732 88.183 134L87.671 134.467L87.1613 134.936C84.7047 137.208 82.351 139.573 80.3898 142.29C76.7892 147.277 74.6441 153.359 76.1414 159.448C77.384 164.492 80.2345 169.065 81.0004 174.235C81.3844 176.825 81.1978 179.428 80.1974 181.874C79.1762 184.37 77.5443 186.508 76.0783 188.759C72.8935 193.652 72.4592 199.023 72.7754 204.691C73.107 210.611 73.8042 216.533 74.6651 222.399C76.4073 234.285 79.034 246.047 82.511 257.566C84.251 263.334 86.3063 268.979 88.3517 274.647C89.37 277.469 90.5573 280.223 91.781 282.965C92.4258 284.408 93.0867 285.842 93.7579 287.275C93.5102 285.252 93.5102 283.175 93.3891 281.165C93.2154 278.285 92.9943 275.41 92.7917 272.532C92.3787 266.692 92.0102 260.847 91.6812 255.001C90.5152 234.156 89.6572 213.293 89.7201 192.415C89.7519 181.975 89.9704 171.534 90.431 161.104C90.6469 156.192 91.0651 151.285 91.443 146.38L91.5233 145.329C91.8575 140.926 92.2576 136.514 92.9443 132.149C92.741 131.702 92.5645 131.249 92.4335 130.784L92.3866 130.609L92.4208 130.614C92.3892 130.478 92.3787 130.342 92.3866 130.209ZM104.383 112.27C104.412 112.149 104.588 112.159 104.62 112.27C105.402 114.837 105.125 117.661 104.452 120.243C104.089 121.642 103.573 123 102.949 124.309L102.731 124.768C102.196 125.883 101.594 127.031 100.554 127.726C100.12 128.016 99.3428 128.034 98.9085 127.726L98.6871 127.562C98.6506 127.535 98.6146 127.506 98.5795 127.477C98.1745 127.146 97.9742 126.414 98.1611 125.932C98.6427 124.687 99.7353 123.773 100.49 122.664C101.159 121.678 101.751 120.638 102.243 119.558C103.304 117.219 103.78 114.737 104.383 112.27Z" fill="#0C0C0C"/>
<path fill-rule="evenodd" clip-rule="evenodd" d="M164.198 49.3101C154.939 25.5496 138.247 8.15308 110.107 19.0797C109.3 18.5437 108.247 18.4 107.237 19.0276C91.9088 28.4153 80.8703 43.466 76.0866 60.4375C73.1753 60.9774 70.3464 61.919 67.8197 63.4631C62.3282 66.8191 58.6337 72.1592 55.1704 77.3602C54.1289 78.9238 55.0933 81.5125 57.0505 81.8675C57.9006 82.022 58.7431 82.1139 59.5809 82.1381C59.3769 82.8602 59.1085 83.558 58.7666 84.1979C57.5287 86.5145 59.8673 88.974 62.059 88.3407C62.3022 88.4663 62.557 88.5695 62.8209 88.647C62.851 89.9593 63.5424 91.716 64.9108 91.9812C67.1238 92.4443 70.0648 90.7923 69.5426 88.3782C70.2112 88.493 70.8773 88.5073 71.5266 88.4278C71.5993 89.6849 71.5766 90.9967 71.7546 92.1562C72.3362 97.6211 77.9346 101.292 83.2734 99.6296C83.6008 101.332 83.9853 103.725 85.7048 104.649C87.7152 110.149 91.1866 116.427 96.8723 118.933C96.3661 120.198 96.6407 121.736 98.1651 122.583C108.572 128.37 121.064 130.328 132.83 128.176C137.533 127.903 142.114 126.867 146.512 124.659C149.719 123.049 152.667 121.004 155.545 118.896C158.424 116.788 161.503 114.735 163.801 111.997C166.297 109.023 167.459 105.525 168.213 101.801C171.669 84.8995 170.475 68.3039 164.198 52.2035C156.428 32.2737 171.966 69.2409 164.198 49.3101Z" fill="white"/>
<path fill-rule="evenodd" clip-rule="evenodd" d="M119.432 14.4496C124.171 14.1233 128.996 14.9025 133.509 16.2961C140.707 18.5182 147.317 22.4398 152.748 27.545C158.345 32.8063 162.484 39.2931 165.001 46.4577C168.036 55.0981 168.491 64.3238 169.345 73.3433C169.777 77.9004 170.488 82.388 171.227 86.9009L171.344 87.6137C172.066 92.0106 172.473 96.4576 171.475 100.848C169.816 108.144 164.844 114.337 158.941 118.914C146.816 128.315 127.941 134.047 113.824 125.396C111.64 124.057 113.709 120.634 115.841 122.029C117.342 123.011 118.932 123.872 120.636 124.466C127.759 126.949 135.582 126.064 142.621 123.755C149.559 121.479 156.215 117.634 161.334 112.503C166.711 107.113 169.691 100.456 169.26 92.8809C169.003 88.3738 167.95 83.9501 167.366 79.4798C166.849 75.5204 166.538 71.5396 166.181 67.5642L166.049 66.1343C165.291 58.0349 164.202 49.7133 160.423 42.3613C157.245 36.1761 152.592 30.6735 146.996 26.4239C141.138 21.9749 134.14 18.8633 126.798 17.7027C118.165 16.338 109.9 18.8196 102.698 23.4394C96.3109 27.5365 90.8195 33.0117 86.6087 39.2241C84.5668 42.2363 82.8273 45.4532 81.3252 48.7522C79.9097 51.8604 78.9338 55.1181 77.7954 58.3219C78.7321 58.2947 79.6844 58.3298 80.6514 58.434C85.6112 58.9701 90.2323 61.4771 93.1741 65.4302C96.7692 70.2607 95.7974 76.1903 97.2016 81.6839C97.3103 82.1103 97.1255 82.5277 96.751 82.7636C94.622 84.1057 91.7725 84.1504 89.7119 82.6391C87.9234 81.3276 87.0838 78.9563 87.8079 76.8844C87.9024 76.6143 88.3056 76.6621 88.3169 76.9517C88.453 80.4776 91.807 83.1928 95.0947 81.515C93.6844 76.7779 94.4267 71.4873 91.5422 67.2084C86.4369 59.6355 75.8719 59.3225 68.4514 63.5916C64.5462 65.838 61.4551 69.2158 59.1533 72.994L58.4902 74.0908C57.6079 75.5563 56.6735 77.2142 56.4905 78.828C56.3849 79.7593 56.7373 80.6344 57.8328 80.1652C58.719 79.7858 59.4052 78.9004 59.9316 78.1392C60.8293 76.841 62.8924 77.9626 62.1508 79.345L62.1256 79.3902C61.0464 81.255 60.382 83.31 60.2599 85.4512L60.2289 86.0441C60.2086 86.4762 60.194 87.0904 60.2877 87.1128C60.4001 87.1398 61.181 86.2605 61.311 86.1389C61.9374 85.552 62.5826 85.0725 63.4545 84.9161C64.6008 84.7112 65.7574 86.0945 64.7623 87.0014L64.7208 87.0379C63.8328 87.7908 63.8722 89.2923 64.8532 89.9965C66.2377 90.9902 67.9421 89.3682 68.1431 88.0327L68.1498 87.9833C68.3275 86.5404 70.3823 86.4893 70.4939 87.9833C70.7363 91.2256 66.7785 93.9431 63.7672 92.3074C62.5765 91.661 61.8195 90.4773 61.5824 89.2086C61.2023 89.4045 60.7922 89.5403 60.3588 89.5778C58.9475 89.6997 57.9441 88.7319 57.7159 87.4329C57.4501 85.9196 57.6078 84.2993 58.0165 82.7277C57.2501 82.9079 56.4439 82.8391 55.6335 82.3829C53.1817 81.0031 53.8858 77.9338 54.8115 75.8617C58.7635 67.0169 66.9512 58.9914 77.095 58.3542C77.1506 56.7937 77.3674 55.3183 77.7222 53.7557C81.1918 38.4714 92.4316 24.3184 107.064 17.7034C110.974 15.9357 115.121 14.7466 119.432 14.4496ZM81.059 75.5048L81.198 75.4742C82.7789 75.142 86.9392 74.7517 86.4378 77.3464C86.4141 77.4684 86.2322 77.4535 86.1998 77.3464C85.7087 75.715 82.3723 77.0196 81.3982 77.4124C80.0554 77.9536 78.7307 78.7519 77.6342 79.6799C75.2335 81.7121 73.6243 84.5759 73.3795 87.6863C73.1368 90.7717 74.0546 94.1043 76.3366 96.3361C77.4552 97.43 78.8831 98.1727 80.487 98.2273C81.9281 98.2761 83.5202 97.182 84.8499 97.8228C85.112 97.9491 85.3197 98.2959 85.296 98.5813C85.2513 99.1217 85.0033 99.5425 84.6343 99.8688C86.8605 103.825 88.6824 108.013 91.5221 111.612C92.947 113.417 94.5618 115.088 96.3903 116.511C97.2594 117.188 98.2042 117.782 99.1786 118.303C100.32 118.916 101.308 119.299 102.123 120.336C102.818 121.22 102.123 122.93 100.978 123.083C98.2801 123.441 95.6586 121.314 93.6782 119.721C91.6997 118.128 89.9897 116.165 88.5766 114.081C85.8629 110.079 84.0066 105.359 83.2643 100.583C82.4026 100.85 81.4324 100.931 80.7026 100.933C78.7607 100.937 76.9064 100.256 75.3804 99.1045C69.7936 94.8901 69.1727 86.2371 73.1152 80.7805C75.0019 78.1695 77.8687 76.2403 81.059 75.5048ZM81.094 85.5407C82.3895 85.4298 83.6839 85.6292 84.9015 86.06L85.4034 86.2375C86.4637 86.6156 87.5923 87.0602 88.3581 87.8354C89.528 89.0204 88.3631 91.0736 86.6965 90.6194C84.8538 90.1173 83.3562 88.6037 81.514 87.9689C79.8674 87.4016 78.0024 87.4819 76.5411 88.459C76.3482 88.5881 76.0944 88.3334 76.2205 88.146C77.3383 86.4859 79.1031 85.7109 81.094 85.5407Z" fill="#0C0C0C"/>
<path fill-rule="evenodd" clip-rule="evenodd" d="M125.639 95.619C130.151 95.0849 134.524 96.4321 138.935 97.1112C141.264 97.4696 143.595 97.7372 145.952 97.8367C146.426 97.8569 146.9 97.8686 147.375 97.8781C147.419 97.4709 147.653 97.0969 148.159 96.8729C149.197 96.414 150.028 96.207 151.167 96.2513C152.21 96.2914 153.257 96.3961 154.284 96.5795C156.15 96.913 158.023 97.6699 159.388 98.9849C162.545 102.028 162.065 106.915 159.625 110.23C154.584 117.078 145.384 117.396 137.504 117.306L136.777 117.297C129.602 117.197 119.337 118.241 116.078 110.279C114.879 107.351 115.045 103.958 116.513 101.15C118.264 97.8003 121.948 96.0559 125.639 95.619ZM148.05 107.022L147.986 107.024C144.678 107.149 141.371 107.236 138.061 107.293C138.16 108.122 138.261 108.951 138.377 109.779C138.467 110.43 138.564 111.08 138.665 111.729C138.708 112.004 138.865 112.431 138.821 112.703L138.805 112.811V112.811C138.975 112.886 139.129 113.007 139.244 113.182C139.284 113.243 139.313 113.304 139.341 113.365C141.911 113.384 144.676 113.336 147.296 112.88L147.301 112.825V112.825C147.349 112.498 147.488 112.279 147.673 112.128C147.857 111.087 147.84 109.978 147.911 108.945C147.956 108.304 148.004 107.663 148.05 107.022ZM135.533 107.337C133.149 107.377 130.763 107.407 128.38 107.379L127.297 107.362V107.362C127.526 108.558 127.775 109.75 127.981 110.954C128.197 112.208 127.065 113.006 126.085 112.974C126.195 112.991 126.305 113.009 126.415 113.025C129.476 113.447 132.655 113.335 135.762 113.331C135.595 112.38 135.663 111.306 135.638 110.512L135.633 110.389C135.585 109.371 135.552 108.354 135.533 107.337ZM119.338 107.118C119.42 107.739 119.581 108.348 119.822 108.915C120.84 111.308 123.173 112.425 125.642 112.896C125.214 112.751 124.874 112.405 124.788 111.811C124.574 110.335 124.497 108.834 124.491 107.335C122.77 107.32 121.038 107.284 119.338 107.118ZM157.023 106.607C155.798 106.888 154.374 106.759 153.172 106.812C152.047 106.862 150.92 106.906 149.794 106.95C149.847 107.7 149.899 108.45 149.955 109.199C150.028 110.167 150.034 111.191 150.225 112.155C152.491 111.401 154.521 110.191 156.044 108.257C156.424 107.775 156.764 107.209 157.023 106.607ZM125.121 99.5463C123.082 100.017 121.152 101.012 120.115 102.832C119.499 103.912 119.229 105.192 119.281 106.453C121.004 106.257 122.757 106.183 124.502 106.122C124.508 105.815 124.515 105.509 124.525 105.204L124.551 104.421C124.599 102.928 124.623 101.053 125.121 99.5463ZM135.676 99.7285L134.778 99.6301C132.285 99.353 129.793 99.0622 127.299 99.2289C126.938 99.2532 126.572 99.2916 126.205 99.344C126.646 100.895 126.609 102.717 126.793 104.252C126.864 104.846 126.954 105.435 127.053 106.021L127.486 106.002V106.002C130.161 105.86 132.839 105.773 135.517 105.67C135.517 105.179 135.519 104.689 135.528 104.198L135.537 103.707C135.568 102.453 135.485 101.041 135.676 99.7285ZM148.196 99.5295C145.585 99.9405 142.886 100.028 140.321 100.031C139.296 100.032 138.272 99.9709 137.249 99.8824C137.315 100.414 137.35 100.952 137.4 101.476C137.501 102.535 137.617 103.592 137.742 104.649L137.854 105.573V105.573C141.145 105.428 144.436 105.271 147.726 105.108L148.191 105.083V105.083L148.321 103.307C148.409 102.122 148.507 100.937 148.645 99.7581L148.541 99.7218V99.7218C148.42 99.6732 148.305 99.6062 148.196 99.5295ZM149.33 99.9704C149.474 101.646 149.554 103.328 149.659 105.006L151.829 104.893C152.19 104.873 152.551 104.854 152.913 104.833C154.319 104.754 156.125 104.339 157.514 104.727C157.62 103.494 157.259 102.294 156.119 101.466C154.118 100.012 151.569 100.53 149.33 99.9704ZM141.919 84.9955C145.149 83.1914 153.253 81.3474 153.767 87.0169C154.003 89.6258 152.014 91.7876 149.692 92.7522L149.605 92.7878C147.427 93.6611 143.566 94.6474 141.681 92.7536C140.113 91.1774 142.193 88.3513 144.143 89.6425C145.144 90.3059 147.253 89.8171 148.371 89.5015L148.441 89.4816C149.647 89.1358 151.255 88.0291 150.756 86.5805C150.315 85.299 148.437 85.0649 147.261 85.0233C145.505 84.9619 143.796 85.3596 142.056 85.4889C141.781 85.5095 141.696 85.1203 141.919 84.9955ZM155.299 75.879C159.683 75.6788 162.41 80.3473 161.402 84.1726C161.228 84.8326 160.471 85.4806 159.74 85.4064L159.556 85.3898C159.462 85.3811 159.368 85.3695 159.282 85.3463C158.588 85.1589 157.966 84.455 158.017 83.7254L158.03 83.5128C158.133 81.7058 157.932 79.6239 155.73 79.1862C153.862 78.815 152.82 80.5681 152.798 82.1818C152.794 82.4683 152.464 82.6683 152.204 82.5142C150.854 81.7131 150.62 80.1191 151.136 78.7465C151.789 77.0073 153.425 75.9645 155.299 75.879ZM122.766 76.8803C125.957 75.8422 129.399 77.5008 130.943 80.2517C131.485 80.4047 132.026 80.8121 131.951 81.4359C131.842 82.3334 131.679 82.8992 131.041 83.5797C130.043 84.6443 128.174 84.1 127.759 82.7894L127.741 82.7302C127.27 81.0362 125.358 79.9185 123.617 80.5115C121.582 81.2041 121.641 83.2999 120.214 84.5208C120.046 84.6643 119.845 84.6872 119.644 84.5924C118.128 83.878 118.401 81.7278 118.941 80.4971C119.65 78.8821 121.028 77.4458 122.766 76.8803ZM118.422 67.4315C121.007 64.8587 127.748 62.3691 129.516 67.1201C129.853 68.025 129.136 69.2451 128.17 69.4328C126.588 69.7398 125.185 69.07 123.613 69.1902C122.341 69.288 121.015 69.7026 119.998 70.4712C117.181 72.5998 116.561 76.2002 114.599 78.9095C114.503 79.0415 114.317 78.986 114.3 78.8305C113.853 74.8861 115.59 70.2491 118.422 67.4315ZM152.137 64.8988C153.852 64.3078 155.795 64.3584 157.519 64.8826C159.256 65.4109 160.851 66.4141 162.08 67.7249C162.637 68.32 163.153 68.9766 163.567 69.6756C163.787 70.0461 164.018 70.8113 164.268 71.267C165.619 72.028 166.197 73.7621 164.987 74.9958L164.932 75.0499L164.77 75.2065C164.12 75.8344 163.139 76.1065 162.251 75.8557C160.265 75.2951 160.023 73.7689 159.336 72.1491C158.881 71.0791 158.103 70.1323 157.16 69.4369C154.929 67.794 151.273 67.2705 148.588 68.0448C148.445 68.0861 148.277 67.9084 148.379 67.7796C148.888 67.1368 149.181 66.6092 149.862 66.0907C150.553 65.5644 151.308 65.1842 152.137 64.8988Z" fill="#0C0C0C"/>
<path fill-rule="evenodd" clip-rule="evenodd" d="M159.867 46.5642C161.389 46.0556 162.602 47.5987 162.31 48.9436C161.965 50.5275 160.27 51.7988 159.146 52.9152C157.967 54.091 156.764 55.2436 155.517 56.3526C153.135 58.4733 150.666 60.4702 148.063 62.3314L147.267 62.9002C144.881 64.603 142.502 66.2663 139.946 67.7403C138.561 68.5361 137.164 69.3062 135.748 70.0481C135.242 70.3125 134.626 70.7205 133.992 71.0236C136.311 72.7693 138.095 75.4339 138.482 77.9163C139.44 84.0825 135.366 89.7969 129.617 92.0688C126.751 93.2009 123.561 93.5295 120.498 93.1881C117.381 92.8413 114.223 91.9428 112.199 89.453C110.401 87.2427 109.754 84.4217 109.625 81.6515C109.564 80.3371 109.577 79.043 109.862 77.8804C108.622 77.8907 107.382 77.8855 106.153 77.8984C103.116 77.9266 100.073 77.9397 97.0331 77.8573C93.8983 77.77 90.7794 77.634 87.6551 77.3621C86.2839 77.2412 84.9205 77.0435 83.5568 76.8536C82.2332 76.6713 80.7724 76.602 79.5353 76.0732C79.4511 76.0398 79.486 75.9217 79.559 75.8983C80.8777 75.4827 82.3753 75.5569 83.7492 75.475L85.0883 75.3958C86.2037 75.3308 87.3182 75.271 88.4369 75.236C91.0208 75.1531 93.6028 75.1327 96.1863 75.0896L97.2936 75.0694C100.334 75.0104 103.374 74.977 106.414 74.882C107.674 74.8435 108.938 74.7716 110.204 74.7049C110.351 74.3786 110.567 74.0808 110.775 73.791C111.396 72.9233 112.186 72.1583 113.004 71.4652C114.681 70.0376 116.568 68.9777 118.674 68.2666C120.76 67.5643 123.812 67.2159 126.019 67.2612C128.227 67.3066 131.373 67.6102 132.384 69.3704C132.489 69.5527 134.413 69.201 134.984 68.7746C136.319 67.7814 137.629 66.7597 138.916 65.7123C141.306 63.7638 143.764 61.8462 146.028 59.7617C148.363 57.6105 150.679 55.4233 152.9 53.1642C154.016 52.0321 155.13 50.8975 156.212 49.7371C157.317 48.5537 158.267 47.0956 159.867 46.5642Z" fill="#0C0C0C"/>
</svg>
