<svg width="182" height="286" viewBox="0 0 182 286" fill="none" xmlns="http://www.w3.org/2000/svg">
<path d="M37 101C35.32 101 34 99.68 34 98C34 96.32 35.32 95 37 95C38.68 95 40 96.32 40 98C40 99.68 38.68 101 37 101ZM31 107C29.32 107 28 105.68 28 104C28 102.32 29.32 101 31 101C32.68 101 34 102.32 34 104C34 105.68 32.68 107 31 107ZM37 107C35.32 107 34 105.68 34 104C34 102.32 35.32 101 37 101C38.68 101 40 102.32 40 104C40 105.68 38.68 107 37 107ZM25 113C23.32 113 22 111.68 22 110C22 108.32 23.32 107 25 107C26.68 107 28 108.32 28 110C28 111.68 26.68 113 25 113ZM37 113C35.32 113 34 111.68 34 110C34 108.32 35.32 107 37 107C38.68 107 40 108.32 40 110C40 111.68 38.68 113 37 113ZM55 113C53.32 113 52 111.68 52 110C52 108.32 53.32 107 55 107C56.68 107 58 108.32 58 110C58 111.68 56.68 113 55 113ZM49 113C47.32 113 46 111.68 46 110C46 108.32 47.32 107 49 107C50.68 107 52 108.32 52 110C52 111.68 50.68 113 49 113ZM43 113C41.32 113 40 111.68 40 110C40 108.32 41.32 107 43 107C44.68 107 46 108.32 46 110C46 111.68 44.68 113 43 113ZM31 113C29.32 113 28 111.68 28 110C28 108.32 29.32 107 31 107C32.68 107 34 108.32 34 110C34 111.68 32.68 113 31 113ZM19 119C17.32 119 16 117.68 16 116C16 114.32 17.32 113 19 113C20.68 113 22 114.32 22 116C22 117.68 20.68 119 19 119ZM37 119C35.32 119 34 117.68 34 116C34 114.32 35.32 113 37 113C38.68 113 40 114.32 40 116C40 117.68 38.68 119 37 119ZM49 119C47.32 119 46 117.68 46 116C46 114.32 47.32 113 49 113C50.68 113 52 114.32 52 116C52 117.68 50.68 119 49 119ZM43 119C41.32 119 40 117.68 40 116C40 114.32 41.32 113 43 113C44.68 113 46 114.32 46 116C46 117.68 44.68 119 43 119ZM25 119C23.32 119 22 117.68 22 116C22 114.32 23.32 113 25 113C26.68 113 28 114.32 28 116C28 117.68 26.68 119 25 119ZM31 119C29.32 119 28 117.68 28 116C28 114.32 29.32 113 31 113C32.68 113 34 114.32 34 116C34 117.68 32.68 119 31 119ZM37 125C35.32 125 34 123.68 34 122C34 120.32 35.32 119 37 119C38.68 119 40 120.32 40 122C40 123.68 38.68 125 37 125ZM31 125C29.32 125 28 123.68 28 122C28 120.32 29.32 119 31 119C32.68 119 34 120.32 34 122C34 123.68 32.68 125 31 125ZM37 131C35.32 131 34 129.68 34 128C34 126.32 35.32 125 37 125C38.68 125 40 126.32 40 128C40 129.68 38.68 131 37 131ZM31 131C29.32 131 28 129.68 28 128C28 126.32 29.32 125 31 125C32.68 125 34 126.32 34 128C34 129.68 32.68 131 31 131ZM31 137C29.32 137 28 135.68 28 134C28 132.32 29.32 131 31 131C32.68 131 34 132.32 34 134C34 135.68 32.68 137 31 137ZM37 137C35.32 137 34 135.68 34 134C34 132.32 35.32 131 37 131C38.68 131 40 132.32 40 134C40 135.68 38.68 137 37 137ZM31 143C29.32 143 28 141.68 28 140C28 138.32 29.32 137 31 137C32.68 137 34 138.32 34 140C34 141.68 32.68 143 31 143ZM37 143C35.32 143 34 141.68 34 140C34 138.32 35.32 137 37 137C38.68 137 40 138.32 40 140C40 141.68 38.68 143 37 143ZM31 149C29.32 149 28 147.68 28 146C28 144.32 29.32 143 31 143C32.68 143 34 144.32 34 146C34 147.68 32.68 149 31 149ZM37 149C35.32 149 34 147.68 34 146C34 144.32 35.32 143 37 143C38.68 143 40 144.32 40 146C40 147.68 38.68 149 37 149ZM43 149C41.32 149 40 147.68 40 146C40 144.32 41.32 143 43 143C44.68 143 46 144.32 46 146C46 147.68 44.68 149 43 149ZM49 149C47.32 149 46 147.68 46 146C46 144.32 47.32 143 49 143C50.68 143 52 144.32 52 146C52 147.68 50.68 149 49 149ZM55 149C53.32 149 52 147.68 52 146C52 144.32 53.32 143 55 143C56.68 143 58 144.32 58 146C58 147.68 56.68 149 55 149ZM37 155C35.32 155 34 153.68 34 152C34 150.32 35.32 149 37 149C38.68 149 40 150.32 40 152C40 153.68 38.68 155 37 155ZM43 155C41.32 155 40 153.68 40 152C40 150.32 41.32 149 43 149C44.68 149 46 150.32 46 152C46 153.68 44.68 155 43 155ZM49 155C47.32 155 46 153.68 46 152C46 150.32 47.32 149 49 149C50.68 149 52 150.32 52 152C52 153.68 50.68 155 49 155ZM73 113C71.32 113 70 111.68 70 110C70 108.32 71.32 107 73 107C74.68 107 76 108.32 76 110C76 111.68 74.68 113 73 113ZM79 113C77.32 113 76 111.68 76 110C76 108.32 77.32 107 79 107C80.68 107 82 108.32 82 110C82 111.68 80.68 113 79 113ZM85 113C83.32 113 82 111.68 82 110C82 108.32 83.32 107 85 107C86.68 107 88 108.32 88 110C88 111.68 86.68 113 85 113ZM91 113C89.32 113 88 111.68 88 110C88 108.32 89.32 107 91 107C92.68 107 94 108.32 94 110C94 111.68 92.68 113 91 113ZM97 113C95.32 113 94 111.68 94 110C94 108.32 95.32 107 97 107C98.68 107 100 108.32 100 110C100 111.68 98.68 113 97 113ZM73 119C71.32 119 70 117.68 70 116C70 114.32 71.32 113 73 113C74.68 113 76 114.32 76 116C76 117.68 74.68 119 73 119ZM67 119C65.32 119 64 117.68 64 116C64 114.32 65.32 113 67 113C68.68 113 70 114.32 70 116C70 117.68 68.68 119 67 119ZM97 119C95.32 119 94 117.68 94 116C94 114.32 95.32 113 97 113C98.68 113 100 114.32 100 116C100 117.68 98.68 119 97 119ZM103 119C101.32 119 100 117.68 100 116C100 114.32 101.32 113 103 113C104.68 113 106 114.32 106 116C106 117.68 104.68 119 103 119ZM79 119C77.32 119 76 117.68 76 116C76 114.32 77.32 113 79 113C80.68 113 82 114.32 82 116C82 117.68 80.68 119 79 119ZM91 119C89.32 119 88 117.68 88 116C88 114.32 89.32 113 91 113C92.68 113 94 114.32 94 116C94 117.68 92.68 119 91 119ZM85 119C83.32 119 82 117.68 82 116C82 114.32 83.32 113 85 113C86.68 113 88 114.32 88 116C88 117.68 86.68 119 85 119ZM97 125C95.32 125 94 123.68 94 122C94 120.32 95.32 119 97 119C98.68 119 100 120.32 100 122C100 123.68 98.68 125 97 125ZM103 125C101.32 125 100 123.68 100 122C100 120.32 101.32 119 103 119C104.68 119 106 120.32 106 122C106 123.68 104.68 125 103 125ZM79 131C77.32 131 76 129.68 76 128C76 126.32 77.32 125 79 125C80.68 125 82 126.32 82 128C82 129.68 80.68 131 79 131ZM97 131C95.32 131 94 129.68 94 128C94 126.32 95.32 125 97 125C98.68 125 100 126.32 100 128C100 129.68 98.68 131 97 131ZM103 131C101.32 131 100 129.68 100 128C100 126.32 101.32 125 103 125C104.68 125 106 126.32 106 128C106 129.68 104.68 131 103 131ZM91 131C89.32 131 88 129.68 88 128C88 126.32 89.32 125 91 125C92.68 125 94 126.32 94 128C94 129.68 92.68 131 91 131ZM85 131C83.32 131 82 129.68 82 128C82 126.32 83.32 125 85 125C86.68 125 88 126.32 88 128C88 129.68 86.68 131 85 131ZM79 137C77.32 137 76 135.68 76 134C76 132.32 77.32 131 79 131C80.68 131 82 132.32 82 134C82 135.68 80.68 137 79 137ZM85 137C83.32 137 82 135.68 82 134C82 132.32 83.32 131 85 131C86.68 131 88 132.32 88 134C88 135.68 86.68 137 85 137ZM91 137C89.32 137 88 135.68 88 134C88 132.32 89.32 131 91 131C92.68 131 94 132.32 94 134C94 135.68 92.68 137 91 137ZM103 137C101.32 137 100 135.68 100 134C100 132.32 101.32 131 103 131C104.68 131 106 132.32 106 134C106 135.68 104.68 137 103 137ZM97 137C95.32 137 94 135.68 94 134C94 132.32 95.32 131 97 131C98.68 131 100 132.32 100 134C100 135.68 98.68 137 97 137ZM73 137C71.32 137 70 135.68 70 134C70 132.32 71.32 131 73 131C74.68 131 76 132.32 76 134C76 135.68 74.68 137 73 137ZM67 137C65.32 137 64 135.68 64 134C64 132.32 65.32 131 67 131C68.68 131 70 132.32 70 134C70 135.68 68.68 137 67 137ZM97 143C95.32 143 94 141.68 94 140C94 138.32 95.32 137 97 137C98.68 137 100 138.32 100 140C100 141.68 98.68 143 97 143ZM103 143C101.32 143 100 141.68 100 140C100 138.32 101.32 137 103 137C104.68 137 106 138.32 106 140C106 141.68 104.68 143 103 143ZM73 143C71.32 143 70 141.68 70 140C70 138.32 71.32 137 73 137C74.68 137 76 138.32 76 140C76 141.68 74.68 143 73 143ZM67 143C65.32 143 64 141.68 64 140C64 138.32 65.32 137 67 137C68.68 137 70 138.32 70 140C70 141.68 68.68 143 67 143ZM85 149C83.32 149 82 147.68 82 146C82 144.32 83.32 143 85 143C86.68 143 88 144.32 88 146C88 147.68 86.68 149 85 149ZM67 149C65.32 149 64 147.68 64 146C64 144.32 65.32 143 67 143C68.68 143 70 144.32 70 146C70 147.68 68.68 149 67 149ZM79 149C77.32 149 76 147.68 76 146C76 144.32 77.32 143 79 143C80.68 143 82 144.32 82 146C82 147.68 80.68 149 79 149ZM103 149C101.32 149 100 147.68 100 146C100 144.32 101.32 143 103 143C104.68 143 106 144.32 106 146C106 147.68 104.68 149 103 149ZM97 149C95.32 149 94 147.68 94 146C94 144.32 95.32 143 97 143C98.68 143 100 144.32 100 146C100 147.68 98.68 149 97 149ZM73 149C71.32 149 70 147.68 70 146C70 144.32 71.32 143 73 143C74.68 143 76 144.32 76 146C76 147.68 74.68 149 73 149ZM91 149C89.32 149 88 147.68 88 146C88 144.32 89.32 143 91 143C92.68 143 94 144.32 94 146C94 147.68 92.68 149 91 149ZM85 155C83.32 155 82 153.68 82 152C82 150.32 83.32 149 85 149C86.68 149 88 150.32 88 152C88 153.68 86.68 155 85 155ZM97 155C95.32 155 94 153.68 94 152C94 150.32 95.32 149 97 149C98.68 149 100 150.32 100 152C100 153.68 98.68 155 97 155ZM103 155C101.32 155 100 153.68 100 152C100 150.32 101.32 149 103 149C104.68 149 106 150.32 106 152C106 153.68 104.68 155 103 155ZM79 155C77.32 155 76 153.68 76 152C76 150.32 77.32 149 79 149C80.68 149 82 150.32 82 152C82 153.68 80.68 155 79 155ZM73 155C71.32 155 70 153.68 70 152C70 150.32 71.32 149 73 149C74.68 149 76 150.32 76 152C76 153.68 74.68 155 73 155ZM133 113C131.32 113 130 111.68 130 110C130 108.32 131.32 107 133 107C134.68 107 136 108.32 136 110C136 111.68 134.68 113 133 113ZM139 113C137.32 113 136 111.68 136 110C136 108.32 137.32 107 139 107C140.68 107 142 108.32 142 110C142 111.68 140.68 113 139 113ZM145 113C143.32 113 142 111.68 142 110C142 108.32 143.32 107 145 107C146.68 107 148 108.32 148 110C148 111.68 146.68 113 145 113ZM151 113C149.32 113 148 111.68 148 110C148 108.32 149.32 107 151 107C152.68 107 154 108.32 154 110C154 111.68 152.68 113 151 113ZM151 119C149.32 119 148 117.68 148 116C148 114.32 149.32 113 151 113C152.68 113 154 114.32 154 116C154 117.68 152.68 119 151 119ZM157 119C155.32 119 154 117.68 154 116C154 114.32 155.32 113 157 113C158.68 113 160 114.32 160 116C160 117.68 158.68 119 157 119ZM145 119C143.32 119 142 117.68 142 116C142 114.32 143.32 113 145 113C146.68 113 148 114.32 148 116C148 117.68 146.68 119 145 119ZM139 119C137.32 119 136 117.68 136 116C136 114.32 137.32 113 139 113C140.68 113 142 114.32 142 116C142 117.68 140.68 119 139 119ZM133 119C131.32 119 130 117.68 130 116C130 114.32 131.32 113 133 113C134.68 113 136 114.32 136 116C136 117.68 134.68 119 133 119ZM127 119C125.32 119 124 117.68 124 116C124 114.32 125.32 113 127 113C128.68 113 130 114.32 130 116C130 117.68 128.68 119 127 119ZM127 125C125.32 125 124 123.68 124 122C124 120.32 125.32 119 127 119C128.68 119 130 120.32 130 122C130 123.68 128.68 125 127 125ZM121 125C119.32 125 118 123.68 118 122C118 120.32 119.32 119 121 119C122.68 119 124 120.32 124 122C124 123.68 122.68 125 121 125ZM157 125C155.32 125 154 123.68 154 122C154 120.32 155.32 119 157 119C158.68 119 160 120.32 160 122C160 123.68 158.68 125 157 125ZM151 125C149.32 125 148 123.68 148 122C148 120.32 149.32 119 151 119C152.68 119 154 120.32 154 122C154 123.68 152.68 125 151 125ZM133 125C131.32 125 130 123.68 130 122C130 120.32 131.32 119 133 119C134.68 119 136 120.32 136 122C136 123.68 134.68 125 133 125ZM127 131C125.32 131 124 129.68 124 128C124 126.32 125.32 125 127 125C128.68 125 130 126.32 130 128C130 129.68 128.68 131 127 131ZM121 131C119.32 131 118 129.68 118 128C118 126.32 119.32 125 121 125C122.68 125 124 126.32 124 128C124 129.68 122.68 131 121 131ZM127 137C125.32 137 124 135.68 124 134C124 132.32 125.32 131 127 131C128.68 131 130 132.32 130 134C130 135.68 128.68 137 127 137ZM121 137C119.32 137 118 135.68 118 134C118 132.32 119.32 131 121 131C122.68 131 124 132.32 124 134C124 135.68 122.68 137 121 137ZM157 143C155.32 143 154 141.68 154 140C154 138.32 155.32 137 157 137C158.68 137 160 138.32 160 140C160 141.68 158.68 143 157 143ZM127 143C125.32 143 124 141.68 124 140C124 138.32 125.32 137 127 137C128.68 137 130 138.32 130 140C130 141.68 128.68 143 127 143ZM121 143C119.32 143 118 141.68 118 140C118 138.32 119.32 137 121 137C122.68 137 124 138.32 124 140C124 141.68 122.68 143 121 143ZM151 143C149.32 143 148 141.68 148 140C148 138.32 149.32 137 151 137C152.68 137 154 138.32 154 140C154 141.68 152.68 143 151 143ZM133 143C131.32 143 130 141.68 130 140C130 138.32 131.32 137 133 137C134.68 137 136 138.32 136 140C136 141.68 134.68 143 133 143ZM133 149C131.32 149 130 147.68 130 146C130 144.32 131.32 143 133 143C134.68 143 136 144.32 136 146C136 147.68 134.68 149 133 149ZM151 149C149.32 149 148 147.68 148 146C148 144.32 149.32 143 151 143C152.68 143 154 144.32 154 146C154 147.68 152.68 149 151 149ZM139 149C137.32 149 136 147.68 136 146C136 144.32 137.32 143 139 143C140.68 143 142 144.32 142 146C142 147.68 140.68 149 139 149ZM157 149C155.32 149 154 147.68 154 146C154 144.32 155.32 143 157 143C158.68 143 160 144.32 160 146C160 147.68 158.68 149 157 149ZM145 149C143.32 149 142 147.68 142 146C142 144.32 143.32 143 145 143C146.68 143 148 144.32 148 146C148 147.68 146.68 149 145 149ZM127 149C125.32 149 124 147.68 124 146C124 144.32 125.32 143 127 143C128.68 143 130 144.32 130 146C130 147.68 128.68 149 127 149ZM133 155C131.32 155 130 153.68 130 152C130 150.32 131.32 149 133 149C134.68 149 136 150.32 136 152C136 153.68 134.68 155 133 155ZM139 155C137.32 155 136 153.68 136 152C136 150.32 137.32 149 139 149C140.68 149 142 150.32 142 152C142 153.68 140.68 155 139 155ZM151 155C149.32 155 148 153.68 148 152C148 150.32 149.32 149 151 149C152.68 149 154 150.32 154 152C154 153.68 152.68 155 151 155ZM145 155C143.32 155 142 153.68 142 152C142 150.32 143.32 149 145 149C146.68 149 148 150.32 148 152C148 153.68 146.68 155 145 155Z" fill="#EEEEEE"/>
<path d="M60.625 27.25C59.295 27.25 58.25 26.205 58.25 24.875C58.25 23.545 59.295 22.5 60.625 22.5C61.955 22.5 63 23.545 63 24.875C63 26.205 61.955 27.25 60.625 27.25ZM55.875 32C54.545 32 53.5 30.955 53.5 29.625C53.5 28.295 54.545 27.25 55.875 27.25C57.205 27.25 58.25 28.295 58.25 29.625C58.25 30.955 57.205 32 55.875 32ZM60.625 32C59.295 32 58.25 30.955 58.25 29.625C58.25 28.295 59.295 27.25 60.625 27.25C61.955 27.25 63 28.295 63 29.625C63 30.955 61.955 32 60.625 32ZM51.125 36.75C49.795 36.75 48.75 35.705 48.75 34.375C48.75 33.045 49.795 32 51.125 32C52.455 32 53.5 33.045 53.5 34.375C53.5 35.705 52.455 36.75 51.125 36.75ZM60.625 36.75C59.295 36.75 58.25 35.705 58.25 34.375C58.25 33.045 59.295 32 60.625 32C61.955 32 63 33.045 63 34.375C63 35.705 61.955 36.75 60.625 36.75ZM74.875 36.75C73.545 36.75 72.5 35.705 72.5 34.375C72.5 33.045 73.545 32 74.875 32C76.205 32 77.25 33.045 77.25 34.375C77.25 35.705 76.205 36.75 74.875 36.75ZM70.125 36.75C68.795 36.75 67.75 35.705 67.75 34.375C67.75 33.045 68.795 32 70.125 32C71.455 32 72.5 33.045 72.5 34.375C72.5 35.705 71.455 36.75 70.125 36.75ZM65.375 36.75C64.045 36.75 63 35.705 63 34.375C63 33.045 64.045 32 65.375 32C66.705 32 67.75 33.045 67.75 34.375C67.75 35.705 66.705 36.75 65.375 36.75ZM55.875 36.75C54.545 36.75 53.5 35.705 53.5 34.375C53.5 33.045 54.545 32 55.875 32C57.205 32 58.25 33.045 58.25 34.375C58.25 35.705 57.205 36.75 55.875 36.75ZM46.375 41.5C45.045 41.5 44 40.455 44 39.125C44 37.795 45.045 36.75 46.375 36.75C47.705 36.75 48.75 37.795 48.75 39.125C48.75 40.455 47.705 41.5 46.375 41.5ZM60.625 41.5C59.295 41.5 58.25 40.455 58.25 39.125C58.25 37.795 59.295 36.75 60.625 36.75C61.955 36.75 63 37.795 63 39.125C63 40.455 61.955 41.5 60.625 41.5ZM70.125 41.5C68.795 41.5 67.75 40.455 67.75 39.125C67.75 37.795 68.795 36.75 70.125 36.75C71.455 36.75 72.5 37.795 72.5 39.125C72.5 40.455 71.455 41.5 70.125 41.5ZM65.375 41.5C64.045 41.5 63 40.455 63 39.125C63 37.795 64.045 36.75 65.375 36.75C66.705 36.75 67.75 37.795 67.75 39.125C67.75 40.455 66.705 41.5 65.375 41.5ZM51.125 41.5C49.795 41.5 48.75 40.455 48.75 39.125C48.75 37.795 49.795 36.75 51.125 36.75C52.455 36.75 53.5 37.795 53.5 39.125C53.5 40.455 52.455 41.5 51.125 41.5ZM55.875 41.5C54.545 41.5 53.5 40.455 53.5 39.125C53.5 37.795 54.545 36.75 55.875 36.75C57.205 36.75 58.25 37.795 58.25 39.125C58.25 40.455 57.205 41.5 55.875 41.5ZM60.625 46.25C59.295 46.25 58.25 45.205 58.25 43.875C58.25 42.545 59.295 41.5 60.625 41.5C61.955 41.5 63 42.545 63 43.875C63 45.205 61.955 46.25 60.625 46.25ZM55.875 46.25C54.545 46.25 53.5 45.205 53.5 43.875C53.5 42.545 54.545 41.5 55.875 41.5C57.205 41.5 58.25 42.545 58.25 43.875C58.25 45.205 57.205 46.25 55.875 46.25ZM60.625 51C59.295 51 58.25 49.955 58.25 48.625C58.25 47.295 59.295 46.25 60.625 46.25C61.955 46.25 63 47.295 63 48.625C63 49.955 61.955 51 60.625 51ZM55.875 51C54.545 51 53.5 49.955 53.5 48.625C53.5 47.295 54.545 46.25 55.875 46.25C57.205 46.25 58.25 47.295 58.25 48.625C58.25 49.955 57.205 51 55.875 51ZM55.875 55.75C54.545 55.75 53.5 54.705 53.5 53.375C53.5 52.045 54.545 51 55.875 51C57.205 51 58.25 52.045 58.25 53.375C58.25 54.705 57.205 55.75 55.875 55.75ZM60.625 55.75C59.295 55.75 58.25 54.705 58.25 53.375C58.25 52.045 59.295 51 60.625 51C61.955 51 63 52.045 63 53.375C63 54.705 61.955 55.75 60.625 55.75ZM55.875 60.5C54.545 60.5 53.5 59.455 53.5 58.125C53.5 56.795 54.545 55.75 55.875 55.75C57.205 55.75 58.25 56.795 58.25 58.125C58.25 59.455 57.205 60.5 55.875 60.5ZM60.625 60.5C59.295 60.5 58.25 59.455 58.25 58.125C58.25 56.795 59.295 55.75 60.625 55.75C61.955 55.75 63 56.795 63 58.125C63 59.455 61.955 60.5 60.625 60.5ZM55.875 65.25C54.545 65.25 53.5 64.205 53.5 62.875C53.5 61.545 54.545 60.5 55.875 60.5C57.205 60.5 58.25 61.545 58.25 62.875C58.25 64.205 57.205 65.25 55.875 65.25ZM60.625 65.25C59.295 65.25 58.25 64.205 58.25 62.875C58.25 61.545 59.295 60.5 60.625 60.5C61.955 60.5 63 61.545 63 62.875C63 64.205 61.955 65.25 60.625 65.25ZM65.375 65.25C64.045 65.25 63 64.205 63 62.875C63 61.545 64.045 60.5 65.375 60.5C66.705 60.5 67.75 61.545 67.75 62.875C67.75 64.205 66.705 65.25 65.375 65.25ZM70.125 65.25C68.795 65.25 67.75 64.205 67.75 62.875C67.75 61.545 68.795 60.5 70.125 60.5C71.455 60.5 72.5 61.545 72.5 62.875C72.5 64.205 71.455 65.25 70.125 65.25ZM74.875 65.25C73.545 65.25 72.5 64.205 72.5 62.875C72.5 61.545 73.545 60.5 74.875 60.5C76.205 60.5 77.25 61.545 77.25 62.875C77.25 64.205 76.205 65.25 74.875 65.25ZM60.625 70C59.295 70 58.25 68.955 58.25 67.625C58.25 66.295 59.295 65.25 60.625 65.25C61.955 65.25 63 66.295 63 67.625C63 68.955 61.955 70 60.625 70ZM65.375 70C64.045 70 63 68.955 63 67.625C63 66.295 64.045 65.25 65.375 65.25C66.705 65.25 67.75 66.295 67.75 67.625C67.75 68.955 66.705 70 65.375 70ZM70.125 70C68.795 70 67.75 68.955 67.75 67.625C67.75 66.295 68.795 65.25 70.125 65.25C71.455 65.25 72.5 66.295 72.5 67.625C72.5 68.955 71.455 70 70.125 70ZM84.375 22.5C83.045 22.5 82 21.455 82 20.125C82 18.795 83.045 17.75 84.375 17.75C85.705 17.75 86.75 18.795 86.75 20.125C86.75 21.455 85.705 22.5 84.375 22.5ZM89.125 22.5C87.795 22.5 86.75 21.455 86.75 20.125C86.75 18.795 87.795 17.75 89.125 17.75C90.455 17.75 91.5 18.795 91.5 20.125C91.5 21.455 90.455 22.5 89.125 22.5ZM84.375 27.25C83.045 27.25 82 26.205 82 24.875C82 23.545 83.045 22.5 84.375 22.5C85.705 22.5 86.75 23.545 86.75 24.875C86.75 26.205 85.705 27.25 84.375 27.25ZM89.125 27.25C87.795 27.25 86.75 26.205 86.75 24.875C86.75 23.545 87.795 22.5 89.125 22.5C90.455 22.5 91.5 23.545 91.5 24.875C91.5 26.205 90.455 27.25 89.125 27.25ZM84.375 36.75C83.045 36.75 82 35.705 82 34.375C82 33.045 83.045 32 84.375 32C85.705 32 86.75 33.045 86.75 34.375C86.75 35.705 85.705 36.75 84.375 36.75ZM89.125 36.75C87.795 36.75 86.75 35.705 86.75 34.375C86.75 33.045 87.795 32 89.125 32C90.455 32 91.5 33.045 91.5 34.375C91.5 35.705 90.455 36.75 89.125 36.75ZM84.375 41.5C83.045 41.5 82 40.455 82 39.125C82 37.795 83.045 36.75 84.375 36.75C85.705 36.75 86.75 37.795 86.75 39.125C86.75 40.455 85.705 41.5 84.375 41.5ZM89.125 41.5C87.795 41.5 86.75 40.455 86.75 39.125C86.75 37.795 87.795 36.75 89.125 36.75C90.455 36.75 91.5 37.795 91.5 39.125C91.5 40.455 90.455 41.5 89.125 41.5ZM84.375 46.25C83.045 46.25 82 45.205 82 43.875C82 42.545 83.045 41.5 84.375 41.5C85.705 41.5 86.75 42.545 86.75 43.875C86.75 45.205 85.705 46.25 84.375 46.25ZM89.125 46.25C87.795 46.25 86.75 45.205 86.75 43.875C86.75 42.545 87.795 41.5 89.125 41.5C90.455 41.5 91.5 42.545 91.5 43.875C91.5 45.205 90.455 46.25 89.125 46.25ZM84.375 51C83.045 51 82 49.955 82 48.625C82 47.295 83.045 46.25 84.375 46.25C85.705 46.25 86.75 47.295 86.75 48.625C86.75 49.955 85.705 51 84.375 51ZM89.125 51C87.795 51 86.75 49.955 86.75 48.625C86.75 47.295 87.795 46.25 89.125 46.25C90.455 46.25 91.5 47.295 91.5 48.625C91.5 49.955 90.455 51 89.125 51ZM84.375 55.75C83.045 55.75 82 54.705 82 53.375C82 52.045 83.045 51 84.375 51C85.705 51 86.75 52.045 86.75 53.375C86.75 54.705 85.705 55.75 84.375 55.75ZM89.125 55.75C87.795 55.75 86.75 54.705 86.75 53.375C86.75 52.045 87.795 51 89.125 51C90.455 51 91.5 52.045 91.5 53.375C91.5 54.705 90.455 55.75 89.125 55.75ZM84.375 60.5C83.045 60.5 82 59.455 82 58.125C82 56.795 83.045 55.75 84.375 55.75C85.705 55.75 86.75 56.795 86.75 58.125C86.75 59.455 85.705 60.5 84.375 60.5ZM89.125 60.5C87.795 60.5 86.75 59.455 86.75 58.125C86.75 56.795 87.795 55.75 89.125 55.75C90.455 55.75 91.5 56.795 91.5 58.125C91.5 59.455 90.455 60.5 89.125 60.5ZM84.375 65.25C83.045 65.25 82 64.205 82 62.875C82 61.545 83.045 60.5 84.375 60.5C85.705 60.5 86.75 61.545 86.75 62.875C86.75 64.205 85.705 65.25 84.375 65.25ZM89.125 65.25C87.795 65.25 86.75 64.205 86.75 62.875C86.75 61.545 87.795 60.5 89.125 60.5C90.455 60.5 91.5 61.545 91.5 62.875C91.5 64.205 90.455 65.25 89.125 65.25ZM89.125 70C87.795 70 86.75 68.955 86.75 67.625C86.75 66.295 87.795 65.25 89.125 65.25C90.455 65.25 91.5 66.295 91.5 67.625C91.5 68.955 90.455 70 89.125 70ZM84.375 70C83.045 70 82 68.955 82 67.625C82 66.295 83.045 65.25 84.375 65.25C85.705 65.25 86.75 66.295 86.75 67.625C86.75 68.955 85.705 70 84.375 70ZM112.875 36.75C111.545 36.75 110.5 35.705 110.5 34.375C110.5 33.045 111.545 32 112.875 32C114.205 32 115.25 33.045 115.25 34.375C115.25 35.705 114.205 36.75 112.875 36.75ZM117.625 36.75C116.295 36.75 115.25 35.705 115.25 34.375C115.25 33.045 116.295 32 117.625 32C118.955 32 120 33.045 120 34.375C120 35.705 118.955 36.75 117.625 36.75ZM122.375 36.75C121.045 36.75 120 35.705 120 34.375C120 33.045 121.045 32 122.375 32C123.705 32 124.75 33.045 124.75 34.375C124.75 35.705 123.705 36.75 122.375 36.75ZM127.125 36.75C125.795 36.75 124.75 35.705 124.75 34.375C124.75 33.045 125.795 32 127.125 32C128.455 32 129.5 33.045 129.5 34.375C129.5 35.705 128.455 36.75 127.125 36.75ZM127.125 41.5C125.795 41.5 124.75 40.455 124.75 39.125C124.75 37.795 125.795 36.75 127.125 36.75C128.455 36.75 129.5 37.795 129.5 39.125C129.5 40.455 128.455 41.5 127.125 41.5ZM131.875 41.5C130.545 41.5 129.5 40.455 129.5 39.125C129.5 37.795 130.545 36.75 131.875 36.75C133.205 36.75 134.25 37.795 134.25 39.125C134.25 40.455 133.205 41.5 131.875 41.5ZM122.375 41.5C121.045 41.5 120 40.455 120 39.125C120 37.795 121.045 36.75 122.375 36.75C123.705 36.75 124.75 37.795 124.75 39.125C124.75 40.455 123.705 41.5 122.375 41.5ZM117.625 41.5C116.295 41.5 115.25 40.455 115.25 39.125C115.25 37.795 116.295 36.75 117.625 36.75C118.955 36.75 120 37.795 120 39.125C120 40.455 118.955 41.5 117.625 41.5ZM112.875 41.5C111.545 41.5 110.5 40.455 110.5 39.125C110.5 37.795 111.545 36.75 112.875 36.75C114.205 36.75 115.25 37.795 115.25 39.125C115.25 40.455 114.205 41.5 112.875 41.5ZM108.125 41.5C106.795 41.5 105.75 40.455 105.75 39.125C105.75 37.795 106.795 36.75 108.125 36.75C109.455 36.75 110.5 37.795 110.5 39.125C110.5 40.455 109.455 41.5 108.125 41.5ZM108.125 46.25C106.795 46.25 105.75 45.205 105.75 43.875C105.75 42.545 106.795 41.5 108.125 41.5C109.455 41.5 110.5 42.545 110.5 43.875C110.5 45.205 109.455 46.25 108.125 46.25ZM103.375 46.25C102.045 46.25 101 45.205 101 43.875C101 42.545 102.045 41.5 103.375 41.5C104.705 41.5 105.75 42.545 105.75 43.875C105.75 45.205 104.705 46.25 103.375 46.25ZM131.875 46.25C130.545 46.25 129.5 45.205 129.5 43.875C129.5 42.545 130.545 41.5 131.875 41.5C133.205 41.5 134.25 42.545 134.25 43.875C134.25 45.205 133.205 46.25 131.875 46.25ZM127.125 46.25C125.795 46.25 124.75 45.205 124.75 43.875C124.75 42.545 125.795 41.5 127.125 41.5C128.455 41.5 129.5 42.545 129.5 43.875C129.5 45.205 128.455 46.25 127.125 46.25ZM112.875 46.25C111.545 46.25 110.5 45.205 110.5 43.875C110.5 42.545 111.545 41.5 112.875 41.5C114.205 41.5 115.25 42.545 115.25 43.875C115.25 45.205 114.205 46.25 112.875 46.25ZM108.125 51C106.795 51 105.75 49.955 105.75 48.625C105.75 47.295 106.795 46.25 108.125 46.25C109.455 46.25 110.5 47.295 110.5 48.625C110.5 49.955 109.455 51 108.125 51ZM103.375 51C102.045 51 101 49.955 101 48.625C101 47.295 102.045 46.25 103.375 46.25C104.705 46.25 105.75 47.295 105.75 48.625C105.75 49.955 104.705 51 103.375 51ZM108.125 55.75C106.795 55.75 105.75 54.705 105.75 53.375C105.75 52.045 106.795 51 108.125 51C109.455 51 110.5 52.045 110.5 53.375C110.5 54.705 109.455 55.75 108.125 55.75ZM103.375 55.75C102.045 55.75 101 54.705 101 53.375C101 52.045 102.045 51 103.375 51C104.705 51 105.75 52.045 105.75 53.375C105.75 54.705 104.705 55.75 103.375 55.75ZM131.875 60.5C130.545 60.5 129.5 59.455 129.5 58.125C129.5 56.795 130.545 55.75 131.875 55.75C133.205 55.75 134.25 56.795 134.25 58.125C134.25 59.455 133.205 60.5 131.875 60.5ZM108.125 60.5C106.795 60.5 105.75 59.455 105.75 58.125C105.75 56.795 106.795 55.75 108.125 55.75C109.455 55.75 110.5 56.795 110.5 58.125C110.5 59.455 109.455 60.5 108.125 60.5ZM103.375 60.5C102.045 60.5 101 59.455 101 58.125C101 56.795 102.045 55.75 103.375 55.75C104.705 55.75 105.75 56.795 105.75 58.125C105.75 59.455 104.705 60.5 103.375 60.5ZM127.125 60.5C125.795 60.5 124.75 59.455 124.75 58.125C124.75 56.795 125.795 55.75 127.125 55.75C128.455 55.75 129.5 56.795 129.5 58.125C129.5 59.455 128.455 60.5 127.125 60.5ZM112.875 60.5C111.545 60.5 110.5 59.455 110.5 58.125C110.5 56.795 111.545 55.75 112.875 55.75C114.205 55.75 115.25 56.795 115.25 58.125C115.25 59.455 114.205 60.5 112.875 60.5ZM112.875 65.25C111.545 65.25 110.5 64.205 110.5 62.875C110.5 61.545 111.545 60.5 112.875 60.5C114.205 60.5 115.25 61.545 115.25 62.875C115.25 64.205 114.205 65.25 112.875 65.25ZM127.125 65.25C125.795 65.25 124.75 64.205 124.75 62.875C124.75 61.545 125.795 60.5 127.125 60.5C128.455 60.5 129.5 61.545 129.5 62.875C129.5 64.205 128.455 65.25 127.125 65.25ZM117.625 65.25C116.295 65.25 115.25 64.205 115.25 62.875C115.25 61.545 116.295 60.5 117.625 60.5C118.955 60.5 120 61.545 120 62.875C120 64.205 118.955 65.25 117.625 65.25ZM131.875 65.25C130.545 65.25 129.5 64.205 129.5 62.875C129.5 61.545 130.545 60.5 131.875 60.5C133.205 60.5 134.25 61.545 134.25 62.875C134.25 64.205 133.205 65.25 131.875 65.25ZM122.375 65.25C121.045 65.25 120 64.205 120 62.875C120 61.545 121.045 60.5 122.375 60.5C123.705 60.5 124.75 61.545 124.75 62.875C124.75 64.205 123.705 65.25 122.375 65.25ZM108.125 65.25C106.795 65.25 105.75 64.205 105.75 62.875C105.75 61.545 106.795 60.5 108.125 60.5C109.455 60.5 110.5 61.545 110.5 62.875C110.5 64.205 109.455 65.25 108.125 65.25ZM112.875 70C111.545 70 110.5 68.955 110.5 67.625C110.5 66.295 111.545 65.25 112.875 65.25C114.205 65.25 115.25 66.295 115.25 67.625C115.25 68.955 114.205 70 112.875 70ZM117.625 70C116.295 70 115.25 68.955 115.25 67.625C115.25 66.295 116.295 65.25 117.625 65.25C118.955 65.25 120 66.295 120 67.625C120 68.955 118.955 70 117.625 70ZM127.125 70C125.795 70 124.75 68.955 124.75 67.625C124.75 66.295 125.795 65.25 127.125 65.25C128.455 65.25 129.5 66.295 129.5 67.625C129.5 68.955 128.455 70 127.125 70ZM122.375 70C121.045 70 120 68.955 120 67.625C120 66.295 121.045 65.25 122.375 65.25C123.705 65.25 124.75 66.295 124.75 67.625C124.75 68.955 123.705 70 122.375 70Z" fill="#EEEEEE"/>
<path d="M24.5 197C22.54 197 21 195.46 21 193.5C21 191.54 22.54 190 24.5 190C26.46 190 28 191.54 28 193.5C28 195.46 26.46 197 24.5 197ZM17.5 204C15.54 204 14 202.46 14 200.5C14 198.54 15.54 197 17.5 197C19.46 197 21 198.54 21 200.5C21 202.46 19.46 204 17.5 204ZM24.5 204C22.54 204 21 202.46 21 200.5C21 198.54 22.54 197 24.5 197C26.46 197 28 198.54 28 200.5C28 202.46 26.46 204 24.5 204ZM10.5 211C8.54 211 7 209.46 7 207.5C7 205.54 8.54 204 10.5 204C12.46 204 14 205.54 14 207.5C14 209.46 12.46 211 10.5 211ZM24.5 211C22.54 211 21 209.46 21 207.5C21 205.54 22.54 204 24.5 204C26.46 204 28 205.54 28 207.5C28 209.46 26.46 211 24.5 211ZM45.5 211C43.54 211 42 209.46 42 207.5C42 205.54 43.54 204 45.5 204C47.46 204 49 205.54 49 207.5C49 209.46 47.46 211 45.5 211ZM38.5 211C36.54 211 35 209.46 35 207.5C35 205.54 36.54 204 38.5 204C40.46 204 42 205.54 42 207.5C42 209.46 40.46 211 38.5 211ZM31.5 211C29.54 211 28 209.46 28 207.5C28 205.54 29.54 204 31.5 204C33.46 204 35 205.54 35 207.5C35 209.46 33.46 211 31.5 211ZM17.5 211C15.54 211 14 209.46 14 207.5C14 205.54 15.54 204 17.5 204C19.46 204 21 205.54 21 207.5C21 209.46 19.46 211 17.5 211ZM3.5 218C1.54 218 0 216.46 0 214.5C0 212.54 1.54 211 3.5 211C5.46 211 7 212.54 7 214.5C7 216.46 5.46 218 3.5 218ZM24.5 218C22.54 218 21 216.46 21 214.5C21 212.54 22.54 211 24.5 211C26.46 211 28 212.54 28 214.5C28 216.46 26.46 218 24.5 218ZM38.5 218C36.54 218 35 216.46 35 214.5C35 212.54 36.54 211 38.5 211C40.46 211 42 212.54 42 214.5C42 216.46 40.46 218 38.5 218ZM31.5 218C29.54 218 28 216.46 28 214.5C28 212.54 29.54 211 31.5 211C33.46 211 35 212.54 35 214.5C35 216.46 33.46 218 31.5 218ZM10.5 218C8.54 218 7 216.46 7 214.5C7 212.54 8.54 211 10.5 211C12.46 211 14 212.54 14 214.5C14 216.46 12.46 218 10.5 218ZM17.5 218C15.54 218 14 216.46 14 214.5C14 212.54 15.54 211 17.5 211C19.46 211 21 212.54 21 214.5C21 216.46 19.46 218 17.5 218ZM24.5 225C22.54 225 21 223.46 21 221.5C21 219.54 22.54 218 24.5 218C26.46 218 28 219.54 28 221.5C28 223.46 26.46 225 24.5 225ZM17.5 225C15.54 225 14 223.46 14 221.5C14 219.54 15.54 218 17.5 218C19.46 218 21 219.54 21 221.5C21 223.46 19.46 225 17.5 225ZM24.5 232C22.54 232 21 230.46 21 228.5C21 226.54 22.54 225 24.5 225C26.46 225 28 226.54 28 228.5C28 230.46 26.46 232 24.5 232ZM17.5 232C15.54 232 14 230.46 14 228.5C14 226.54 15.54 225 17.5 225C19.46 225 21 226.54 21 228.5C21 230.46 19.46 232 17.5 232ZM17.5 239C15.54 239 14 237.46 14 235.5C14 233.54 15.54 232 17.5 232C19.46 232 21 233.54 21 235.5C21 237.46 19.46 239 17.5 239ZM24.5 239C22.54 239 21 237.46 21 235.5C21 233.54 22.54 232 24.5 232C26.46 232 28 233.54 28 235.5C28 237.46 26.46 239 24.5 239ZM17.5 246C15.54 246 14 244.46 14 242.5C14 240.54 15.54 239 17.5 239C19.46 239 21 240.54 21 242.5C21 244.46 19.46 246 17.5 246ZM24.5 246C22.54 246 21 244.46 21 242.5C21 240.54 22.54 239 24.5 239C26.46 239 28 240.54 28 242.5C28 244.46 26.46 246 24.5 246ZM17.5 253C15.54 253 14 251.46 14 249.5C14 247.54 15.54 246 17.5 246C19.46 246 21 247.54 21 249.5C21 251.46 19.46 253 17.5 253ZM24.5 253C22.54 253 21 251.46 21 249.5C21 247.54 22.54 246 24.5 246C26.46 246 28 247.54 28 249.5C28 251.46 26.46 253 24.5 253ZM31.5 253C29.54 253 28 251.46 28 249.5C28 247.54 29.54 246 31.5 246C33.46 246 35 247.54 35 249.5C35 251.46 33.46 253 31.5 253ZM38.5 253C36.54 253 35 251.46 35 249.5C35 247.54 36.54 246 38.5 246C40.46 246 42 247.54 42 249.5C42 251.46 40.46 253 38.5 253ZM45.5 253C43.54 253 42 251.46 42 249.5C42 247.54 43.54 246 45.5 246C47.46 246 49 247.54 49 249.5C49 251.46 47.46 253 45.5 253ZM24.5 260C22.54 260 21 258.46 21 256.5C21 254.54 22.54 253 24.5 253C26.46 253 28 254.54 28 256.5C28 258.46 26.46 260 24.5 260ZM31.5 260C29.54 260 28 258.46 28 256.5C28 254.54 29.54 253 31.5 253C33.46 253 35 254.54 35 256.5C35 258.46 33.46 260 31.5 260ZM38.5 260C36.54 260 35 258.46 35 256.5C35 254.54 36.54 253 38.5 253C40.46 253 42 254.54 42 256.5C42 258.46 40.46 260 38.5 260ZM73.5 211C71.54 211 70 209.46 70 207.5C70 205.54 71.54 204 73.5 204C75.46 204 77 205.54 77 207.5C77 209.46 75.46 211 73.5 211ZM80.5 211C78.54 211 77 209.46 77 207.5C77 205.54 78.54 204 80.5 204C82.46 204 84 205.54 84 207.5C84 209.46 82.46 211 80.5 211ZM87.5 211C85.54 211 84 209.46 84 207.5C84 205.54 85.54 204 87.5 204C89.46 204 91 205.54 91 207.5C91 209.46 89.46 211 87.5 211ZM94.5 211C92.54 211 91 209.46 91 207.5C91 205.54 92.54 204 94.5 204C96.46 204 98 205.54 98 207.5C98 209.46 96.46 211 94.5 211ZM66.5 218C64.54 218 63 216.46 63 214.5C63 212.54 64.54 211 66.5 211C68.46 211 70 212.54 70 214.5C70 216.46 68.46 218 66.5 218ZM73.5 218C71.54 218 70 216.46 70 214.5C70 212.54 71.54 211 73.5 211C75.46 211 77 212.54 77 214.5C77 216.46 75.46 218 73.5 218ZM80.5 218C78.54 218 77 216.46 77 214.5C77 212.54 78.54 211 80.5 211C82.46 211 84 212.54 84 214.5C84 216.46 82.46 218 80.5 218ZM87.5 218C85.54 218 84 216.46 84 214.5C84 212.54 85.54 211 87.5 211C89.46 211 91 212.54 91 214.5C91 216.46 89.46 218 87.5 218ZM94.5 218C92.54 218 91 216.46 91 214.5C91 212.54 92.54 211 94.5 211C96.46 211 98 212.54 98 214.5C98 216.46 96.46 218 94.5 218ZM101.5 218C99.54 218 98 216.46 98 214.5C98 212.54 99.54 211 101.5 211C103.46 211 105 212.54 105 214.5C105 216.46 103.46 218 101.5 218ZM59.5 225C57.54 225 56 223.46 56 221.5C56 219.54 57.54 218 59.5 218C61.46 218 63 219.54 63 221.5C63 223.46 61.46 225 59.5 225ZM108.5 225C106.54 225 105 223.46 105 221.5C105 219.54 106.54 218 108.5 218C110.46 218 112 219.54 112 221.5C112 223.46 110.46 225 108.5 225ZM101.5 225C99.54 225 98 223.46 98 221.5C98 219.54 99.54 218 101.5 218C103.46 218 105 219.54 105 221.5C105 223.46 103.46 225 101.5 225ZM94.5 225C92.54 225 91 223.46 91 221.5C91 219.54 92.54 218 94.5 218C96.46 218 98 219.54 98 221.5C98 223.46 96.46 225 94.5 225ZM73.5 225C71.54 225 70 223.46 70 221.5C70 219.54 71.54 218 73.5 218C75.46 218 77 219.54 77 221.5C77 223.46 75.46 225 73.5 225ZM66.5 225C64.54 225 63 223.46 63 221.5C63 219.54 64.54 218 66.5 218C68.46 218 70 219.54 70 221.5C70 223.46 68.46 225 66.5 225ZM66.5 232C64.54 232 63 230.46 63 228.5C63 226.54 64.54 225 66.5 225C68.46 225 70 226.54 70 228.5C70 230.46 68.46 232 66.5 232ZM59.5 232C57.54 232 56 230.46 56 228.5C56 226.54 57.54 225 59.5 225C61.46 225 63 226.54 63 228.5C63 230.46 61.46 232 59.5 232ZM108.5 232C106.54 232 105 230.46 105 228.5C105 226.54 106.54 225 108.5 225C110.46 225 112 226.54 112 228.5C112 230.46 110.46 232 108.5 232ZM101.5 232C99.54 232 98 230.46 98 228.5C98 226.54 99.54 225 101.5 225C103.46 225 105 226.54 105 228.5C105 230.46 103.46 232 101.5 232ZM66.5 239C64.54 239 63 237.46 63 235.5C63 233.54 64.54 232 66.5 232C68.46 232 70 233.54 70 235.5C70 237.46 68.46 239 66.5 239ZM59.5 239C57.54 239 56 237.46 56 235.5C56 233.54 57.54 232 59.5 232C61.46 232 63 233.54 63 235.5C63 237.46 61.46 239 59.5 239ZM108.5 239C106.54 239 105 237.46 105 235.5C105 233.54 106.54 232 108.5 232C110.46 232 112 233.54 112 235.5C112 237.46 110.46 239 108.5 239ZM101.5 239C99.54 239 98 237.46 98 235.5C98 233.54 99.54 232 101.5 232C103.46 232 105 233.54 105 235.5C105 237.46 103.46 239 101.5 239ZM94.5 246C92.54 246 91 244.46 91 242.5C91 240.54 92.54 239 94.5 239C96.46 239 98 240.54 98 242.5C98 244.46 96.46 246 94.5 246ZM101.5 246C99.54 246 98 244.46 98 242.5C98 240.54 99.54 239 101.5 239C103.46 239 105 240.54 105 242.5C105 244.46 103.46 246 101.5 246ZM73.5 246C71.54 246 70 244.46 70 242.5C70 240.54 71.54 239 73.5 239C75.46 239 77 240.54 77 242.5C77 244.46 75.46 246 73.5 246ZM108.5 246C106.54 246 105 244.46 105 242.5C105 240.54 106.54 239 108.5 239C110.46 239 112 240.54 112 242.5C112 244.46 110.46 246 108.5 246ZM66.5 246C64.54 246 63 244.46 63 242.5C63 240.54 64.54 239 66.5 239C68.46 239 70 240.54 70 242.5C70 244.46 68.46 246 66.5 246ZM59.5 246C57.54 246 56 244.46 56 242.5C56 240.54 57.54 239 59.5 239C61.46 239 63 240.54 63 242.5C63 244.46 61.46 246 59.5 246ZM94.5 253C92.54 253 91 251.46 91 249.5C91 247.54 92.54 246 94.5 246C96.46 246 98 247.54 98 249.5C98 251.46 96.46 253 94.5 253ZM101.5 253C99.54 253 98 251.46 98 249.5C98 247.54 99.54 246 101.5 246C103.46 246 105 247.54 105 249.5C105 251.46 103.46 253 101.5 253ZM87.5 253C85.54 253 84 251.46 84 249.5C84 247.54 85.54 246 87.5 246C89.46 246 91 247.54 91 249.5C91 251.46 89.46 253 87.5 253ZM80.5 253C78.54 253 77 251.46 77 249.5C77 247.54 78.54 246 80.5 246C82.46 246 84 247.54 84 249.5C84 251.46 82.46 253 80.5 253ZM73.5 253C71.54 253 70 251.46 70 249.5C70 247.54 71.54 246 73.5 246C75.46 246 77 247.54 77 249.5C77 251.46 75.46 253 73.5 253ZM66.5 253C64.54 253 63 251.46 63 249.5C63 247.54 64.54 246 66.5 246C68.46 246 70 247.54 70 249.5C70 251.46 68.46 253 66.5 253ZM94.5 260C92.54 260 91 258.46 91 256.5C91 254.54 92.54 253 94.5 253C96.46 253 98 254.54 98 256.5C98 258.46 96.46 260 94.5 260ZM87.5 260C85.54 260 84 258.46 84 256.5C84 254.54 85.54 253 87.5 253C89.46 253 91 254.54 91 256.5C91 258.46 89.46 260 87.5 260ZM80.5 260C78.54 260 77 258.46 77 256.5C77 254.54 78.54 253 80.5 253C82.46 253 84 254.54 84 256.5C84 258.46 82.46 260 80.5 260ZM73.5 260C71.54 260 70 258.46 70 256.5C70 254.54 71.54 253 73.5 253C75.46 253 77 254.54 77 256.5C77 258.46 75.46 260 73.5 260ZM157.5 211C155.54 211 154 209.46 154 207.5C154 205.54 155.54 204 157.5 204C159.46 204 161 205.54 161 207.5C161 209.46 159.46 211 157.5 211ZM150.5 211C148.54 211 147 209.46 147 207.5C147 205.54 148.54 204 150.5 204C152.46 204 154 205.54 154 207.5C154 209.46 152.46 211 150.5 211ZM143.5 211C141.54 211 140 209.46 140 207.5C140 205.54 141.54 204 143.5 204C145.46 204 147 205.54 147 207.5C147 209.46 145.46 211 143.5 211ZM157.5 218C155.54 218 154 216.46 154 214.5C154 212.54 155.54 211 157.5 211C159.46 211 161 212.54 161 214.5C161 216.46 159.46 218 157.5 218ZM136.5 218C134.54 218 133 216.46 133 214.5C133 212.54 134.54 211 136.5 211C138.46 211 140 212.54 140 214.5C140 216.46 138.46 218 136.5 218ZM164.5 218C162.54 218 161 216.46 161 214.5C161 212.54 162.54 211 164.5 211C166.46 211 168 212.54 168 214.5C168 216.46 166.46 218 164.5 218ZM150.5 218C148.54 218 147 216.46 147 214.5C147 212.54 148.54 211 150.5 211C152.46 211 154 212.54 154 214.5C154 216.46 152.46 218 150.5 218ZM143.5 218C141.54 218 140 216.46 140 214.5C140 212.54 141.54 211 143.5 211C145.46 211 147 212.54 147 214.5C147 216.46 145.46 218 143.5 218ZM129.5 225C127.54 225 126 223.46 126 221.5C126 219.54 127.54 218 129.5 218C131.46 218 133 219.54 133 221.5C133 223.46 131.46 225 129.5 225ZM164.5 225C162.54 225 161 223.46 161 221.5C161 219.54 162.54 218 164.5 218C166.46 218 168 219.54 168 221.5C168 223.46 166.46 225 164.5 225ZM136.5 225C134.54 225 133 223.46 133 221.5C133 219.54 134.54 218 136.5 218C138.46 218 140 219.54 140 221.5C140 223.46 138.46 225 136.5 225ZM171.5 225C169.54 225 168 223.46 168 221.5C168 219.54 169.54 218 171.5 218C173.46 218 175 219.54 175 221.5C175 223.46 173.46 225 171.5 225ZM136.5 232C134.54 232 133 230.46 133 228.5C133 226.54 134.54 225 136.5 225C138.46 225 140 226.54 140 228.5C140 230.46 138.46 232 136.5 232ZM164.5 232C162.54 232 161 230.46 161 228.5C161 226.54 162.54 225 164.5 225C166.46 225 168 226.54 168 228.5C168 230.46 166.46 232 164.5 232ZM171.5 232C169.54 232 168 230.46 168 228.5C168 226.54 169.54 225 171.5 225C173.46 225 175 226.54 175 228.5C175 230.46 173.46 232 171.5 232ZM129.5 232C127.54 232 126 230.46 126 228.5C126 226.54 127.54 225 129.5 225C131.46 225 133 226.54 133 228.5C133 230.46 131.46 232 129.5 232ZM143.5 232C141.54 232 140 230.46 140 228.5C140 226.54 141.54 225 143.5 225C145.46 225 147 226.54 147 228.5C147 230.46 145.46 232 143.5 232ZM150.5 232C148.54 232 147 230.46 147 228.5C147 226.54 148.54 225 150.5 225C152.46 225 154 226.54 154 228.5C154 230.46 152.46 232 150.5 232ZM157.5 232C155.54 232 154 230.46 154 228.5C154 226.54 155.54 225 157.5 225C159.46 225 161 226.54 161 228.5C161 230.46 159.46 232 157.5 232ZM136.5 239C134.54 239 133 237.46 133 235.5C133 233.54 134.54 232 136.5 232C138.46 232 140 233.54 140 235.5C140 237.46 138.46 239 136.5 239ZM143.5 239C141.54 239 140 237.46 140 235.5C140 233.54 141.54 232 143.5 232C145.46 232 147 233.54 147 235.5C147 237.46 145.46 239 143.5 239ZM150.5 239C148.54 239 147 237.46 147 235.5C147 233.54 148.54 232 150.5 232C152.46 232 154 233.54 154 235.5C154 237.46 152.46 239 150.5 239ZM157.5 239C155.54 239 154 237.46 154 235.5C154 233.54 155.54 232 157.5 232C159.46 232 161 233.54 161 235.5C161 237.46 159.46 239 157.5 239ZM164.5 239C162.54 239 161 237.46 161 235.5C161 233.54 162.54 232 164.5 232C166.46 232 168 233.54 168 235.5C168 237.46 166.46 239 164.5 239ZM171.5 239C169.54 239 168 237.46 168 235.5C168 233.54 169.54 232 171.5 232C173.46 232 175 233.54 175 235.5C175 237.46 173.46 239 171.5 239ZM129.5 239C127.54 239 126 237.46 126 235.5C126 233.54 127.54 232 129.5 232C131.46 232 133 233.54 133 235.5C133 237.46 131.46 239 129.5 239ZM136.5 246C134.54 246 133 244.46 133 242.5C133 240.54 134.54 239 136.5 239C138.46 239 140 240.54 140 242.5C140 244.46 138.46 246 136.5 246ZM129.5 246C127.54 246 126 244.46 126 242.5C126 240.54 127.54 239 129.5 239C131.46 239 133 240.54 133 242.5C133 244.46 131.46 246 129.5 246ZM136.5 253C134.54 253 133 251.46 133 249.5C133 247.54 134.54 246 136.5 246C138.46 246 140 247.54 140 249.5C140 251.46 138.46 253 136.5 253ZM143.5 253C141.54 253 140 251.46 140 249.5C140 247.54 141.54 246 143.5 246C145.46 246 147 247.54 147 249.5C147 251.46 145.46 253 143.5 253ZM150.5 253C148.54 253 147 251.46 147 249.5C147 247.54 148.54 246 150.5 246C152.46 246 154 247.54 154 249.5C154 251.46 152.46 253 150.5 253ZM157.5 253C155.54 253 154 251.46 154 249.5C154 247.54 155.54 246 157.5 246C159.46 246 161 247.54 161 249.5C161 251.46 159.46 253 157.5 253ZM164.5 253C162.54 253 161 251.46 161 249.5C161 247.54 162.54 246 164.5 246C166.46 246 168 247.54 168 249.5C168 251.46 166.46 253 164.5 253ZM171.5 253C169.54 253 168 251.46 168 249.5C168 247.54 169.54 246 171.5 246C173.46 246 175 247.54 175 249.5C175 251.46 173.46 253 171.5 253ZM143.5 260C141.54 260 140 258.46 140 256.5C140 254.54 141.54 253 143.5 253C145.46 253 147 254.54 147 256.5C147 258.46 145.46 260 143.5 260ZM150.5 260C148.54 260 147 258.46 147 256.5C147 254.54 148.54 253 150.5 253C152.46 253 154 254.54 154 256.5C154 258.46 152.46 260 150.5 260ZM157.5 260C155.54 260 154 258.46 154 256.5C154 254.54 155.54 253 157.5 253C159.46 253 161 254.54 161 256.5C161 258.46 159.46 260 157.5 260ZM164.5 260C162.54 260 161 258.46 161 256.5C161 254.54 162.54 253 164.5 253C166.46 253 168 254.54 168 256.5C168 258.46 166.46 260 164.5 260Z" fill="#EEEEEE"/>
</svg>
