<svg width="710" height="107" viewBox="0 0 710 107" fill="none" xmlns="http://www.w3.org/2000/svg">
<g filter="url(#filter0_d_1_7)">
<path d="M35.5 18C32.98 18 31 16.02 31 13.5C31 10.98 32.98 9 35.5 9C38.02 9 40 10.98 40 13.5C40 16.02 38.02 18 35.5 18ZM26.5 27C23.98 27 22 25.02 22 22.5C22 19.98 23.98 18 26.5 18C29.02 18 31 19.98 31 22.5C31 25.02 29.02 27 26.5 27ZM35.5 27C32.98 27 31 25.02 31 22.5C31 19.98 32.98 18 35.5 18C38.02 18 40 19.98 40 22.5C40 25.02 38.02 27 35.5 27ZM17.5 36C14.98 36 13 34.02 13 31.5C13 28.98 14.98 27 17.5 27C20.02 27 22 28.98 22 31.5C22 34.02 20.02 36 17.5 36ZM35.5 36C32.98 36 31 34.02 31 31.5C31 28.98 32.98 27 35.5 27C38.02 27 40 28.98 40 31.5C40 34.02 38.02 36 35.5 36ZM62.5 36C59.98 36 58 34.02 58 31.5C58 28.98 59.98 27 62.5 27C65.02 27 67 28.98 67 31.5C67 34.02 65.02 36 62.5 36ZM53.5 36C50.98 36 49 34.02 49 31.5C49 28.98 50.98 27 53.5 27C56.02 27 58 28.98 58 31.5C58 34.02 56.02 36 53.5 36ZM44.5 36C41.98 36 40 34.02 40 31.5C40 28.98 41.98 27 44.5 27C47.02 27 49 28.98 49 31.5C49 34.02 47.02 36 44.5 36ZM26.5 36C23.98 36 22 34.02 22 31.5C22 28.98 23.98 27 26.5 27C29.02 27 31 28.98 31 31.5C31 34.02 29.02 36 26.5 36ZM8.5 45C5.98 45 4 43.02 4 40.5C4 37.98 5.98 36 8.5 36C11.02 36 13 37.98 13 40.5C13 43.02 11.02 45 8.5 45ZM35.5 45C32.98 45 31 43.02 31 40.5C31 37.98 32.98 36 35.5 36C38.02 36 40 37.98 40 40.5C40 43.02 38.02 45 35.5 45ZM53.5 45C50.98 45 49 43.02 49 40.5C49 37.98 50.98 36 53.5 36C56.02 36 58 37.98 58 40.5C58 43.02 56.02 45 53.5 45ZM44.5 45C41.98 45 40 43.02 40 40.5C40 37.98 41.98 36 44.5 36C47.02 36 49 37.98 49 40.5C49 43.02 47.02 45 44.5 45ZM17.5 45C14.98 45 13 43.02 13 40.5C13 37.98 14.98 36 17.5 36C20.02 36 22 37.98 22 40.5C22 43.02 20.02 45 17.5 45ZM26.5 45C23.98 45 22 43.02 22 40.5C22 37.98 23.98 36 26.5 36C29.02 36 31 37.98 31 40.5C31 43.02 29.02 45 26.5 45ZM35.5 54C32.98 54 31 52.02 31 49.5C31 46.98 32.98 45 35.5 45C38.02 45 40 46.98 40 49.5C40 52.02 38.02 54 35.5 54ZM26.5 54C23.98 54 22 52.02 22 49.5C22 46.98 23.98 45 26.5 45C29.02 45 31 46.98 31 49.5C31 52.02 29.02 54 26.5 54ZM35.5 63C32.98 63 31 61.02 31 58.5C31 55.98 32.98 54 35.5 54C38.02 54 40 55.98 40 58.5C40 61.02 38.02 63 35.5 63ZM26.5 63C23.98 63 22 61.02 22 58.5C22 55.98 23.98 54 26.5 54C29.02 54 31 55.98 31 58.5C31 61.02 29.02 63 26.5 63ZM26.5 72C23.98 72 22 70.02 22 67.5C22 64.98 23.98 63 26.5 63C29.02 63 31 64.98 31 67.5C31 70.02 29.02 72 26.5 72ZM35.5 72C32.98 72 31 70.02 31 67.5C31 64.98 32.98 63 35.5 63C38.02 63 40 64.98 40 67.5C40 70.02 38.02 72 35.5 72ZM26.5 81C23.98 81 22 79.02 22 76.5C22 73.98 23.98 72 26.5 72C29.02 72 31 73.98 31 76.5C31 79.02 29.02 81 26.5 81ZM35.5 81C32.98 81 31 79.02 31 76.5C31 73.98 32.98 72 35.5 72C38.02 72 40 73.98 40 76.5C40 79.02 38.02 81 35.5 81ZM26.5 90C23.98 90 22 88.02 22 85.5C22 82.98 23.98 81 26.5 81C29.02 81 31 82.98 31 85.5C31 88.02 29.02 90 26.5 90ZM35.5 90C32.98 90 31 88.02 31 85.5C31 82.98 32.98 81 35.5 81C38.02 81 40 82.98 40 85.5C40 88.02 38.02 90 35.5 90ZM44.5 90C41.98 90 40 88.02 40 85.5C40 82.98 41.98 81 44.5 81C47.02 81 49 82.98 49 85.5C49 88.02 47.02 90 44.5 90ZM53.5 90C50.98 90 49 88.02 49 85.5C49 82.98 50.98 81 53.5 81C56.02 81 58 82.98 58 85.5C58 88.02 56.02 90 53.5 90ZM62.5 90C59.98 90 58 88.02 58 85.5C58 82.98 59.98 81 62.5 81C65.02 81 67 82.98 67 85.5C67 88.02 65.02 90 62.5 90ZM35.5 99C32.98 99 31 97.02 31 94.5C31 91.98 32.98 90 35.5 90C38.02 90 40 91.98 40 94.5C40 97.02 38.02 99 35.5 99ZM44.5 99C41.98 99 40 97.02 40 94.5C40 91.98 41.98 90 44.5 90C47.02 90 49 91.98 49 94.5C49 97.02 47.02 99 44.5 99ZM53.5 99C50.98 99 49 97.02 49 94.5C49 91.98 50.98 90 53.5 90C56.02 90 58 91.98 58 94.5C58 97.02 56.02 99 53.5 99ZM80.5 9C77.98 9 76 7.02001 76 4.5C76 1.98 77.98 0 80.5 0C83.02 0 85 1.98 85 4.5C85 7.02001 83.02 9 80.5 9ZM89.5 9C86.98 9 85 7.02001 85 4.5C85 1.98 86.98 0 89.5 0C92.02 0 94 1.98 94 4.5C94 7.02001 92.02 9 89.5 9ZM80.5 18C77.98 18 76 16.02 76 13.5C76 10.98 77.98 9 80.5 9C83.02 9 85 10.98 85 13.5C85 16.02 83.02 18 80.5 18ZM89.5 18C86.98 18 85 16.02 85 13.5C85 10.98 86.98 9 89.5 9C92.02 9 94 10.98 94 13.5C94 16.02 92.02 18 89.5 18ZM80.5 36C77.98 36 76 34.02 76 31.5C76 28.98 77.98 27 80.5 27C83.02 27 85 28.98 85 31.5C85 34.02 83.02 36 80.5 36ZM89.5 36C86.98 36 85 34.02 85 31.5C85 28.98 86.98 27 89.5 27C92.02 27 94 28.98 94 31.5C94 34.02 92.02 36 89.5 36ZM80.5 45C77.98 45 76 43.02 76 40.5C76 37.98 77.98 36 80.5 36C83.02 36 85 37.98 85 40.5C85 43.02 83.02 45 80.5 45ZM89.5 45C86.98 45 85 43.02 85 40.5C85 37.98 86.98 36 89.5 36C92.02 36 94 37.98 94 40.5C94 43.02 92.02 45 89.5 45ZM80.5 54C77.98 54 76 52.02 76 49.5C76 46.98 77.98 45 80.5 45C83.02 45 85 46.98 85 49.5C85 52.02 83.02 54 80.5 54ZM89.5 54C86.98 54 85 52.02 85 49.5C85 46.98 86.98 45 89.5 45C92.02 45 94 46.98 94 49.5C94 52.02 92.02 54 89.5 54ZM80.5 63C77.98 63 76 61.02 76 58.5C76 55.98 77.98 54 80.5 54C83.02 54 85 55.98 85 58.5C85 61.02 83.02 63 80.5 63ZM89.5 63C86.98 63 85 61.02 85 58.5C85 55.98 86.98 54 89.5 54C92.02 54 94 55.98 94 58.5C94 61.02 92.02 63 89.5 63ZM80.5 72C77.98 72 76 70.02 76 67.5C76 64.98 77.98 63 80.5 63C83.02 63 85 64.98 85 67.5C85 70.02 83.02 72 80.5 72ZM89.5 72C86.98 72 85 70.02 85 67.5C85 64.98 86.98 63 89.5 63C92.02 63 94 64.98 94 67.5C94 70.02 92.02 72 89.5 72ZM80.5 81C77.98 81 76 79.02 76 76.5C76 73.98 77.98 72 80.5 72C83.02 72 85 73.98 85 76.5C85 79.02 83.02 81 80.5 81ZM89.5 81C86.98 81 85 79.02 85 76.5C85 73.98 86.98 72 89.5 72C92.02 72 94 73.98 94 76.5C94 79.02 92.02 81 89.5 81ZM80.5 90C77.98 90 76 88.02 76 85.5C76 82.98 77.98 81 80.5 81C83.02 81 85 82.98 85 85.5C85 88.02 83.02 90 80.5 90ZM89.5 90C86.98 90 85 88.02 85 85.5C85 82.98 86.98 81 89.5 81C92.02 81 94 82.98 94 85.5C94 88.02 92.02 90 89.5 90ZM89.5 99C86.98 99 85 97.02 85 94.5C85 91.98 86.98 90 89.5 90C92.02 90 94 91.98 94 94.5C94 97.02 92.02 99 89.5 99ZM80.5 99C77.98 99 76 97.02 76 94.5C76 91.98 77.98 90 80.5 90C83.02 90 85 91.98 85 94.5C85 97.02 83.02 99 80.5 99ZM134.5 36C131.98 36 130 34.02 130 31.5C130 28.98 131.98 27 134.5 27C137.02 27 139 28.98 139 31.5C139 34.02 137.02 36 134.5 36ZM143.5 36C140.98 36 139 34.02 139 31.5C139 28.98 140.98 27 143.5 27C146.02 27 148 28.98 148 31.5C148 34.02 146.02 36 143.5 36ZM152.5 36C149.98 36 148 34.02 148 31.5C148 28.98 149.98 27 152.5 27C155.02 27 157 28.98 157 31.5C157 34.02 155.02 36 152.5 36ZM161.5 36C158.98 36 157 34.02 157 31.5C157 28.98 158.98 27 161.5 27C164.02 27 166 28.98 166 31.5C166 34.02 164.02 36 161.5 36ZM161.5 45C158.98 45 157 43.02 157 40.5C157 37.98 158.98 36 161.5 36C164.02 36 166 37.98 166 40.5C166 43.02 164.02 45 161.5 45ZM170.5 45C167.98 45 166 43.02 166 40.5C166 37.98 167.98 36 170.5 36C173.02 36 175 37.98 175 40.5C175 43.02 173.02 45 170.5 45ZM152.5 45C149.98 45 148 43.02 148 40.5C148 37.98 149.98 36 152.5 36C155.02 36 157 37.98 157 40.5C157 43.02 155.02 45 152.5 45ZM143.5 45C140.98 45 139 43.02 139 40.5C139 37.98 140.98 36 143.5 36C146.02 36 148 37.98 148 40.5C148 43.02 146.02 45 143.5 45ZM134.5 45C131.98 45 130 43.02 130 40.5C130 37.98 131.98 36 134.5 36C137.02 36 139 37.98 139 40.5C139 43.02 137.02 45 134.5 45ZM125.5 45C122.98 45 121 43.02 121 40.5C121 37.98 122.98 36 125.5 36C128.02 36 130 37.98 130 40.5C130 43.02 128.02 45 125.5 45ZM125.5 54C122.98 54 121 52.02 121 49.5C121 46.98 122.98 45 125.5 45C128.02 45 130 46.98 130 49.5C130 52.02 128.02 54 125.5 54ZM116.5 54C113.98 54 112 52.02 112 49.5C112 46.98 113.98 45 116.5 45C119.02 45 121 46.98 121 49.5C121 52.02 119.02 54 116.5 54ZM170.5 54C167.98 54 166 52.02 166 49.5C166 46.98 167.98 45 170.5 45C173.02 45 175 46.98 175 49.5C175 52.02 173.02 54 170.5 54ZM161.5 54C158.98 54 157 52.02 157 49.5C157 46.98 158.98 45 161.5 45C164.02 45 166 46.98 166 49.5C166 52.02 164.02 54 161.5 54ZM134.5 54C131.98 54 130 52.02 130 49.5C130 46.98 131.98 45 134.5 45C137.02 45 139 46.98 139 49.5C139 52.02 137.02 54 134.5 54ZM125.5 63C122.98 63 121 61.02 121 58.5C121 55.98 122.98 54 125.5 54C128.02 54 130 55.98 130 58.5C130 61.02 128.02 63 125.5 63ZM116.5 63C113.98 63 112 61.02 112 58.5C112 55.98 113.98 54 116.5 54C119.02 54 121 55.98 121 58.5C121 61.02 119.02 63 116.5 63ZM125.5 72C122.98 72 121 70.02 121 67.5C121 64.98 122.98 63 125.5 63C128.02 63 130 64.98 130 67.5C130 70.02 128.02 72 125.5 72ZM116.5 72C113.98 72 112 70.02 112 67.5C112 64.98 113.98 63 116.5 63C119.02 63 121 64.98 121 67.5C121 70.02 119.02 72 116.5 72ZM170.5 81C167.98 81 166 79.02 166 76.5C166 73.98 167.98 72 170.5 72C173.02 72 175 73.98 175 76.5C175 79.02 173.02 81 170.5 81ZM125.5 81C122.98 81 121 79.02 121 76.5C121 73.98 122.98 72 125.5 72C128.02 72 130 73.98 130 76.5C130 79.02 128.02 81 125.5 81ZM116.5 81C113.98 81 112 79.02 112 76.5C112 73.98 113.98 72 116.5 72C119.02 72 121 73.98 121 76.5C121 79.02 119.02 81 116.5 81ZM161.5 81C158.98 81 157 79.02 157 76.5C157 73.98 158.98 72 161.5 72C164.02 72 166 73.98 166 76.5C166 79.02 164.02 81 161.5 81ZM134.5 81C131.98 81 130 79.02 130 76.5C130 73.98 131.98 72 134.5 72C137.02 72 139 73.98 139 76.5C139 79.02 137.02 81 134.5 81ZM134.5 90C131.98 90 130 88.02 130 85.5C130 82.98 131.98 81 134.5 81C137.02 81 139 82.98 139 85.5C139 88.02 137.02 90 134.5 90ZM161.5 90C158.98 90 157 88.02 157 85.5C157 82.98 158.98 81 161.5 81C164.02 81 166 82.98 166 85.5C166 88.02 164.02 90 161.5 90ZM143.5 90C140.98 90 139 88.02 139 85.5C139 82.98 140.98 81 143.5 81C146.02 81 148 82.98 148 85.5C148 88.02 146.02 90 143.5 90ZM170.5 90C167.98 90 166 88.02 166 85.5C166 82.98 167.98 81 170.5 81C173.02 81 175 82.98 175 85.5C175 88.02 173.02 90 170.5 90ZM152.5 90C149.98 90 148 88.02 148 85.5C148 82.98 149.98 81 152.5 81C155.02 81 157 82.98 157 85.5C157 88.02 155.02 90 152.5 90ZM125.5 90C122.98 90 121 88.02 121 85.5C121 82.98 122.98 81 125.5 81C128.02 81 130 82.98 130 85.5C130 88.02 128.02 90 125.5 90ZM134.5 99C131.98 99 130 97.02 130 94.5C130 91.98 131.98 90 134.5 90C137.02 90 139 91.98 139 94.5C139 97.02 137.02 99 134.5 99ZM143.5 99C140.98 99 139 97.02 139 94.5C139 91.98 140.98 90 143.5 90C146.02 90 148 91.98 148 94.5C148 97.02 146.02 99 143.5 99ZM161.5 99C158.98 99 157 97.02 157 94.5C157 91.98 158.98 90 161.5 90C164.02 90 166 91.98 166 94.5C166 97.02 164.02 99 161.5 99ZM152.5 99C149.98 99 148 97.02 148 94.5C148 91.98 149.98 90 152.5 90C155.02 90 157 91.98 157 94.5C157 97.02 155.02 99 152.5 99ZM251.5 18C248.98 18 247 16.02 247 13.5C247 10.98 248.98 9 251.5 9C254.02 9 256 10.98 256 13.5C256 16.02 254.02 18 251.5 18ZM242.5 27C239.98 27 238 25.02 238 22.5C238 19.98 239.98 18 242.5 18C245.02 18 247 19.98 247 22.5C247 25.02 245.02 27 242.5 27ZM251.5 27C248.98 27 247 25.02 247 22.5C247 19.98 248.98 18 251.5 18C254.02 18 256 19.98 256 22.5C256 25.02 254.02 27 251.5 27ZM233.5 36C230.98 36 229 34.02 229 31.5C229 28.98 230.98 27 233.5 27C236.02 27 238 28.98 238 31.5C238 34.02 236.02 36 233.5 36ZM251.5 36C248.98 36 247 34.02 247 31.5C247 28.98 248.98 27 251.5 27C254.02 27 256 28.98 256 31.5C256 34.02 254.02 36 251.5 36ZM278.5 36C275.98 36 274 34.02 274 31.5C274 28.98 275.98 27 278.5 27C281.02 27 283 28.98 283 31.5C283 34.02 281.02 36 278.5 36ZM269.5 36C266.98 36 265 34.02 265 31.5C265 28.98 266.98 27 269.5 27C272.02 27 274 28.98 274 31.5C274 34.02 272.02 36 269.5 36ZM260.5 36C257.98 36 256 34.02 256 31.5C256 28.98 257.98 27 260.5 27C263.02 27 265 28.98 265 31.5C265 34.02 263.02 36 260.5 36ZM242.5 36C239.98 36 238 34.02 238 31.5C238 28.98 239.98 27 242.5 27C245.02 27 247 28.98 247 31.5C247 34.02 245.02 36 242.5 36ZM224.5 45C221.98 45 220 43.02 220 40.5C220 37.98 221.98 36 224.5 36C227.02 36 229 37.98 229 40.5C229 43.02 227.02 45 224.5 45ZM251.5 45C248.98 45 247 43.02 247 40.5C247 37.98 248.98 36 251.5 36C254.02 36 256 37.98 256 40.5C256 43.02 254.02 45 251.5 45ZM269.5 45C266.98 45 265 43.02 265 40.5C265 37.98 266.98 36 269.5 36C272.02 36 274 37.98 274 40.5C274 43.02 272.02 45 269.5 45ZM260.5 45C257.98 45 256 43.02 256 40.5C256 37.98 257.98 36 260.5 36C263.02 36 265 37.98 265 40.5C265 43.02 263.02 45 260.5 45ZM233.5 45C230.98 45 229 43.02 229 40.5C229 37.98 230.98 36 233.5 36C236.02 36 238 37.98 238 40.5C238 43.02 236.02 45 233.5 45ZM242.5 45C239.98 45 238 43.02 238 40.5C238 37.98 239.98 36 242.5 36C245.02 36 247 37.98 247 40.5C247 43.02 245.02 45 242.5 45ZM251.5 54C248.98 54 247 52.02 247 49.5C247 46.98 248.98 45 251.5 45C254.02 45 256 46.98 256 49.5C256 52.02 254.02 54 251.5 54ZM242.5 54C239.98 54 238 52.02 238 49.5C238 46.98 239.98 45 242.5 45C245.02 45 247 46.98 247 49.5C247 52.02 245.02 54 242.5 54ZM251.5 63C248.98 63 247 61.02 247 58.5C247 55.98 248.98 54 251.5 54C254.02 54 256 55.98 256 58.5C256 61.02 254.02 63 251.5 63ZM242.5 63C239.98 63 238 61.02 238 58.5C238 55.98 239.98 54 242.5 54C245.02 54 247 55.98 247 58.5C247 61.02 245.02 63 242.5 63ZM242.5 72C239.98 72 238 70.02 238 67.5C238 64.98 239.98 63 242.5 63C245.02 63 247 64.98 247 67.5C247 70.02 245.02 72 242.5 72ZM251.5 72C248.98 72 247 70.02 247 67.5C247 64.98 248.98 63 251.5 63C254.02 63 256 64.98 256 67.5C256 70.02 254.02 72 251.5 72ZM242.5 81C239.98 81 238 79.02 238 76.5C238 73.98 239.98 72 242.5 72C245.02 72 247 73.98 247 76.5C247 79.02 245.02 81 242.5 81ZM251.5 81C248.98 81 247 79.02 247 76.5C247 73.98 248.98 72 251.5 72C254.02 72 256 73.98 256 76.5C256 79.02 254.02 81 251.5 81ZM242.5 90C239.98 90 238 88.02 238 85.5C238 82.98 239.98 81 242.5 81C245.02 81 247 82.98 247 85.5C247 88.02 245.02 90 242.5 90ZM251.5 90C248.98 90 247 88.02 247 85.5C247 82.98 248.98 81 251.5 81C254.02 81 256 82.98 256 85.5C256 88.02 254.02 90 251.5 90ZM260.5 90C257.98 90 256 88.02 256 85.5C256 82.98 257.98 81 260.5 81C263.02 81 265 82.98 265 85.5C265 88.02 263.02 90 260.5 90ZM269.5 90C266.98 90 265 88.02 265 85.5C265 82.98 266.98 81 269.5 81C272.02 81 274 82.98 274 85.5C274 88.02 272.02 90 269.5 90ZM278.5 90C275.98 90 274 88.02 274 85.5C274 82.98 275.98 81 278.5 81C281.02 81 283 82.98 283 85.5C283 88.02 281.02 90 278.5 90ZM251.5 99C248.98 99 247 97.02 247 94.5C247 91.98 248.98 90 251.5 90C254.02 90 256 91.98 256 94.5C256 97.02 254.02 99 251.5 99ZM260.5 99C257.98 99 256 97.02 256 94.5C256 91.98 257.98 90 260.5 90C263.02 90 265 91.98 265 94.5C265 97.02 263.02 99 260.5 99ZM269.5 99C266.98 99 265 97.02 265 94.5C265 91.98 266.98 90 269.5 90C272.02 90 274 91.98 274 94.5C274 97.02 272.02 99 269.5 99ZM305.5 36C302.98 36 301 34.02 301 31.5C301 28.98 302.98 27 305.5 27C308.02 27 310 28.98 310 31.5C310 34.02 308.02 36 305.5 36ZM314.5 36C311.98 36 310 34.02 310 31.5C310 28.98 311.98 27 314.5 27C317.02 27 319 28.98 319 31.5C319 34.02 317.02 36 314.5 36ZM323.5 36C320.98 36 319 34.02 319 31.5C319 28.98 320.98 27 323.5 27C326.02 27 328 28.98 328 31.5C328 34.02 326.02 36 323.5 36ZM332.5 36C329.98 36 328 34.02 328 31.5C328 28.98 329.98 27 332.5 27C335.02 27 337 28.98 337 31.5C337 34.02 335.02 36 332.5 36ZM341.5 36C338.98 36 337 34.02 337 31.5C337 28.98 338.98 27 341.5 27C344.02 27 346 28.98 346 31.5C346 34.02 344.02 36 341.5 36ZM305.5 45C302.98 45 301 43.02 301 40.5C301 37.98 302.98 36 305.5 36C308.02 36 310 37.98 310 40.5C310 43.02 308.02 45 305.5 45ZM296.5 45C293.98 45 292 43.02 292 40.5C292 37.98 293.98 36 296.5 36C299.02 36 301 37.98 301 40.5C301 43.02 299.02 45 296.5 45ZM341.5 45C338.98 45 337 43.02 337 40.5C337 37.98 338.98 36 341.5 36C344.02 36 346 37.98 346 40.5C346 43.02 344.02 45 341.5 45ZM350.5 45C347.98 45 346 43.02 346 40.5C346 37.98 347.98 36 350.5 36C353.02 36 355 37.98 355 40.5C355 43.02 353.02 45 350.5 45ZM314.5 45C311.98 45 310 43.02 310 40.5C310 37.98 311.98 36 314.5 36C317.02 36 319 37.98 319 40.5C319 43.02 317.02 45 314.5 45ZM332.5 45C329.98 45 328 43.02 328 40.5C328 37.98 329.98 36 332.5 36C335.02 36 337 37.98 337 40.5C337 43.02 335.02 45 332.5 45ZM323.5 45C320.98 45 319 43.02 319 40.5C319 37.98 320.98 36 323.5 36C326.02 36 328 37.98 328 40.5C328 43.02 326.02 45 323.5 45ZM341.5 54C338.98 54 337 52.02 337 49.5C337 46.98 338.98 45 341.5 45C344.02 45 346 46.98 346 49.5C346 52.02 344.02 54 341.5 54ZM350.5 54C347.98 54 346 52.02 346 49.5C346 46.98 347.98 45 350.5 45C353.02 45 355 46.98 355 49.5C355 52.02 353.02 54 350.5 54ZM314.5 63C311.98 63 310 61.02 310 58.5C310 55.98 311.98 54 314.5 54C317.02 54 319 55.98 319 58.5C319 61.02 317.02 63 314.5 63ZM341.5 63C338.98 63 337 61.02 337 58.5C337 55.98 338.98 54 341.5 54C344.02 54 346 55.98 346 58.5C346 61.02 344.02 63 341.5 63ZM350.5 63C347.98 63 346 61.02 346 58.5C346 55.98 347.98 54 350.5 54C353.02 54 355 55.98 355 58.5C355 61.02 353.02 63 350.5 63ZM332.5 63C329.98 63 328 61.02 328 58.5C328 55.98 329.98 54 332.5 54C335.02 54 337 55.98 337 58.5C337 61.02 335.02 63 332.5 63ZM323.5 63C320.98 63 319 61.02 319 58.5C319 55.98 320.98 54 323.5 54C326.02 54 328 55.98 328 58.5C328 61.02 326.02 63 323.5 63ZM314.5 72C311.98 72 310 70.02 310 67.5C310 64.98 311.98 63 314.5 63C317.02 63 319 64.98 319 67.5C319 70.02 317.02 72 314.5 72ZM323.5 72C320.98 72 319 70.02 319 67.5C319 64.98 320.98 63 323.5 63C326.02 63 328 64.98 328 67.5C328 70.02 326.02 72 323.5 72ZM332.5 72C329.98 72 328 70.02 328 67.5C328 64.98 329.98 63 332.5 63C335.02 63 337 64.98 337 67.5C337 70.02 335.02 72 332.5 72ZM350.5 72C347.98 72 346 70.02 346 67.5C346 64.98 347.98 63 350.5 63C353.02 63 355 64.98 355 67.5C355 70.02 353.02 72 350.5 72ZM341.5 72C338.98 72 337 70.02 337 67.5C337 64.98 338.98 63 341.5 63C344.02 63 346 64.98 346 67.5C346 70.02 344.02 72 341.5 72ZM305.5 72C302.98 72 301 70.02 301 67.5C301 64.98 302.98 63 305.5 63C308.02 63 310 64.98 310 67.5C310 70.02 308.02 72 305.5 72ZM296.5 72C293.98 72 292 70.02 292 67.5C292 64.98 293.98 63 296.5 63C299.02 63 301 64.98 301 67.5C301 70.02 299.02 72 296.5 72ZM341.5 81C338.98 81 337 79.02 337 76.5C337 73.98 338.98 72 341.5 72C344.02 72 346 73.98 346 76.5C346 79.02 344.02 81 341.5 81ZM350.5 81C347.98 81 346 79.02 346 76.5C346 73.98 347.98 72 350.5 72C353.02 72 355 73.98 355 76.5C355 79.02 353.02 81 350.5 81ZM305.5 81C302.98 81 301 79.02 301 76.5C301 73.98 302.98 72 305.5 72C308.02 72 310 73.98 310 76.5C310 79.02 308.02 81 305.5 81ZM296.5 81C293.98 81 292 79.02 292 76.5C292 73.98 293.98 72 296.5 72C299.02 72 301 73.98 301 76.5C301 79.02 299.02 81 296.5 81ZM323.5 90C320.98 90 319 88.02 319 85.5C319 82.98 320.98 81 323.5 81C326.02 81 328 82.98 328 85.5C328 88.02 326.02 90 323.5 90ZM296.5 90C293.98 90 292 88.02 292 85.5C292 82.98 293.98 81 296.5 81C299.02 81 301 82.98 301 85.5C301 88.02 299.02 90 296.5 90ZM314.5 90C311.98 90 310 88.02 310 85.5C310 82.98 311.98 81 314.5 81C317.02 81 319 82.98 319 85.5C319 88.02 317.02 90 314.5 90ZM350.5 90C347.98 90 346 88.02 346 85.5C346 82.98 347.98 81 350.5 81C353.02 81 355 82.98 355 85.5C355 88.02 353.02 90 350.5 90ZM341.5 90C338.98 90 337 88.02 337 85.5C337 82.98 338.98 81 341.5 81C344.02 81 346 82.98 346 85.5C346 88.02 344.02 90 341.5 90ZM305.5 90C302.98 90 301 88.02 301 85.5C301 82.98 302.98 81 305.5 81C308.02 81 310 82.98 310 85.5C310 88.02 308.02 90 305.5 90ZM332.5 90C329.98 90 328 88.02 328 85.5C328 82.98 329.98 81 332.5 81C335.02 81 337 82.98 337 85.5C337 88.02 335.02 90 332.5 90ZM323.5 99C320.98 99 319 97.02 319 94.5C319 91.98 320.98 90 323.5 90C326.02 90 328 91.98 328 94.5C328 97.02 326.02 99 323.5 99ZM341.5 99C338.98 99 337 97.02 337 94.5C337 91.98 338.98 90 341.5 90C344.02 90 346 91.98 346 94.5C346 97.02 344.02 99 341.5 99ZM350.5 99C347.98 99 346 97.02 346 94.5C346 91.98 347.98 90 350.5 90C353.02 90 355 91.98 355 94.5C355 97.02 353.02 99 350.5 99ZM314.5 99C311.98 99 310 97.02 310 94.5C310 91.98 311.98 90 314.5 90C317.02 90 319 91.98 319 94.5C319 97.02 317.02 99 314.5 99ZM305.5 99C302.98 99 301 97.02 301 94.5C301 91.98 302.98 90 305.5 90C308.02 90 310 91.98 310 94.5C310 97.02 308.02 99 305.5 99ZM395.5 36C392.98 36 391 34.02 391 31.5C391 28.98 392.98 27 395.5 27C398.02 27 400 28.98 400 31.5C400 34.02 398.02 36 395.5 36ZM404.5 36C401.98 36 400 34.02 400 31.5C400 28.98 401.98 27 404.5 27C407.02 27 409 28.98 409 31.5C409 34.02 407.02 36 404.5 36ZM413.5 36C410.98 36 409 34.02 409 31.5C409 28.98 410.98 27 413.5 27C416.02 27 418 28.98 418 31.5C418 34.02 416.02 36 413.5 36ZM422.5 36C419.98 36 418 34.02 418 31.5C418 28.98 419.98 27 422.5 27C425.02 27 427 28.98 427 31.5C427 34.02 425.02 36 422.5 36ZM422.5 45C419.98 45 418 43.02 418 40.5C418 37.98 419.98 36 422.5 36C425.02 36 427 37.98 427 40.5C427 43.02 425.02 45 422.5 45ZM431.5 45C428.98 45 427 43.02 427 40.5C427 37.98 428.98 36 431.5 36C434.02 36 436 37.98 436 40.5C436 43.02 434.02 45 431.5 45ZM413.5 45C410.98 45 409 43.02 409 40.5C409 37.98 410.98 36 413.5 36C416.02 36 418 37.98 418 40.5C418 43.02 416.02 45 413.5 45ZM404.5 45C401.98 45 400 43.02 400 40.5C400 37.98 401.98 36 404.5 36C407.02 36 409 37.98 409 40.5C409 43.02 407.02 45 404.5 45ZM395.5 45C392.98 45 391 43.02 391 40.5C391 37.98 392.98 36 395.5 36C398.02 36 400 37.98 400 40.5C400 43.02 398.02 45 395.5 45ZM386.5 45C383.98 45 382 43.02 382 40.5C382 37.98 383.98 36 386.5 36C389.02 36 391 37.98 391 40.5C391 43.02 389.02 45 386.5 45ZM386.5 54C383.98 54 382 52.02 382 49.5C382 46.98 383.98 45 386.5 45C389.02 45 391 46.98 391 49.5C391 52.02 389.02 54 386.5 54ZM377.5 54C374.98 54 373 52.02 373 49.5C373 46.98 374.98 45 377.5 45C380.02 45 382 46.98 382 49.5C382 52.02 380.02 54 377.5 54ZM431.5 54C428.98 54 427 52.02 427 49.5C427 46.98 428.98 45 431.5 45C434.02 45 436 46.98 436 49.5C436 52.02 434.02 54 431.5 54ZM422.5 54C419.98 54 418 52.02 418 49.5C418 46.98 419.98 45 422.5 45C425.02 45 427 46.98 427 49.5C427 52.02 425.02 54 422.5 54ZM395.5 54C392.98 54 391 52.02 391 49.5C391 46.98 392.98 45 395.5 45C398.02 45 400 46.98 400 49.5C400 52.02 398.02 54 395.5 54ZM386.5 63C383.98 63 382 61.02 382 58.5C382 55.98 383.98 54 386.5 54C389.02 54 391 55.98 391 58.5C391 61.02 389.02 63 386.5 63ZM377.5 63C374.98 63 373 61.02 373 58.5C373 55.98 374.98 54 377.5 54C380.02 54 382 55.98 382 58.5C382 61.02 380.02 63 377.5 63ZM386.5 72C383.98 72 382 70.02 382 67.5C382 64.98 383.98 63 386.5 63C389.02 63 391 64.98 391 67.5C391 70.02 389.02 72 386.5 72ZM377.5 72C374.98 72 373 70.02 373 67.5C373 64.98 374.98 63 377.5 63C380.02 63 382 64.98 382 67.5C382 70.02 380.02 72 377.5 72ZM431.5 81C428.98 81 427 79.02 427 76.5C427 73.98 428.98 72 431.5 72C434.02 72 436 73.98 436 76.5C436 79.02 434.02 81 431.5 81ZM386.5 81C383.98 81 382 79.02 382 76.5C382 73.98 383.98 72 386.5 72C389.02 72 391 73.98 391 76.5C391 79.02 389.02 81 386.5 81ZM377.5 81C374.98 81 373 79.02 373 76.5C373 73.98 374.98 72 377.5 72C380.02 72 382 73.98 382 76.5C382 79.02 380.02 81 377.5 81ZM422.5 81C419.98 81 418 79.02 418 76.5C418 73.98 419.98 72 422.5 72C425.02 72 427 73.98 427 76.5C427 79.02 425.02 81 422.5 81ZM395.5 81C392.98 81 391 79.02 391 76.5C391 73.98 392.98 72 395.5 72C398.02 72 400 73.98 400 76.5C400 79.02 398.02 81 395.5 81ZM395.5 90C392.98 90 391 88.02 391 85.5C391 82.98 392.98 81 395.5 81C398.02 81 400 82.98 400 85.5C400 88.02 398.02 90 395.5 90ZM422.5 90C419.98 90 418 88.02 418 85.5C418 82.98 419.98 81 422.5 81C425.02 81 427 82.98 427 85.5C427 88.02 425.02 90 422.5 90ZM404.5 90C401.98 90 400 88.02 400 85.5C400 82.98 401.98 81 404.5 81C407.02 81 409 82.98 409 85.5C409 88.02 407.02 90 404.5 90ZM431.5 90C428.98 90 427 88.02 427 85.5C427 82.98 428.98 81 431.5 81C434.02 81 436 82.98 436 85.5C436 88.02 434.02 90 431.5 90ZM413.5 90C410.98 90 409 88.02 409 85.5C409 82.98 410.98 81 413.5 81C416.02 81 418 82.98 418 85.5C418 88.02 416.02 90 413.5 90ZM386.5 90C383.98 90 382 88.02 382 85.5C382 82.98 383.98 81 386.5 81C389.02 81 391 82.98 391 85.5C391 88.02 389.02 90 386.5 90ZM395.5 99C392.98 99 391 97.02 391 94.5C391 91.98 392.98 90 395.5 90C398.02 90 400 91.98 400 94.5C400 97.02 398.02 99 395.5 99ZM404.5 99C401.98 99 400 97.02 400 94.5C400 91.98 401.98 90 404.5 90C407.02 90 409 91.98 409 94.5C409 97.02 407.02 99 404.5 99ZM422.5 99C419.98 99 418 97.02 418 94.5C418 91.98 419.98 90 422.5 90C425.02 90 427 91.98 427 94.5C427 97.02 425.02 99 422.5 99ZM413.5 99C410.98 99 409 97.02 409 94.5C409 91.98 410.98 90 413.5 90C416.02 90 418 91.98 418 94.5C418 97.02 416.02 99 413.5 99ZM512.5 18C509.98 18 508 16.02 508 13.5C508 10.98 509.98 9 512.5 9C515.02 9 517 10.98 517 13.5C517 16.02 515.02 18 512.5 18ZM503.5 27C500.98 27 499 25.02 499 22.5C499 19.98 500.98 18 503.5 18C506.02 18 508 19.98 508 22.5C508 25.02 506.02 27 503.5 27ZM512.5 27C509.98 27 508 25.02 508 22.5C508 19.98 509.98 18 512.5 18C515.02 18 517 19.98 517 22.5C517 25.02 515.02 27 512.5 27ZM494.5 36C491.98 36 490 34.02 490 31.5C490 28.98 491.98 27 494.5 27C497.02 27 499 28.98 499 31.5C499 34.02 497.02 36 494.5 36ZM512.5 36C509.98 36 508 34.02 508 31.5C508 28.98 509.98 27 512.5 27C515.02 27 517 28.98 517 31.5C517 34.02 515.02 36 512.5 36ZM539.5 36C536.98 36 535 34.02 535 31.5C535 28.98 536.98 27 539.5 27C542.02 27 544 28.98 544 31.5C544 34.02 542.02 36 539.5 36ZM530.5 36C527.98 36 526 34.02 526 31.5C526 28.98 527.98 27 530.5 27C533.02 27 535 28.98 535 31.5C535 34.02 533.02 36 530.5 36ZM521.5 36C518.98 36 517 34.02 517 31.5C517 28.98 518.98 27 521.5 27C524.02 27 526 28.98 526 31.5C526 34.02 524.02 36 521.5 36ZM503.5 36C500.98 36 499 34.02 499 31.5C499 28.98 500.98 27 503.5 27C506.02 27 508 28.98 508 31.5C508 34.02 506.02 36 503.5 36ZM485.5 45C482.98 45 481 43.02 481 40.5C481 37.98 482.98 36 485.5 36C488.02 36 490 37.98 490 40.5C490 43.02 488.02 45 485.5 45ZM512.5 45C509.98 45 508 43.02 508 40.5C508 37.98 509.98 36 512.5 36C515.02 36 517 37.98 517 40.5C517 43.02 515.02 45 512.5 45ZM530.5 45C527.98 45 526 43.02 526 40.5C526 37.98 527.98 36 530.5 36C533.02 36 535 37.98 535 40.5C535 43.02 533.02 45 530.5 45ZM521.5 45C518.98 45 517 43.02 517 40.5C517 37.98 518.98 36 521.5 36C524.02 36 526 37.98 526 40.5C526 43.02 524.02 45 521.5 45ZM494.5 45C491.98 45 490 43.02 490 40.5C490 37.98 491.98 36 494.5 36C497.02 36 499 37.98 499 40.5C499 43.02 497.02 45 494.5 45ZM503.5 45C500.98 45 499 43.02 499 40.5C499 37.98 500.98 36 503.5 36C506.02 36 508 37.98 508 40.5C508 43.02 506.02 45 503.5 45ZM512.5 54C509.98 54 508 52.02 508 49.5C508 46.98 509.98 45 512.5 45C515.02 45 517 46.98 517 49.5C517 52.02 515.02 54 512.5 54ZM503.5 54C500.98 54 499 52.02 499 49.5C499 46.98 500.98 45 503.5 45C506.02 45 508 46.98 508 49.5C508 52.02 506.02 54 503.5 54ZM512.5 63C509.98 63 508 61.02 508 58.5C508 55.98 509.98 54 512.5 54C515.02 54 517 55.98 517 58.5C517 61.02 515.02 63 512.5 63ZM503.5 63C500.98 63 499 61.02 499 58.5C499 55.98 500.98 54 503.5 54C506.02 54 508 55.98 508 58.5C508 61.02 506.02 63 503.5 63ZM503.5 72C500.98 72 499 70.02 499 67.5C499 64.98 500.98 63 503.5 63C506.02 63 508 64.98 508 67.5C508 70.02 506.02 72 503.5 72ZM512.5 72C509.98 72 508 70.02 508 67.5C508 64.98 509.98 63 512.5 63C515.02 63 517 64.98 517 67.5C517 70.02 515.02 72 512.5 72ZM503.5 81C500.98 81 499 79.02 499 76.5C499 73.98 500.98 72 503.5 72C506.02 72 508 73.98 508 76.5C508 79.02 506.02 81 503.5 81ZM512.5 81C509.98 81 508 79.02 508 76.5C508 73.98 509.98 72 512.5 72C515.02 72 517 73.98 517 76.5C517 79.02 515.02 81 512.5 81ZM503.5 90C500.98 90 499 88.02 499 85.5C499 82.98 500.98 81 503.5 81C506.02 81 508 82.98 508 85.5C508 88.02 506.02 90 503.5 90ZM512.5 90C509.98 90 508 88.02 508 85.5C508 82.98 509.98 81 512.5 81C515.02 81 517 82.98 517 85.5C517 88.02 515.02 90 512.5 90ZM521.5 90C518.98 90 517 88.02 517 85.5C517 82.98 518.98 81 521.5 81C524.02 81 526 82.98 526 85.5C526 88.02 524.02 90 521.5 90ZM530.5 90C527.98 90 526 88.02 526 85.5C526 82.98 527.98 81 530.5 81C533.02 81 535 82.98 535 85.5C535 88.02 533.02 90 530.5 90ZM539.5 90C536.98 90 535 88.02 535 85.5C535 82.98 536.98 81 539.5 81C542.02 81 544 82.98 544 85.5C544 88.02 542.02 90 539.5 90ZM512.5 99C509.98 99 508 97.02 508 94.5C508 91.98 509.98 90 512.5 90C515.02 90 517 91.98 517 94.5C517 97.02 515.02 99 512.5 99ZM521.5 99C518.98 99 517 97.02 517 94.5C517 91.98 518.98 90 521.5 90C524.02 90 526 91.98 526 94.5C526 97.02 524.02 99 521.5 99ZM530.5 99C527.98 99 526 97.02 526 94.5C526 91.98 527.98 90 530.5 90C533.02 90 535 91.98 535 94.5C535 97.02 533.02 99 530.5 99ZM575.5 36C572.98 36 571 34.02 571 31.5C571 28.98 572.98 27 575.5 27C578.02 27 580 28.98 580 31.5C580 34.02 578.02 36 575.5 36ZM584.5 36C581.98 36 580 34.02 580 31.5C580 28.98 581.98 27 584.5 27C587.02 27 589 28.98 589 31.5C589 34.02 587.02 36 584.5 36ZM593.5 36C590.98 36 589 34.02 589 31.5C589 28.98 590.98 27 593.5 27C596.02 27 598 28.98 598 31.5C598 34.02 596.02 36 593.5 36ZM602.5 36C599.98 36 598 34.02 598 31.5C598 28.98 599.98 27 602.5 27C605.02 27 607 28.98 607 31.5C607 34.02 605.02 36 602.5 36ZM566.5 45C563.98 45 562 43.02 562 40.5C562 37.98 563.98 36 566.5 36C569.02 36 571 37.98 571 40.5C571 43.02 569.02 45 566.5 45ZM575.5 45C572.98 45 571 43.02 571 40.5C571 37.98 572.98 36 575.5 36C578.02 36 580 37.98 580 40.5C580 43.02 578.02 45 575.5 45ZM584.5 45C581.98 45 580 43.02 580 40.5C580 37.98 581.98 36 584.5 36C587.02 36 589 37.98 589 40.5C589 43.02 587.02 45 584.5 45ZM593.5 45C590.98 45 589 43.02 589 40.5C589 37.98 590.98 36 593.5 36C596.02 36 598 37.98 598 40.5C598 43.02 596.02 45 593.5 45ZM602.5 45C599.98 45 598 43.02 598 40.5C598 37.98 599.98 36 602.5 36C605.02 36 607 37.98 607 40.5C607 43.02 605.02 45 602.5 45ZM611.5 45C608.98 45 607 43.02 607 40.5C607 37.98 608.98 36 611.5 36C614.02 36 616 37.98 616 40.5C616 43.02 614.02 45 611.5 45ZM557.5 54C554.98 54 553 52.02 553 49.5C553 46.98 554.98 45 557.5 45C560.02 45 562 46.98 562 49.5C562 52.02 560.02 54 557.5 54ZM620.5 54C617.98 54 616 52.02 616 49.5C616 46.98 617.98 45 620.5 45C623.02 45 625 46.98 625 49.5C625 52.02 623.02 54 620.5 54ZM611.5 54C608.98 54 607 52.02 607 49.5C607 46.98 608.98 45 611.5 45C614.02 45 616 46.98 616 49.5C616 52.02 614.02 54 611.5 54ZM602.5 54C599.98 54 598 52.02 598 49.5C598 46.98 599.98 45 602.5 45C605.02 45 607 46.98 607 49.5C607 52.02 605.02 54 602.5 54ZM575.5 54C572.98 54 571 52.02 571 49.5C571 46.98 572.98 45 575.5 45C578.02 45 580 46.98 580 49.5C580 52.02 578.02 54 575.5 54ZM566.5 54C563.98 54 562 52.02 562 49.5C562 46.98 563.98 45 566.5 45C569.02 45 571 46.98 571 49.5C571 52.02 569.02 54 566.5 54ZM566.5 63C563.98 63 562 61.02 562 58.5C562 55.98 563.98 54 566.5 54C569.02 54 571 55.98 571 58.5C571 61.02 569.02 63 566.5 63ZM557.5 63C554.98 63 553 61.02 553 58.5C553 55.98 554.98 54 557.5 54C560.02 54 562 55.98 562 58.5C562 61.02 560.02 63 557.5 63ZM620.5 63C617.98 63 616 61.02 616 58.5C616 55.98 617.98 54 620.5 54C623.02 54 625 55.98 625 58.5C625 61.02 623.02 63 620.5 63ZM611.5 63C608.98 63 607 61.02 607 58.5C607 55.98 608.98 54 611.5 54C614.02 54 616 55.98 616 58.5C616 61.02 614.02 63 611.5 63ZM566.5 72C563.98 72 562 70.02 562 67.5C562 64.98 563.98 63 566.5 63C569.02 63 571 64.98 571 67.5C571 70.02 569.02 72 566.5 72ZM557.5 72C554.98 72 553 70.02 553 67.5C553 64.98 554.98 63 557.5 63C560.02 63 562 64.98 562 67.5C562 70.02 560.02 72 557.5 72ZM620.5 72C617.98 72 616 70.02 616 67.5C616 64.98 617.98 63 620.5 63C623.02 63 625 64.98 625 67.5C625 70.02 623.02 72 620.5 72ZM611.5 72C608.98 72 607 70.02 607 67.5C607 64.98 608.98 63 611.5 63C614.02 63 616 64.98 616 67.5C616 70.02 614.02 72 611.5 72ZM602.5 81C599.98 81 598 79.02 598 76.5C598 73.98 599.98 72 602.5 72C605.02 72 607 73.98 607 76.5C607 79.02 605.02 81 602.5 81ZM611.5 81C608.98 81 607 79.02 607 76.5C607 73.98 608.98 72 611.5 72C614.02 72 616 73.98 616 76.5C616 79.02 614.02 81 611.5 81ZM575.5 81C572.98 81 571 79.02 571 76.5C571 73.98 572.98 72 575.5 72C578.02 72 580 73.98 580 76.5C580 79.02 578.02 81 575.5 81ZM620.5 81C617.98 81 616 79.02 616 76.5C616 73.98 617.98 72 620.5 72C623.02 72 625 73.98 625 76.5C625 79.02 623.02 81 620.5 81ZM566.5 81C563.98 81 562 79.02 562 76.5C562 73.98 563.98 72 566.5 72C569.02 72 571 73.98 571 76.5C571 79.02 569.02 81 566.5 81ZM557.5 81C554.98 81 553 79.02 553 76.5C553 73.98 554.98 72 557.5 72C560.02 72 562 73.98 562 76.5C562 79.02 560.02 81 557.5 81ZM602.5 90C599.98 90 598 88.02 598 85.5C598 82.98 599.98 81 602.5 81C605.02 81 607 82.98 607 85.5C607 88.02 605.02 90 602.5 90ZM611.5 90C608.98 90 607 88.02 607 85.5C607 82.98 608.98 81 611.5 81C614.02 81 616 82.98 616 85.5C616 88.02 614.02 90 611.5 90ZM593.5 90C590.98 90 589 88.02 589 85.5C589 82.98 590.98 81 593.5 81C596.02 81 598 82.98 598 85.5C598 88.02 596.02 90 593.5 90ZM584.5 90C581.98 90 580 88.02 580 85.5C580 82.98 581.98 81 584.5 81C587.02 81 589 82.98 589 85.5C589 88.02 587.02 90 584.5 90ZM575.5 90C572.98 90 571 88.02 571 85.5C571 82.98 572.98 81 575.5 81C578.02 81 580 82.98 580 85.5C580 88.02 578.02 90 575.5 90ZM566.5 90C563.98 90 562 88.02 562 85.5C562 82.98 563.98 81 566.5 81C569.02 81 571 82.98 571 85.5C571 88.02 569.02 90 566.5 90ZM602.5 99C599.98 99 598 97.02 598 94.5C598 91.98 599.98 90 602.5 90C605.02 90 607 91.98 607 94.5C607 97.02 605.02 99 602.5 99ZM593.5 99C590.98 99 589 97.02 589 94.5C589 91.98 590.98 90 593.5 90C596.02 90 598 91.98 598 94.5C598 97.02 596.02 99 593.5 99ZM584.5 99C581.98 99 580 97.02 580 94.5C580 91.98 581.98 90 584.5 90C587.02 90 589 91.98 589 94.5C589 97.02 587.02 99 584.5 99ZM575.5 99C572.98 99 571 97.02 571 94.5C571 91.98 572.98 90 575.5 90C578.02 90 580 91.98 580 94.5C580 97.02 578.02 99 575.5 99ZM683.5 36C680.98 36 679 34.02 679 31.5C679 28.98 680.98 27 683.5 27C686.02 27 688 28.98 688 31.5C688 34.02 686.02 36 683.5 36ZM674.5 36C671.98 36 670 34.02 670 31.5C670 28.98 671.98 27 674.5 27C677.02 27 679 28.98 679 31.5C679 34.02 677.02 36 674.5 36ZM665.5 36C662.98 36 661 34.02 661 31.5C661 28.98 662.98 27 665.5 27C668.02 27 670 28.98 670 31.5C670 34.02 668.02 36 665.5 36ZM683.5 45C680.98 45 679 43.02 679 40.5C679 37.98 680.98 36 683.5 36C686.02 36 688 37.98 688 40.5C688 43.02 686.02 45 683.5 45ZM656.5 45C653.98 45 652 43.02 652 40.5C652 37.98 653.98 36 656.5 36C659.02 36 661 37.98 661 40.5C661 43.02 659.02 45 656.5 45ZM692.5 45C689.98 45 688 43.02 688 40.5C688 37.98 689.98 36 692.5 36C695.02 36 697 37.98 697 40.5C697 43.02 695.02 45 692.5 45ZM674.5 45C671.98 45 670 43.02 670 40.5C670 37.98 671.98 36 674.5 36C677.02 36 679 37.98 679 40.5C679 43.02 677.02 45 674.5 45ZM665.5 45C662.98 45 661 43.02 661 40.5C661 37.98 662.98 36 665.5 36C668.02 36 670 37.98 670 40.5C670 43.02 668.02 45 665.5 45ZM647.5 54C644.98 54 643 52.02 643 49.5C643 46.98 644.98 45 647.5 45C650.02 45 652 46.98 652 49.5C652 52.02 650.02 54 647.5 54ZM692.5 54C689.98 54 688 52.02 688 49.5C688 46.98 689.98 45 692.5 45C695.02 45 697 46.98 697 49.5C697 52.02 695.02 54 692.5 54ZM656.5 54C653.98 54 652 52.02 652 49.5C652 46.98 653.98 45 656.5 45C659.02 45 661 46.98 661 49.5C661 52.02 659.02 54 656.5 54ZM701.5 54C698.98 54 697 52.02 697 49.5C697 46.98 698.98 45 701.5 45C704.02 45 706 46.98 706 49.5C706 52.02 704.02 54 701.5 54ZM656.5 63C653.98 63 652 61.02 652 58.5C652 55.98 653.98 54 656.5 54C659.02 54 661 55.98 661 58.5C661 61.02 659.02 63 656.5 63ZM692.5 63C689.98 63 688 61.02 688 58.5C688 55.98 689.98 54 692.5 54C695.02 54 697 55.98 697 58.5C697 61.02 695.02 63 692.5 63ZM701.5 63C698.98 63 697 61.02 697 58.5C697 55.98 698.98 54 701.5 54C704.02 54 706 55.98 706 58.5C706 61.02 704.02 63 701.5 63ZM647.5 63C644.98 63 643 61.02 643 58.5C643 55.98 644.98 54 647.5 54C650.02 54 652 55.98 652 58.5C652 61.02 650.02 63 647.5 63ZM665.5 63C662.98 63 661 61.02 661 58.5C661 55.98 662.98 54 665.5 54C668.02 54 670 55.98 670 58.5C670 61.02 668.02 63 665.5 63ZM674.5 63C671.98 63 670 61.02 670 58.5C670 55.98 671.98 54 674.5 54C677.02 54 679 55.98 679 58.5C679 61.02 677.02 63 674.5 63ZM683.5 63C680.98 63 679 61.02 679 58.5C679 55.98 680.98 54 683.5 54C686.02 54 688 55.98 688 58.5C688 61.02 686.02 63 683.5 63ZM656.5 72C653.98 72 652 70.02 652 67.5C652 64.98 653.98 63 656.5 63C659.02 63 661 64.98 661 67.5C661 70.02 659.02 72 656.5 72ZM665.5 72C662.98 72 661 70.02 661 67.5C661 64.98 662.98 63 665.5 63C668.02 63 670 64.98 670 67.5C670 70.02 668.02 72 665.5 72ZM674.5 72C671.98 72 670 70.02 670 67.5C670 64.98 671.98 63 674.5 63C677.02 63 679 64.98 679 67.5C679 70.02 677.02 72 674.5 72ZM683.5 72C680.98 72 679 70.02 679 67.5C679 64.98 680.98 63 683.5 63C686.02 63 688 64.98 688 67.5C688 70.02 686.02 72 683.5 72ZM692.5 72C689.98 72 688 70.02 688 67.5C688 64.98 689.98 63 692.5 63C695.02 63 697 64.98 697 67.5C697 70.02 695.02 72 692.5 72ZM701.5 72C698.98 72 697 70.02 697 67.5C697 64.98 698.98 63 701.5 63C704.02 63 706 64.98 706 67.5C706 70.02 704.02 72 701.5 72ZM647.5 72C644.98 72 643 70.02 643 67.5C643 64.98 644.98 63 647.5 63C650.02 63 652 64.98 652 67.5C652 70.02 650.02 72 647.5 72ZM656.5 81C653.98 81 652 79.02 652 76.5C652 73.98 653.98 72 656.5 72C659.02 72 661 73.98 661 76.5C661 79.02 659.02 81 656.5 81ZM647.5 81C644.98 81 643 79.02 643 76.5C643 73.98 644.98 72 647.5 72C650.02 72 652 73.98 652 76.5C652 79.02 650.02 81 647.5 81ZM656.5 90C653.98 90 652 88.02 652 85.5C652 82.98 653.98 81 656.5 81C659.02 81 661 82.98 661 85.5C661 88.02 659.02 90 656.5 90ZM665.5 90C662.98 90 661 88.02 661 85.5C661 82.98 662.98 81 665.5 81C668.02 81 670 82.98 670 85.5C670 88.02 668.02 90 665.5 90ZM674.5 90C671.98 90 670 88.02 670 85.5C670 82.98 671.98 81 674.5 81C677.02 81 679 82.98 679 85.5C679 88.02 677.02 90 674.5 90ZM683.5 90C680.98 90 679 88.02 679 85.5C679 82.98 680.98 81 683.5 81C686.02 81 688 82.98 688 85.5C688 88.02 686.02 90 683.5 90ZM692.5 90C689.98 90 688 88.02 688 85.5C688 82.98 689.98 81 692.5 81C695.02 81 697 82.98 697 85.5C697 88.02 695.02 90 692.5 90ZM701.5 90C698.98 90 697 88.02 697 85.5C697 82.98 698.98 81 701.5 81C704.02 81 706 82.98 706 85.5C706 88.02 704.02 90 701.5 90ZM665.5 99C662.98 99 661 97.02 661 94.5C661 91.98 662.98 90 665.5 90C668.02 90 670 91.98 670 94.5C670 97.02 668.02 99 665.5 99ZM674.5 99C671.98 99 670 97.02 670 94.5C670 91.98 671.98 90 674.5 90C677.02 90 679 91.98 679 94.5C679 97.02 677.02 99 674.5 99ZM683.5 99C680.98 99 679 97.02 679 94.5C679 91.98 680.98 90 683.5 90C686.02 90 688 91.98 688 94.5C688 97.02 686.02 99 683.5 99ZM692.5 99C689.98 99 688 97.02 688 94.5C688 91.98 689.98 90 692.5 90C695.02 90 697 91.98 697 94.5C697 97.02 695.02 99 692.5 99Z" fill="white"/>
</g>
<defs>
<filter id="filter0_d_1_7" x="0" y="0" width="710" height="107" filterUnits="userSpaceOnUse" color-interpolation-filters="sRGB">
<feFlood flood-opacity="0" result="BackgroundImageFix"/>
<feColorMatrix in="SourceAlpha" type="matrix" values="0 0 0 0 0 0 0 0 0 0 0 0 0 0 0 0 0 0 127 0" result="hardAlpha"/>
<feOffset dy="4"/>
<feGaussianBlur stdDeviation="2"/>
<feComposite in2="hardAlpha" operator="out"/>
<feColorMatrix type="matrix" values="0 0 0 0 0 0 0 0 0 0 0 0 0 0 0 0 0 0 0.25 0"/>
<feBlend mode="normal" in2="BackgroundImageFix" result="effect1_dropShadow_1_7"/>
<feBlend mode="normal" in="SourceGraphic" in2="effect1_dropShadow_1_7" result="shape"/>
</filter>
</defs>
</svg>
